<svg xmlns="http://www.w3.org/2000/svg" width="1904" height="1823" viewBox="0 0 1904 1823" fill="none"><g clip-path="url(#clip0_12_220)"><path d="M1698.02 707.85H1838.86V1058.91H1698.02V707.85Z" fill="#A7BCFB"></path><path d="M1487.82 599.76H1628.66V1058.91H1487.82V599.76Z" fill="#A7BCFB"></path><path d="M1277.62 508.83H1418.46V1058.91H1277.62V508.83Z" fill="#A7BCFB"></path><path d="M896.475 252.409L834.656 254.654L830.459 139.1L892.279 136.855L896.475 252.409Z" fill="white"></path><path d="M834.65 258.65L896.62 256.4C898.82 256.32 900.55 254.48 900.47 252.26L896.27 136.7C896.19 134.45 894.28 132.77 892.13 132.85L830.31 135.1C828.1 135.18 826.38 137.04 826.46 139.24L830.66 254.79C830.74 256.95 832.51 258.65 834.66 258.65H834.65ZM892.33 248.56L838.5 250.51L834.59 142.95L888.42 140.99L892.33 248.55V248.56Z" fill="#353535"></path><path d="M1481.79 264.64C1481.79 147.98 1576.36 53.4099 1693.02 53.4099C1809.68 53.4099 1904.26 147.98 1904.26 264.64C1904.26 349.01 1854.78 421.81 1783.26 455.65V543.97H1602.79V455.65C1531.27 421.81 1481.79 349.01 1481.79 264.64Z" fill="#FFCF4B"></path><path d="M1674.95 566H1711.11C1715.94 566 1719.86 569.918 1719.86 574.75V601.48C1719.86 606.312 1715.94 610.23 1711.11 610.23H1674.95C1670.12 610.23 1666.2 606.312 1666.2 601.48V574.75C1666.2 569.918 1670.12 566 1674.95 566Z" fill="white"></path><path d="M1674.95 614.23H1711.11C1718.14 614.23 1723.86 608.51 1723.86 601.48V574.76C1723.86 567.73 1718.14 562.01 1711.11 562.01H1674.95C1667.92 562.01 1662.2 567.73 1662.2 574.76V601.48C1662.2 608.51 1667.92 614.23 1674.95 614.23ZM1711.1 570.01C1713.72 570.01 1715.85 572.14 1715.85 574.76V601.48C1715.85 604.1 1713.72 606.23 1711.1 606.23H1674.94C1672.32 606.23 1670.19 604.1 1670.19 601.48V574.76C1670.19 572.14 1672.32 570.01 1674.94 570.01H1711.1Z" fill="#353535"></path><path d="M1784.95 475.88H1601.09V549.38C1601.09 569.31 1617.27 585.5 1637.21 585.5H1744.02C1766.61 585.5 1784.95 567.16 1784.95 544.57V475.88Z" fill="white"></path><path d="M1637.21 589.49H1744.02C1768.79 589.49 1788.95 569.33 1788.95 544.56V475.87C1788.95 473.66 1787.16 471.87 1784.95 471.87H1601.09C1598.88 471.87 1597.09 473.66 1597.09 475.87V549.37C1597.09 571.49 1615.09 589.49 1637.21 589.49ZM1780.96 479.87V544.56C1780.96 564.92 1764.39 581.49 1744.03 581.49H1637.22C1619.51 581.49 1605.1 567.08 1605.1 549.37V479.87H1780.96Z" fill="#353535"></path><path d="M1612.73 512.58H1773.98C1776.19 512.58 1777.98 510.79 1777.98 508.58C1777.98 506.37 1776.19 504.58 1773.98 504.58H1612.73C1610.52 504.58 1608.73 506.37 1608.73 508.58C1608.73 510.79 1610.52 512.58 1612.73 512.58Z" fill="#353535"></path><path d="M1612.73 541.29H1773.98C1776.19 541.29 1777.98 539.5 1777.98 537.29C1777.98 535.08 1776.19 533.29 1773.98 533.29H1612.73C1610.52 533.29 1608.73 535.08 1608.73 537.29C1608.73 539.5 1610.52 541.29 1612.73 541.29Z" fill="#353535"></path><path d="M1353.98 313.66C1353.98 313.66 1384.52 281.09 1400.1 274.82C1415.67 268.55 1475.14 302.53 1473.73 317.3C1472.31 332.07 1446.02 323.97 1423.57 305.57L1382.14 329.78L1353.99 313.66H1353.98Z" fill="white"></path><path d="M1382.13 333.78C1383.81 333.78 1382.4 334.25 1423.21 310.41C1438.52 322.37 1459.15 332.51 1470.56 327.76C1474.71 326.03 1477.25 322.46 1477.7 317.68C1478.3 311.39 1472.45 303.59 1460.3 294.51C1442.72 281.37 1411.5 265.93 1398.6 271.11C1382.39 277.64 1352.33 309.57 1351.06 310.92C1349.3 312.8 1349.75 315.84 1351.99 317.13C1382.54 334.62 1380.61 333.78 1382.13 333.78ZM1423.56 301.57C1421.88 301.57 1423.28 301.1 1382.11 325.16L1360.42 312.74C1368.79 304.17 1390 283.2 1401.59 278.54C1409.31 275.42 1436.52 286.73 1455.51 300.92C1467.12 309.6 1469.92 315.06 1469.74 316.92C1469.52 319.23 1468.48 319.96 1467.49 320.37C1461.23 322.97 1443.65 316.86 1426.1 302.47C1425.37 301.87 1424.47 301.56 1423.56 301.56V301.57Z" fill="#353535"></path><path d="M1392.18 303.1L1421.54 312.85C1421.54 312.85 1459.57 322.15 1466.85 339.14C1474.13 356.13 1481.41 386.27 1469.28 387.14C1459.19 387.86 1454.7 372 1453.47 366.62C1454.67 372.68 1457.9 392.56 1448.64 393.75C1437.72 395.17 1432.05 371.5 1432.05 371.5C1420.42 394.76 1403.73 386.47 1403.73 386.47L1390.51 409.45C1368.03 406.4 1348.97 393.16 1343.05 375.14C1334.45 348.92 1353.79 312.85 1392.17 303.09L1392.18 303.1Z" fill="white"></path><path d="M1393.98 411.45L1405.6 391.25C1411.08 392.51 1421.77 392.9 1430.9 380.97C1434.02 388.82 1439.92 398.92 1449.15 397.72C1454.84 396.98 1457.57 392.26 1458.52 386.6C1464.22 392.48 1473.27 393.04 1477.36 386.32C1484.13 375.21 1474.71 347.36 1470.51 337.56C1462.67 319.26 1426.57 309.96 1422.48 308.96C1391.16 298.54 1392.8 298.8 1391.19 299.21C1349.93 309.71 1330.09 348.47 1339.25 376.39C1345.54 395.56 1365.45 410.09 1389.97 413.41C1391.53 413.63 1393.14 412.89 1393.97 411.44L1393.98 411.45ZM1400.28 384.48L1388.42 405.09C1354.15 399.11 1333.76 370.58 1351.53 338.23C1359.74 323.28 1374.47 312.05 1392.05 307.27L1420.28 316.65C1430.63 319.2 1457.85 328.31 1463.17 340.72C1469.54 355.58 1474.13 376.26 1470.54 382.17C1468.88 384.9 1461.32 383.03 1457.37 365.73C1456.88 363.6 1454.76 362.26 1452.64 362.71C1450.5 363.17 1449.12 365.25 1449.55 367.4C1451.54 377.41 1451.47 386.08 1449.39 388.98C1448.97 389.57 1448.58 389.73 1448.14 389.78C1442.95 390.41 1437.65 377.6 1435.96 370.57C1435.09 366.95 1430.16 366.38 1428.49 369.71C1419.04 388.6 1406.86 383.51 1405.5 382.87C1403.63 381.98 1401.33 382.65 1400.29 384.47L1400.28 384.48Z" fill="#353535"></path><path d="M1483.82 360.29C1495.55 357.83 1507.28 355.36 1519 352.9C1510.64 344.13 1502.29 335.36 1493.93 326.58L1268.14 258.83C1258.88 256.05 1248.97 261.8 1246.01 271.67C1243.39 280.42 1247.91 289.5 1256.12 291.97L1483.82 360.29Z" fill="#353535"></path><path d="M1318.99 342.99C1322.55 337.99 1327.98 330.72 1335.17 322.36C1357.01 296.95 1354.66 302.07 1388.53 303.01C1415.9 303.77 1424.31 301.31 1427.13 306.54C1430.17 312.18 1423.83 321.36 1419.71 325.6C1406.4 339.31 1384.64 334.67 1382.12 334.1C1382.12 334.1 1386.69 342.9 1383.64 353.16C1381.84 359.19 1378.3 363.06 1376.42 364.85L1362.55 379.41C1348.03 367.27 1333.5 355.14 1318.98 343L1318.99 342.99Z" fill="white"></path><path d="M1365.46 382.16L1379.33 367.6C1386.63 360.7 1390.38 350.26 1387.97 339.05C1396.9 339.9 1411.96 339.34 1422.59 328.39C1427.57 323.26 1434.88 312.48 1430.66 304.65C1426.42 296.8 1417.53 299.81 1388.65 299.02C1354.51 298.08 1355.26 292.87 1332.14 319.76C1326.35 326.5 1320.83 333.54 1315.74 340.68C1314.53 342.38 1314.83 344.73 1316.43 346.07L1360 382.48C1361.62 383.83 1364.01 383.7 1365.46 382.17V382.16ZM1378.59 335.93C1378.62 335.99 1382.35 343.51 1379.83 352C1378.42 356.73 1375.71 360.01 1373.69 361.93L1362.26 373.92L1324.42 342.31C1328.76 336.4 1333.38 330.58 1338.21 324.96C1358.68 301.15 1354.94 306.08 1388.43 307C1410.17 307.61 1422.36 306.09 1423.62 308.43C1425.13 311.23 1421.27 318.26 1416.85 322.8C1405.18 334.83 1385.26 330.69 1383.03 330.18C1379.7 329.41 1377.03 332.91 1378.59 335.92V335.93Z" fill="#353535"></path><path d="M948.489 230.28C998.449 230.71 1029.89 245.77 1048.08 257.69C1099.46 291.36 1095.4 348.79 1194.39 457.88C1235.92 419.58 1277.45 381.29 1318.99 342.99C1343.17 363.91 1367.35 384.83 1391.53 405.75C1389.92 420.6 1386.11 446.16 1375.62 476.08C1371.62 487.49 1315.29 641.49 1193.9 659.76C1167.82 663.68 1146.98 660.11 1137.75 658.12C1074.83 644.57 1038.39 594.47 1017.6 565.89C931.069 446.9 945.619 262.22 948.479 230.28H948.489Z" fill="white"></path><path d="M1194.5 663.72C1319.33 644.93 1377.01 484.24 1379.4 477.41C1387.46 454.4 1392.88 430.44 1395.51 406.19C1395.65 404.89 1395.14 403.59 1394.15 402.73L1321.61 339.97C1320.07 338.64 1317.77 338.68 1316.28 340.05L1194.66 452.2C1098.13 344.52 1102.59 288.64 1050.28 254.35C1022.39 236.07 988.15 226.62 948.53 226.28C946.47 226.43 944.7 227.85 944.51 229.92C939.98 280.52 931.63 454.46 1014.38 568.24C1034.69 596.17 1072.5 648.16 1136.92 662.03C1155.31 665.99 1175.19 666.62 1194.5 663.71V663.72ZM1387.32 407.4C1384.68 430.33 1379.48 452.98 1371.85 474.76C1369.52 481.41 1313.43 637.73 1193.31 655.81C1170.29 659.27 1150.86 656.85 1138.6 654.22C1077.17 640.99 1041.91 592.51 1020.84 563.54C941.63 454.62 947.66 288.54 952.15 234.34C988.64 235.21 1020.16 244.18 1045.88 261.04C1095.46 293.53 1093.43 352.59 1191.42 460.57C1192.93 462.24 1195.49 462.3 1197.09 460.82L1319.06 348.36L1387.31 407.41L1387.32 407.4Z" fill="#353535"></path><path d="M1318.99 398.01C1312.29 398.01 1306.85 392.575 1306.85 385.87C1306.85 379.165 1312.29 373.73 1318.99 373.73C1325.7 373.73 1331.13 379.165 1331.13 385.87C1331.13 392.575 1325.7 398.01 1318.99 398.01Z" fill="#353535"></path><path d="M1562.14 296.63V247.31H1603.99C1606.01 239.93 1608.91 232.93 1612.59 226.41L1583.04 196.86L1617.91 161.99L1647.36 191.44C1653.9 187.7 1660.94 184.74 1668.36 182.68V141.09H1717.68V182.68C1725.1 184.74 1732.14 187.7 1738.68 191.44L1768.13 161.99L1803 196.86L1773.45 226.41C1777.13 232.93 1780.04 239.94 1782.05 247.31H1823.9V296.63H1781.85C1779.8 303.91 1776.87 310.83 1773.19 317.27L1803 347.08L1768.13 381.95L1738.22 352.04C1731.81 355.66 1724.92 358.53 1717.68 360.54V402.85H1668.36V360.54C1661.12 358.53 1654.23 355.66 1647.82 352.04L1617.91 381.95L1583.04 347.08L1612.85 317.27C1609.17 310.83 1606.24 303.91 1604.19 296.63H1562.14ZM1693.03 320.41C1719.94 320.41 1741.83 298.52 1741.83 271.61C1741.83 244.7 1719.94 222.81 1693.03 222.81C1666.12 222.81 1644.23 244.7 1644.23 271.61C1644.23 298.52 1666.12 320.41 1693.03 320.41Z" fill="white"></path><path d="M422.08 1604.35L439.07 1822.8H-0.259644C-0.259644 1822.8 -0.259651 1752.41 104.11 1725.71C208.48 1699.01 266.73 1604.35 266.73 1604.35H422.07H422.08Z" fill="#353535"></path><path d="M739.02 1604.35L668.63 1822.8H1003.59C1003.59 1822.8 1012.09 1786.39 950.19 1732.99C888.29 1679.59 887.08 1604.35 887.08 1604.35H739.02Z" fill="#353535"></path><path d="M1258.92 1065.67C1192.65 1065.67 1138.92 1011.94 1138.92 945.67C1138.92 879.396 1192.65 825.67 1258.92 825.67C1325.19 825.67 1378.92 879.396 1378.92 945.67C1378.92 1011.94 1325.19 1065.67 1258.92 1065.67Z" fill="#A7BCFB"></path><path d="M1280.67 1065.67C1215.31 1065.67 1162.33 1012.69 1162.33 947.33C1162.33 881.973 1215.31 828.99 1280.67 828.99C1346.03 828.99 1399.01 881.973 1399.01 947.33C1399.01 1012.69 1346.03 1065.67 1280.67 1065.67Z" fill="white"></path><path d="M1280.67 1069.67C1348.13 1069.67 1403.01 1014.79 1403.01 947.33C1403.01 879.87 1348.13 824.99 1280.67 824.99C1213.21 824.99 1158.33 879.87 1158.33 947.33C1158.33 1014.79 1213.21 1069.67 1280.67 1069.67ZM1280.67 832.99C1343.72 832.99 1395.01 884.28 1395.01 947.33C1395.01 1010.38 1343.72 1061.67 1280.67 1061.67C1217.62 1061.67 1166.33 1010.38 1166.33 947.33C1166.33 884.28 1217.62 832.99 1280.67 832.99Z" fill="#A7BCFB"></path><path d="M1295.41 1008.87C1260.37 1017.58 1240.82 1003.66 1235.05 980.45L1257.52 974.87C1259.33 982.13 1264.87 988.11 1273.71 990.13C1283.5 992.38 1302.15 987.83 1309.28 979.15C1316.7 970.12 1313.77 959.02 1304.2 954.97C1295.67 951.37 1284.15 953.86 1274.66 955.32C1250.89 959.09 1231.6 951.52 1225.74 927.97C1221.85 912.31 1226.68 899.58 1238.66 890.75C1250.7 881.89 1272.17 876.3 1287.34 879.3C1303.25 882.45 1312.96 893.54 1316.91 909.41L1294.44 914.99C1291.78 904.29 1281.84 896.51 1266.39 900.35C1244.48 905.8 1243.88 924.47 1255.73 932.07C1262.68 936.53 1272.49 933.95 1281.48 932.57C1306.59 928.58 1329.53 934.7 1335.62 959.18C1342.21 985.69 1322.26 1002.2 1295.42 1008.87H1295.41ZM1253.98 891.7L1247.61 866.08L1268.14 860.98L1274.51 886.6L1253.98 891.7ZM1290.03 1033.69L1283.66 1008.06L1304.2 1002.95L1310.57 1028.58L1290.03 1033.69Z" fill="#A7BCFB"></path><path d="M1027.23 622.99C1027.23 622.99 1078.42 766.2 1055.36 987.07C1032.3 1207.95 944.529 1659.41 944.529 1659.41C843.519 1658.6 742.519 1657.79 641.509 1656.98C712.099 1410.85 782.699 1164.72 853.289 918.58C731.729 1167.14 610.159 1415.7 488.599 1664.26C386.249 1662.64 283.899 1661.02 181.559 1659.41C363.019 1313.94 544.489 968.46 725.949 622.99H1027.23Z" fill="#FFCF4B"></path><path d="M1054.76 312.91C1049.54 415.34 1040.45 518.78 1027.24 622.99H725.96C726.42 610.34 726.48 598.2 726.28 586.45C683.36 606.45 640.26 618.8 603.07 621.3C571.09 623.45 536.39 619.29 515.31 597.1C457.98 536.75 551.61 373.32 596.62 310.49C619.89 278.02 644.25 252.76 680.06 236.46C714.14 220.95 745.95 219.29 765.32 219.9C789.86 220.67 816.03 219.58 868.51 222.69C896.37 224.34 946.83 228.72 965.17 231.4C991.17 235.2 1011.94 241.07 1025.93 245.67" fill="white"></path><path d="M725.961 626.99H1027.24C1029.25 626.99 1030.95 625.49 1031.21 623.49C1044.27 520.49 1053.48 416.8 1058.76 313.11C1058.87 310.9 1057.18 309.02 1054.97 308.91C1052.77 308.76 1050.88 310.5 1050.77 312.7C1045.55 415.07 1036.52 517.28 1023.72 618.98H730.101C730.421 608.33 730.481 597.62 730.281 586.37C730.231 583.47 727.201 581.59 724.591 582.82C681.461 602.92 639.351 614.84 602.801 617.3C563.641 619.92 535.191 612.21 518.211 594.33C463.721 536.97 553.681 377.28 599.871 312.8C626.291 275.92 650.771 254.17 681.711 240.08C707.381 228.39 735.431 222.94 765.181 223.88C789.861 224.66 815.901 223.56 868.251 226.67C896.151 228.32 946.351 232.69 964.561 235.35C985.061 238.35 1005.27 243.09 1024.65 249.46C1026.76 250.14 1029.01 249 1029.7 246.91C1030.39 244.82 1029.25 242.55 1027.15 241.86C1007.34 235.35 986.671 230.5 965.721 227.44C947.291 224.74 897.451 220.4 868.721 218.69C816.151 215.57 789.921 216.66 765.431 215.89C734.471 214.94 705.191 220.61 678.391 232.81C646.091 247.52 620.661 270.05 593.361 308.15C544.681 376.1 453.751 538.11 512.401 599.85C531.101 619.53 561.691 628.1 603.331 625.29C639.251 622.87 680.291 611.61 722.351 592.65C722.641 623.88 720.92 623.53 723.07 625.77C723.82 626.55 724.861 626.99 725.951 626.99H725.961Z" fill="#353535"></path><path d="M894.83 206.96L896.64 224.83C902.76 225.4 908.88 225.98 915 226.55C902.19 251.36 889.38 276.17 876.57 300.98C855.4 274.38 834.24 247.79 813.07 221.19C819.94 221.42 826.81 221.66 833.68 221.89C833.34 214.46 833 207.03 832.66 199.61" fill="white"></path><path d="M880.111 302.81L918.541 228.37C919.841 225.86 918.181 222.82 915.361 222.55L900.281 221.14L898.801 206.55C898.581 204.35 896.611 202.73 894.421 202.97C892.221 203.19 890.621 205.16 890.841 207.35L892.651 225.22C892.841 227.12 894.361 228.62 896.261 228.8L908.711 229.97L875.831 293.65L821.581 225.48L833.531 225.89C835.871 225.97 837.771 224.03 837.661 221.71L836.641 199.43C836.541 197.22 834.601 195.58 832.461 195.62C830.251 195.72 828.551 197.59 828.651 199.8L829.471 217.76L813.181 217.21C809.701 217.14 807.821 221.07 809.921 223.7L873.421 303.49C875.221 305.76 878.771 305.41 880.101 302.84L880.111 302.81Z" fill="#353535"></path><path d="M917.141 108.76C915.561 99.24 910.271 90.73 902.451 85.08C894.861 79.59 884.071 73.98 870.721 72.82C864.631 72.29 851.181 71.18 837.431 79.26C836.731 79.67 823.311 87.76 817.171 101.64C814.801 107 813.681 112.91 813.681 119.1C808.061 119.26 803.111 121.76 800.711 126.29C794.601 137.82 808.411 152.95 823.241 151.46C831.201 165.06 840.181 173.21 850.621 178.65C861.941 184.56 881.391 192.39 899.811 188.74C925.651 183.61 924.071 150.65 917.131 108.77L917.141 108.76Z" fill="white"></path><path d="M889.88 193.67C932.73 193.67 928.2 150.98 921.09 108.1C919.33 97.48 913.55 88.15 904.8 81.83C881.54 65.02 853.65 65.08 835.42 75.8C834.8 76.16 820.24 84.85 813.53 100C811.43 104.74 810.19 109.93 809.82 115.49C798.12 117.78 792.07 128.83 797.01 140.06C801.03 149.21 811.07 155.42 821.06 155.53C829.16 168.54 838.06 176.58 848.79 182.17C859.47 187.74 874.45 193.66 889.89 193.66L889.88 193.67ZM913.2 109.41C920.39 152.79 920.52 180.54 899.04 184.8C881.43 188.3 862.3 180.22 852.48 175.09C842.82 170.05 834.37 162.52 826.7 149.42C825.91 148.07 824.42 147.31 822.85 147.46C811.08 148.62 799.76 136.62 804.25 128.14C805.89 125.05 809.37 123.2 813.79 123.08C815.95 123.02 817.68 121.25 817.68 119.08C817.68 113.29 818.74 107.96 820.83 103.24C826.52 90.41 839.34 82.77 839.46 82.69C854.84 73.65 879.41 73.34 900.1 88.3C907.13 93.38 911.77 100.87 913.19 109.39L913.2 109.41Z" fill="#353535"></path><path d="M850.63 178.64C850.63 178.64 869.46 209.33 894.83 206.96L894.2 189.55C894.2 189.55 868.28 192.36 850.63 178.64Z" fill="#353535"></path><path d="M812.49 121.77C831.93 134.96 848.33 115.02 849.05 92.0401C849.05 92.0401 866.19 109.64 876.96 87.4901C887.73 65.3401 914.39 90.0301 917.14 108.76C919.89 127.49 980.87 88.5501 964.79 44.2501C948.71 -0.0499229 927.17 24.8301 927.17 24.8301C927.17 24.8301 932.02 8.45008 909.57 1.47008C887.12 -5.50992 878.62 12.7001 878.62 12.7001C878.62 12.7001 861.93 -4.58993 841.91 6.63007C821.89 17.8601 816.42 39.4001 816.42 39.4001C816.42 39.4001 797.61 30.4501 785.17 44.8601C772.73 59.2701 785.17 70.9501 785.17 70.9501C785.17 70.9501 769.24 70.9501 766.06 88.2401C762.87 105.53 799.27 131.05 799.27 131.05C800.9 124.96 806.43 121.34 812.48 121.77H812.49Z" fill="#353535"></path><path d="M914.989 226.54L937.279 228.26L936.709 321.95L907.019 286.15L876.559 300.98L914.989 226.54Z" fill="white"></path><path d="M940.709 321.98L941.279 228.28C941.289 226.18 939.679 224.43 937.589 224.27L915.299 222.55C913.709 222.42 912.179 223.27 911.439 224.7L873.009 299.14C871.249 302.55 874.859 306.25 878.309 304.57L905.949 291.12L933.629 324.5C935.999 327.36 940.689 325.7 940.709 321.97V321.98ZM933.249 231.96L932.769 310.94L910.099 283.6C908.919 282.18 906.929 281.75 905.269 282.56L885.639 292.11L917.329 230.73L933.259 231.96H933.249Z" fill="#353535"></path><path d="M792.49 220.28L813.061 221.19L876.561 300.98L840.73 286L813.061 324.23L792.49 220.28Z" fill="white"></path><path d="M816.3 326.57L842.11 290.91L875.01 304.67C878.81 306.26 882.25 301.71 879.68 298.49L816.18 218.7C815.46 217.79 814.38 217.24 813.23 217.19L792.66 216.28C789.91 216.2 788.08 218.63 788.56 221.05L809.13 325C809.81 328.42 814.25 329.39 816.29 326.57H816.3ZM840.73 282C839.48 282 838.26 282.59 837.49 283.65L815.21 314.44L797.41 224.49L811.07 225.1L863.73 291.27C840.4 281.52 841.86 281.99 840.73 281.99V282Z" fill="#353535"></path><path d="M1175.38 547.98C1177.81 547.98 1179.66 545.85 1179.35 543.46C1174.12 503.29 1197.66 460.25 1197.89 459.82C1198.96 457.89 1198.26 455.45 1196.33 454.38C1194.39 453.31 1191.96 454.01 1190.89 455.94C1189.86 457.79 1165.84 501.74 1171.41 544.49C1171.67 546.51 1173.39 547.97 1175.37 547.97L1175.38 547.98Z" fill="#353535"></path><path d="M677.801 407.26C680.081 407.26 681.901 405.36 681.801 403.08C679.411 348.66 681.781 280.29 681.801 279.61C681.881 277.4 680.151 275.55 677.941 275.47C675.771 275.34 673.881 277.12 673.801 279.33C673.781 280.02 671.401 348.69 673.801 403.44C673.891 405.59 675.671 407.26 677.791 407.26H677.801Z" fill="#353535"></path><path d="M658.041 503.15C662.291 503.15 663.601 497.35 659.751 495.53C615.521 474.61 545.011 493.5 542.031 494.31C539.901 494.89 538.651 497.09 539.231 499.22C539.811 501.35 542.021 502.6 544.141 502.03C544.841 501.84 614.781 483.12 656.331 502.76C656.881 503.02 657.461 503.14 658.041 503.14V503.15Z" fill="#353535"></path><path d="M662.201 654.61H891.981C901.331 654.61 909.151 647.51 910.041 638.2L936.621 361.64C937.641 350.98 929.261 341.76 918.561 341.76H681.921C672.401 341.76 664.501 349.12 663.821 358.62L644.101 635.18C643.351 645.68 651.671 654.62 662.201 654.62V654.61Z" fill="#353535"></path><path d="M790.62 534.66C770.472 534.66 754.14 518.327 754.14 498.18C754.14 478.033 770.472 461.7 790.62 461.7C810.767 461.7 827.1 478.033 827.1 498.18C827.1 518.327 810.767 534.66 790.62 534.66Z" fill="white"></path><path d="M790.62 538.66C812.94 538.66 831.09 520.5 831.09 498.18C831.09 475.86 812.93 457.7 790.62 457.7C768.31 457.7 750.14 475.86 750.14 498.18C750.14 520.5 768.3 538.66 790.62 538.66ZM790.62 465.7C808.53 465.7 823.09 480.27 823.09 498.18C823.09 516.09 808.52 530.66 790.62 530.66C772.72 530.66 758.14 516.09 758.14 498.18C758.14 480.27 772.71 465.7 790.62 465.7Z" fill="#353535"></path><path d="M658.05 499.15C658.05 499.15 718.17 480.82 717.41 495.77C716.65 510.72 676.319 522.78 676.319 522.78C676.319 522.78 715.91 514.1 717.42 525.67C718.93 537.25 671.75 549.79 671.75 549.79C671.75 549.79 711.569 538.21 711.319 549.79C711.069 561.37 670.73 573.09 670.73 573.09C670.73 573.09 709.54 569.09 704.21 581.15C698.88 593.21 634.71 609.37 625.58 602.86C616.45 596.35 628.62 579.7 628.62 579.7C628.62 579.7 610.61 559.92 631.66 550.76C631.66 550.76 617.2 530.74 637.24 523.26C637.24 523.26 622.02 516.51 630.14 498.18C630.14 498.18 637.5 475.75 630.65 458.62C623.8 441.49 644.35 443.18 654.49 453.8C664.64 464.41 658.04 499.15 658.04 499.15H658.05Z" fill="white"></path><path d="M633.879 608.34C650.479 608.34 701.779 596.58 707.879 582.78C709.189 579.82 708.969 576.89 707.249 574.53C704.929 571.34 699.799 569.7 693.939 568.94C704.819 564.03 715.159 557.4 715.319 549.9C715.399 546.02 713.069 542.47 707.009 541.24C715.739 536.65 722.159 531.18 721.379 525.18C720.389 517.63 711.559 515.94 703.909 515.7C713.039 510.56 720.999 503.85 721.399 495.99C722.319 478.1 680.309 488.66 662.989 493.55C664.489 482.35 666.129 460.19 657.389 451.06C649.489 442.79 636.619 439.37 629.849 443.73C627.579 445.19 622.769 449.7 626.939 460.14C632.859 474.94 627.019 494.78 626.399 496.8C621.009 509.17 624.739 517.81 629.679 522.77C620.899 529.15 621.109 539.51 626.079 549.2C614.499 556.47 615.509 568.77 623.679 579.94C618.229 588.76 614.889 600.17 623.259 606.14C625.509 607.74 629.339 608.35 633.879 608.35V608.34ZM700.719 579.15C700.719 579.15 700.649 579.33 700.559 579.54C699.459 582.02 690.459 587.85 670.129 593.76C648.129 600.16 630.719 601.48 627.899 599.6C623.489 596.45 628.709 586.35 631.849 582.06C632.969 580.52 632.859 578.41 631.579 577.01C629.519 574.72 624.419 567.54 625.639 561.89C626.299 558.86 628.859 556.35 633.269 554.43C635.609 553.41 636.409 550.48 634.919 548.42C633.289 546.14 629.399 539.04 631.029 533.72C631.929 530.79 634.419 528.6 638.659 527.01C642.009 525.76 642.149 521.06 638.879 519.61C637.729 519.08 627.579 513.88 633.809 499.8C634.269 498.45 641.679 475.4 634.369 457.14C633.719 455.51 632.389 451.58 634.179 450.43C636.999 448.61 645.749 450.43 651.609 456.56C657.949 463.2 656.519 485.74 654.119 498.4C653.559 501.38 656.379 503.85 659.219 502.97C687.569 494.33 711.199 491.82 713.409 495.35C712.989 503.94 690.789 514.28 675.169 518.95C673.109 519.57 671.909 521.7 672.439 523.78C672.979 525.86 675.059 527.15 677.169 526.69C689.019 524.09 707.939 522 712.889 525.48C713.409 525.84 713.429 526.06 713.449 526.19C713.739 528.38 702.629 536.87 675.029 544.74C673.249 545.2 671.749 545.62 670.639 545.95C668.539 546.56 667.319 548.75 667.899 550.86C668.489 552.97 670.669 554.22 672.779 553.65C674.049 553.31 675.459 552.93 676.969 552.5C691.419 548.75 705.329 547.4 707.379 549.74C707.219 554.3 689.599 563.43 669.609 569.24C664.909 570.61 666.379 577.62 671.139 577.06C684.809 575.65 698.789 576.64 700.719 579.13V579.15Z" fill="#353535"></path></g><defs><clipPath id="clip0_12_220"><rect width="1904" height="1823" fill="white" transform="matrix(-1 0 0 1 1904 0)"></rect></clipPath></defs></svg>