<svg xmlns="http://www.w3.org/2000/svg" width="1931" height="1807" viewBox="0 0 1931 1807" fill="none"><g clip-path="url(#clip0_12_272)"><path d="M1524.51 1373.87C1614.95 1373.87 1688.27 1300.55 1688.27 1210.11C1688.27 1119.67 1614.95 1046.35 1524.51 1046.35C1434.07 1046.35 1360.75 1119.67 1360.75 1210.11C1360.75 1300.55 1434.07 1373.87 1524.51 1373.87Z" fill="#353535"></path><path d="M1551.88 1359.93C1641.07 1359.93 1713.38 1287.62 1713.38 1198.43C1713.38 1109.24 1641.07 1036.93 1551.88 1036.93C1462.69 1036.93 1390.38 1109.24 1390.38 1198.43C1390.38 1287.62 1462.69 1359.93 1551.88 1359.93Z" fill="white"></path><path d="M1552.16 1363.91C1439.72 1363.91 1360.49 1254.94 1394.07 1148.6C1421.61 1061.37 1514.49 1013.07 1601.72 1040.61C1688.95 1068.15 1737.25 1161.04 1709.71 1248.26C1687.38 1319 1622.23 1363.91 1552.17 1363.91H1552.16ZM1551.62 1040.95C1433.27 1040.95 1357.94 1166.87 1412.14 1271.1C1452.21 1348.15 1547.5 1378.23 1624.54 1338.17C1701.77 1298.01 1731.77 1203 1691.61 1125.77C1663.58 1071.88 1608.53 1040.96 1551.61 1040.96L1551.62 1040.95Z" fill="#353535"></path><path d="M1532.79 1293.53C1478.48 1283.52 1460.04 1251.77 1466.67 1215.8L1501.49 1222.22C1499.41 1233.48 1503.36 1245.3 1514.39 1253.71C1526.6 1263.03 1555.45 1268.47 1570.87 1260.89C1578.91 1256.94 1583.65 1251.06 1585.09 1243.26C1586.39 1236.19 1584.39 1229.77 1579.08 1224.01C1569.48 1213.6 1551.86 1209.8 1537.71 1205.83C1502.22 1196.06 1480.13 1173.32 1486.86 1136.82C1491.33 1112.55 1506.11 1097.86 1528.39 1093.14C1550.76 1088.41 1584.2 1094.2 1603.44 1107.96C1623.61 1122.4 1630.13 1143.99 1625.59 1168.58L1590.77 1162.16C1593.83 1145.57 1584.9 1128.45 1560.95 1124.03C1527 1117.77 1514.36 1143.4 1526.06 1161.48C1532.92 1172.08 1548.22 1174.69 1561.61 1178.44C1599.11 1188.75 1627.19 1211.78 1620.2 1249.72C1612.62 1290.81 1574.4 1301.19 1532.8 1293.52L1532.79 1293.53ZM1549.14 1104.15L1556.46 1064.43L1588.29 1070.3L1580.97 1110.02L1549.14 1104.15ZM1509.6 1324.7L1516.92 1284.98L1548.75 1290.85L1541.43 1330.57L1509.6 1324.7Z" fill="#353535"></path><path d="M1397.14 458.06H1225.32V757.69H1397.14V458.06Z" fill="#A7BCFB"></path><path d="M1653.58 282.99H1481.76V757.69H1653.58V282.99Z" fill="#A7BCFB"></path><path d="M1910.02 135.71H1738.2V757.68H1910.02V135.71Z" fill="#A7BCFB"></path><path d="M636.18 449.42L484.24 431.85L493.52 401.14C493.52 401.14 413.99 379.75 382.9 425.76C351.81 471.77 333.38 540.48 273.11 500.18C212.84 459.87 156.42 555.46 156.42 555.46C156.42 555.46 205.08 767.8 356.03 794.99C506.98 822.18 659.28 706.1 659.28 706.1L636.18 449.42Z" fill="#353535"></path><path d="M1223.31 611.79L1227.17 528.83L1124.91 508.89C1112.48 573.31 1100.04 637.73 1087.61 702.15L1248.45 713.4L1223.31 611.79Z" fill="white"></path><path d="M1248.45 717.4L1087.33 706.14C1084.94 705.97 1083.22 703.75 1083.68 701.39L1120.98 508.13C1121.4 505.94 1123.53 504.54 1125.67 504.96L1227.93 524.9C1229.88 525.28 1231.25 527.03 1231.16 529.01L1227.33 611.39L1252.33 712.44C1252.96 714.96 1251.04 717.4 1248.45 717.4ZM1092.39 698.47L1243.25 709.03L1219.43 612.75C1219.21 611.87 1219.26 612.74 1223.02 532.09L1128.09 513.58L1092.4 698.47H1092.39Z" fill="#353535"></path><path d="M1234.4 564.75C1213.86 574.91 1193.32 585.08 1172.78 595.24C1165.4 598.89 1157.29 597.83 1153.04 592.57C1105.85 534.28 1063.68 471.57 1027.04 404.76C1023.42 398.16 1026.21 388.97 1033.48 383.29L1060.75 361.99C1068.9 355.63 1079.72 355.91 1084.69 362.67C1129.51 423.64 1181.76 482.55 1242.19 537.66C1250.09 544.87 1246.02 558.99 1234.4 564.74V564.75Z" fill="white"></path><path d="M1149.93 595.08C1102.24 536.17 1059.98 473.14 1023.54 406.68C1019.01 398.42 1022.23 387.01 1031.03 380.14L1058.3 358.84C1067.81 351.41 1081.34 351.35 1087.92 360.3C1132.78 421.32 1184.99 480.07 1244.89 534.7C1254.93 543.85 1250.34 561.32 1236.18 568.32L1174.56 598.81C1165.9 603.09 1155.6 602.07 1149.94 595.07L1149.93 595.08ZM1063.22 365.14L1035.95 386.44C1030.21 390.93 1027.89 397.97 1030.56 402.83C1065.59 466.71 1107.3 529.7 1156.16 590.04C1159.2 593.8 1165.31 594.46 1171.02 591.64L1232.64 561.15C1237.81 558.59 1241.47 553.87 1242.18 548.82C1242.45 546.91 1242.46 543.29 1239.51 540.61C1182.71 488.8 1129.43 430.26 1081.49 365.03C1077.55 359.67 1068.93 360.69 1063.24 365.13L1063.22 365.14Z" fill="#353535"></path><path d="M1490.71 331.75C1327.66 360.48 1168.65 407.67 1016.31 472.51C989.9 483.75 959.26 473.81 944.33 449.3L940.22 442.56C927.07 420.97 931.59 393.04 950.91 376.72C1077.32 269.95 1193.95 149.66 1298.55 16.3301L1490.72 331.75H1490.71Z" fill="#353535"></path><path d="M1026.3 295.763L987.829 319.201C977.401 325.554 974.097 339.158 980.45 349.586L1047.61 459.83C1053.96 470.258 1067.57 473.562 1078 467.209L1116.47 443.771C1126.9 437.418 1130.2 423.814 1123.85 413.386L1056.69 303.142C1050.33 292.714 1036.73 289.41 1026.3 295.763Z" fill="white"></path><path d="M1044.19 461.88L977.03 351.64C969.52 339.32 973.42 323.27 985.74 315.76L1024.22 292.32C1036.54 284.82 1052.59 288.71 1060.1 301.03L1127.27 411.27C1134.78 423.59 1130.88 439.65 1118.56 447.15L1080.09 470.59C1067.77 478.1 1051.71 474.2 1044.21 461.88H1044.19ZM1028.37 299.15L989.89 322.59C981.34 327.8 978.64 338.93 983.85 347.47L1051.01 457.71C1056.23 466.28 1067.36 468.95 1075.9 463.75L1114.37 440.31C1122.91 435.11 1125.63 423.98 1120.41 415.42L1053.25 305.18C1048.04 296.64 1036.91 293.93 1028.37 299.14V299.15Z" fill="#353535"></path><path d="M1494.97 329.218C1507.03 321.871 1473.79 245.302 1420.73 158.197C1367.66 71.0923 1314.87 6.43567 1302.81 13.7828C1290.75 21.1299 1323.99 97.6985 1377.05 184.804C1430.12 271.909 1482.91 336.565 1494.97 329.218Z" fill="white"></path><path d="M1492.86 333.88C1462.61 333.88 1353 165.81 1311.82 70.9399C1288.68 17.6499 1297.42 12.3299 1300.71 10.3299C1304 8.31988 1312.73 3.00988 1349.47 47.9999C1395.79 104.73 1456.76 204.79 1485.93 271.97C1509.07 325.26 1500.33 330.58 1497.04 332.58C1496.17 333.11 1494.92 333.87 1492.86 333.87V333.88ZM1305.39 17.1099C1305.18 17.1099 1304.98 17.1399 1304.8 17.1899C1299.41 22.9899 1319.92 83.3399 1380.44 182.68C1440.95 282 1485.22 327.87 1492.93 325.72C1498.33 319.92 1477.81 259.57 1417.29 160.23C1358.15 63.1699 1314.58 17.1099 1305.39 17.1099Z" fill="#353535"></path><path d="M1131.5 431.09C1131.5 431.09 1099.46 468.93 1108.64 482.31C1117.82 495.69 1158 460.48 1158 460.48C1158 460.48 1122.9 504.82 1139.85 517.21C1156.8 529.6 1176.34 493.98 1176.34 493.98C1176.34 493.98 1154.43 535.66 1170.42 543.66C1186.41 551.66 1201.27 517.41 1201.27 517.41C1201.27 517.41 1180.11 564.92 1202.97 565.22C1225.83 565.52 1258.17 500.9 1253.65 486.15C1249.13 471.39 1226.41 478.46 1226.41 478.46C1226.41 478.46 1219.6 442.47 1198.23 462.48C1198.23 462.48 1199.37 423.82 1173.67 433.67C1173.67 433.67 1167.97 384.69 1131.49 431.1L1131.5 431.09Z" fill="white"></path><path d="M1203.13 569.22C1198.23 569.22 1193.85 567.38 1191.15 563.17C1187.88 558.06 1187.91 550.27 1189.24 542.46C1177.16 553.61 1164.78 548.69 1161.6 538.79C1159.69 532.84 1160.7 524.94 1162.75 517.32C1159.24 520.21 1155.36 522.49 1151.29 523.39C1142.51 525.34 1132.81 520.15 1131.41 509.87C1130.16 500.66 1135.32 488.58 1141.14 478.35C1130.24 485.54 1112.67 495.27 1105.33 484.57C1094.98 469.48 1122.61 435.39 1128.39 428.55C1141.55 411.82 1152.52 404.99 1161.92 407.64C1171.42 410.32 1175.33 421.85 1176.82 428.54C1192.52 425.2 1200.18 438.51 1201.88 454.76C1215.38 447.25 1225.06 458.38 1229.36 473.63C1241.41 471.3 1253.89 473.27 1257.47 484.97C1262.68 502 1229.15 569.21 1203.12 569.22H1203.13ZM1204.72 519.5C1199.6 531.18 1193.37 551.78 1197.9 558.85C1198.59 559.93 1199.8 561.17 1203.04 561.21C1208.84 561.28 1217.38 554.74 1226 543.25C1242.06 521.84 1251.91 494.09 1249.84 487.31C1249.14 485.03 1247.82 483.4 1245.8 482.34C1240.21 479.39 1230.78 481.29 1227.61 482.27C1225.34 482.98 1222.94 481.55 1222.49 479.2C1221.69 475.03 1218.04 462.68 1211.92 460.69C1208.99 459.73 1205.31 461.33 1200.97 465.4C1198.38 467.82 1194.14 465.91 1194.24 462.37C1194.38 457.1 1193.29 442.39 1186.55 437.62C1183.72 435.61 1179.98 435.54 1175.11 437.4C1172.69 438.33 1170.01 436.72 1169.71 434.13C1169.2 429.84 1166.28 417.18 1159.76 415.35C1156.46 414.42 1148.81 415.55 1134.65 433.56C1127.62 441.91 1105.81 471.1 1111.94 480.05C1112.29 480.57 1112.84 481.12 1114.22 481.29C1123.15 482.41 1144.17 467.27 1155.36 457.46C1156.92 456.1 1159.25 456.14 1160.75 457.57C1162.25 459 1162.41 461.33 1161.13 462.95C1152.59 473.74 1131.3 506.01 1142.2 513.96C1144.52 515.66 1146.86 516.16 1149.54 515.57C1159.2 513.43 1169.62 497.85 1172.83 492.03C1173.88 490.11 1176.28 489.39 1178.23 490.43C1180.16 491.47 1180.9 493.87 1179.88 495.81C1174.58 505.91 1162.4 535.15 1172.2 540.06C1181.82 544.89 1193.02 525.59 1197.61 515.76C1198.5 513.75 1200.84 512.83 1202.87 513.72C1204.89 514.61 1205.81 516.95 1204.93 518.97C1204.88 519.09 1204.81 519.26 1204.71 519.48L1204.72 519.5Z" fill="#353535"></path><path d="M1076.68 700.22C1073.89 651.99 1071.11 603.75 1068.32 555.52C1068.32 555.52 1064.78 520.15 1044.52 499.57C1039 493.96 1037.54 488.86 1038.85 484.92C1041.43 477.19 1068.97 483.7 1084.39 491.21C1121.03 509.04 1133.47 553.62 1137.62 573.14" fill="white"></path><path d="M1076.67 704.22C1074.57 704.22 1072.8 702.58 1072.68 700.45L1064.32 555.74C1064.3 555.57 1060.67 521.67 1041.67 502.36C1033.31 493.87 1033.94 486.98 1035.06 483.64C1039.46 470.45 1073.69 481.54 1086.14 487.6C1122.43 505.25 1136.43 548.25 1141.54 572.3C1142 574.46 1140.62 576.59 1138.46 577.04C1136.3 577.49 1134.17 576.12 1133.71 573.96C1128.9 551.33 1115.87 510.96 1082.64 494.79C1066.07 486.73 1045.24 483.59 1042.55 486.34C1041.73 488.91 1043.45 492.77 1047.37 496.75C1068.37 518.09 1072.14 553.61 1072.29 555.11L1080.67 699.98C1080.8 702.27 1078.99 704.21 1076.67 704.21V704.22Z" fill="#353535"></path><path d="M581.608 526.714L482.049 537.389L502.002 723.482L601.562 712.807L581.608 526.714Z" fill="white"></path><path d="M501.97 727.51C499.93 727.51 498.21 725.97 497.99 723.94L478.04 537.85C477.8 535.65 479.39 533.68 481.59 533.45L581.15 522.78C583.36 522.55 585.32 524.14 585.55 526.33L605.5 712.42C605.74 714.62 604.15 716.59 601.95 716.82L501.97 727.52V727.51ZM486.43 540.97L505.52 719.11L597.12 709.29L578.03 531.15L486.43 540.97Z" fill="#353535"></path><path d="M896.74 1314.83L368.14 1336.69C282.14 1475.51 242.87 1643.65 261.33 1803.6H1138.56L896.74 1314.83Z" fill="#353535"></path><path d="M600.9 669.55C691.54 642.02 827.29 617.59 907.09 684.99C927.75 702.44 949.89 730.47 986.78 777.17C1026.7 827.71 1056.85 871.53 1076.82 901.94C1072.7 802.76 1068.58 703.58 1064.47 604.39C1139.58 638.69 1214.69 672.99 1289.8 707.29C1295.24 729.55 1410.17 1215.77 1241.47 1301.96C1219.4 1313.24 1199.59 1313.84 1179.73 1314.82C1007.18 1323.36 874.39 1128.53 762.98 964.96C716.29 896.4 656.23 797.71 600.91 669.55H600.9Z" fill="#FFCF4B"></path><path d="M905.74 693.56C845.4 626.54 734.47 642.36 519.86 672.98C329.79 700.09 234.03 715.1 198.29 786.17C187.33 807.96 175.17 848.27 242.02 1039.56C285.72 1164.62 332.13 1265.32 368.13 1336.69L896.73 1314.83C908.59 1234.33 923.11 1118.03 931.46 976.54C944.5 755.6 928.03 718.33 905.73 693.56H905.74Z" fill="#FFCF4B"></path><path d="M456.6 678.51C456.6 678.51 501.44 871.76 563.63 881.74C625.82 891.72 612.76 781.93 612.76 781.93C639.12 827.83 669.58 854.06 691.95 848.2C701.47 845.71 707 838.06 708.73 835.67C740.53 791.69 657.83 670.52 645.68 652.99C469.39 676.26 506.87 671.17 456.6 678.5V678.51Z" fill="white"></path><path d="M562.99 885.69C535.69 881.31 508.8 845.01 483.06 777.81C464.2 728.56 452.82 679.9 452.71 679.41C452.46 678.32 452.67 677.17 453.3 676.25C454.97 673.81 453.07 674.39 645.16 649.03C646.66 648.83 648.12 649.49 648.97 650.72C671.75 683.59 743.63 794.25 711.97 838.02C706.6 845.45 700.2 850.18 692.97 852.07C671.16 857.8 643.64 837.72 617.84 797.93C619.19 843.61 607.92 892.89 563 885.68L562.99 885.69ZM461.52 681.83C473.72 731.09 514.44 869.79 564.26 877.79C575.82 879.64 584.92 877.21 592.08 870.34C616.16 847.24 608.87 783.05 608.79 782.41C608.28 778.1 614.08 776.19 616.23 779.95C637.67 817.29 680.16 868.4 705.49 833.34C732.32 796.23 669.7 695.05 643.78 657.29C471.85 679.99 508.81 674.95 461.53 681.84L461.52 681.83Z" fill="#353535"></path><path d="M493.52 644.65L496.53 672.69L612.77 781.94C592.83 637.66 596.76 668.27 592.69 630.28" fill="white"></path><path d="M610.02 784.85L493.78 675.6C492.24 674.15 492.76 675.12 489.54 645.07C489.3 642.87 490.89 640.9 493.09 640.67C495.28 640.43 497.26 642.02 497.49 644.22L500.34 670.79L607.24 771.26C589.17 640.56 592.78 668.77 588.7 630.7C588.46 628.5 590.05 626.53 592.25 626.3C594.44 626.07 596.42 627.65 596.65 629.85C600.73 667.9 596.93 638.33 616.71 781.39C617.23 785.14 612.72 787.4 610.01 784.85H610.02Z" fill="#353535"></path><path d="M519.1 598.96C519.1 598.96 553 646.36 593.69 639.65L590.68 611.61C590.68 611.61 549.15 619.1 519.1 598.97V598.96Z" fill="#353535"></path><path d="M618.53 478.55C614.9 463.36 605.39 450.23 592.12 441.99C579.23 433.99 561.17 426.16 539.5 425.8C529.61 425.64 507.77 425.38 486.49 440C485.4 440.75 464.67 455.34 456.32 478.44C453.1 487.36 451.97 497.04 452.67 507.02C443.61 507.91 435.91 512.51 432.55 520.1C424 539.41 448.02 562.26 471.79 558.18C486.2 579.23 501.63 591.36 519.1 598.96C538.05 607.21 570.35 617.64 599.67 609.64C640.81 598.41 634.5 545.38 618.53 478.55Z" fill="white"></path><path d="M576.98 616.54C554.94 616.54 533.42 609.55 517.51 602.63C500.09 595.05 484.66 583.23 469.91 562.46C443.72 565.03 419.38 539.98 428.9 518.48C432.25 510.9 439.44 505.52 448.5 503.62C448.24 494.17 449.6 485.26 452.56 477.08C461.41 452.6 483.3 437.34 484.22 436.71C506.71 421.27 529.73 421.66 539.56 421.81C558.4 422.12 576.79 427.77 594.22 438.6C608.5 447.47 618.51 461.33 622.41 477.63C639.6 549.55 650.25 616.54 576.97 616.54H576.98ZM471.79 554.17C476.31 554.17 475.18 559.5 491.85 575.98C499.96 583.99 509.66 590.49 520.69 595.29C537.44 602.58 569.84 613.63 598.61 605.78C634.73 595.92 631.52 550.15 614.63 479.48C611.23 465.24 602.48 453.13 590 445.39C573.81 435.34 556.79 430.09 539.42 429.81C530.34 429.65 509.12 429.31 488.74 443.3C488.53 443.44 468.05 457.71 460.07 479.8C457.11 487.98 455.96 497.05 456.65 506.74C456.8 508.9 455.21 510.79 453.05 511C445.12 511.78 438.82 515.79 436.2 521.72C431.19 533.04 440.27 546.19 452.71 551.69C462.83 556.17 470.69 554.18 471.79 554.18V554.17Z" fill="#353535"></path><path d="M609.58 781.93L592.54 1030.54L679.82 1151.73L609.58 781.93Z" fill="white"></path><path d="M676.57 1154.07L589.29 1032.88C588.75 1032.12 588.48 1031.2 588.55 1030.27L605.59 781.67C605.9 777.08 612.62 776.53 613.51 781.2L683.75 1151C684.55 1155.19 679.06 1157.53 676.57 1154.08V1154.07ZM596.63 1029.37L672.52 1134.75L611.44 813.19L596.62 1029.37H596.63Z" fill="#353535"></path><path d="M609.58 781.93L747.94 948.59L742.62 1109.99L609.58 781.93Z" fill="white"></path><path d="M738.91 1111.5L605.87 783.44C604.16 779.23 609.75 775.88 612.66 779.38L751.02 946.04C751.64 946.79 751.97 947.75 751.94 948.73L746.62 1110.13C746.48 1114.43 740.54 1115.49 738.91 1111.5ZM622.99 804.34L739.25 1091.02L743.9 949.98L623 804.34H622.99Z" fill="#353535"></path><path d="M605.55 798.44C617.678 798.44 627.51 788.608 627.51 776.48C627.51 764.352 617.678 754.52 605.55 754.52C593.422 754.52 583.59 764.352 583.59 776.48C583.59 788.608 593.422 798.44 605.55 798.44Z" fill="white"></path><path d="M605.55 802.44C591.23 802.44 579.59 790.79 579.59 776.48C579.59 762.17 591.24 750.52 605.55 750.52C619.86 750.52 631.51 762.17 631.51 776.48C631.51 790.79 619.86 802.44 605.55 802.44ZM605.55 758.51C595.65 758.51 587.59 766.57 587.59 776.47C587.59 786.37 595.65 794.43 605.55 794.43C615.45 794.43 623.51 786.37 623.51 776.47C623.51 766.57 615.45 758.51 605.55 758.51Z" fill="#353535"></path><path d="M452.67 507.02C452.67 507.02 460.05 521.11 479.05 511.32C498.05 501.53 532.79 436.85 532.79 436.85C532.79 436.85 557.17 428.41 568.11 475.82C579.05 523.23 618.53 478.56 618.53 478.56L626.3 514.79C626.3 514.79 661.97 442.43 639.13 395.4C616.29 348.38 509 399.24 509 399.24C509 399.24 434.34 390.41 413.23 416.71C392.12 443 430.85 523.42 430.85 523.42C430.85 523.42 440.88 504.84 452.68 507.03L452.67 507.02Z" fill="#353535"></path><path d="M583.59 1238.06L688.89 1211.73C688.89 1211.73 808.55 1174.24 838.87 1185.4C869.18 1196.57 949.36 1257.2 945.77 1276.34C942.18 1295.49 864.4 1248.42 864.4 1248.42C864.4 1248.42 942.22 1292.3 936.22 1312.24C930.22 1332.18 854.03 1288.31 854.03 1288.31C854.03 1288.31 917.85 1318.63 917.05 1340.96C916.25 1363.3 836.48 1321.81 836.48 1321.81C836.48 1321.81 892.32 1350.93 881.95 1369.68C871.58 1388.43 797.39 1338.57 797.39 1338.57C797.39 1338.57 745.93 1401.59 709.64 1380.05L604.34 1415.15L583.6 1238.05L583.59 1238.06Z" fill="white"></path><path d="M604.33 1419.17C602.3 1419.17 600.59 1417.65 600.36 1415.63L579.62 1238.53C579.39 1236.53 580.67 1234.67 582.62 1234.18L687.92 1207.85C692.63 1206.37 809.03 1170.15 840.25 1181.65C868.47 1192.05 954.12 1253.54 949.7 1277.08C947.44 1289.13 930.36 1284.48 918.84 1280.31C932.61 1291.95 942.82 1304.18 940.05 1313.39C936.45 1325.36 919.05 1321.29 907.16 1317.44C915.48 1325.14 921.33 1333.35 921.06 1341.09C920.93 1344.87 919.22 1347.81 916.13 1349.61C914.12 1350.78 904.57 1354.49 875.31 1343.76C880.64 1348.92 884.87 1354.41 886.49 1359.79C888.81 1367.49 885.67 1375.39 877.55 1377.35C858.37 1381.98 811.43 1352.52 798.15 1343.83C787.48 1356.04 743.64 1402.53 709.24 1384.37C604.42 1419.31 605.37 1419.12 604.35 1419.12L604.33 1419.17ZM587.97 1241.09L607.73 1409.81L708.37 1376.26C709.47 1375.89 710.68 1376.02 711.68 1376.62C744.64 1396.18 793.8 1336.65 794.29 1336.05C795.59 1334.45 797.91 1334.1 799.62 1335.26C815.67 1346.05 860.62 1373.25 875.66 1369.61C877.49 1369.17 878.13 1368.34 878.45 1367.76C885.23 1355.5 847.69 1332.19 834.63 1325.38C832.67 1324.36 831.91 1321.94 832.93 1319.99C833.95 1318.03 836.35 1317.26 838.32 1318.29C863.72 1331.49 903.39 1347.8 912.09 1342.74C912.57 1342.46 913.01 1342.1 913.05 1340.84C913.43 1330.3 893.3 1314.96 873.17 1303.08C862.53 1297.78 854.25 1293.08 852.03 1291.8C850.17 1290.73 849.49 1288.38 850.48 1286.48C851.48 1284.58 853.79 1283.81 855.74 1284.72C858.09 1285.84 866.77 1290.05 877.07 1296.08C898.34 1306.6 922.42 1316.14 930.64 1312.87C931.85 1312.39 932.19 1311.74 932.38 1311.12C935.19 1301.77 905.67 1277.91 873.5 1258.41C868.45 1255.54 864.5 1253.19 862.33 1251.87C860.46 1250.74 859.84 1248.32 860.95 1246.43C862.05 1244.55 864.47 1243.89 866.37 1244.96C868.65 1246.24 872.44 1248.42 877.16 1251.26C902.04 1265.33 933.34 1279.99 941.16 1276.51C941.61 1276.3 941.76 1276.12 941.85 1275.62C944.66 1260.65 869.35 1200.9 837.5 1189.17C813.69 1180.4 723.03 1205.24 690.1 1215.56L587.98 1241.1L587.97 1241.09Z" fill="#353535"></path><path d="M416.54 688.41C375.37 689.08 313.3 696.49 253.61 733.44C200.78 766.14 153.22 819.88 91.2196 1011.27C22.8696 1222.26 -48.3504 1442.1 43.9496 1516.77C73.1396 1540.38 108.19 1540.96 142.9 1540.83C256.89 1540.39 433.63 1531.97 669.2 1491.57C675.59 1394.64 681.98 1297.71 688.38 1200.78C567.47 1213.07 446.56 1225.36 325.64 1237.65C359.69 1055.24 390.01 872.06 416.54 688.41Z" fill="#FFCF4B"></path><path d="M99.9997 1326.59C96.1897 1326.59 94.5297 1321.74 97.5597 1319.42C195.08 1244.6 270.66 1248.15 277.46 1248.65L688.5 1207.76C690.72 1207.52 692.66 1209.15 692.88 1211.34C693.1 1213.54 691.49 1215.5 689.3 1215.72L277.17 1256.65C276.41 1256.59 199.84 1251.04 102.45 1325.77C101.72 1326.33 100.87 1326.6 100.02 1326.6L99.9997 1326.59Z" fill="#353535"></path><path d="M299.15 1254.51C296.41 1254.51 294.46 1251.79 295.37 1249.18C353.33 1083.93 318.91 831.28 318.55 828.75C318.24 826.56 319.77 824.54 321.96 824.23C324.13 823.89 326.17 825.44 326.48 827.64C326.57 828.28 335.43 892.41 336.94 976.25C338.34 1053.74 333.57 1164.45 302.92 1251.83C302.34 1253.48 300.8 1254.51 299.14 1254.51H299.15Z" fill="#353535"></path><path d="M915.32 1173.45C912.99 1173.45 911.17 1171.48 911.32 1169.19C929.22 896.49 867.94 716.5 867.32 714.72C866.59 712.63 867.7 710.35 869.78 709.63C871.87 708.89 874.15 710.01 874.87 712.09C875.5 713.89 937.31 895.28 919.3 1169.71C919.16 1171.83 917.4 1173.45 915.31 1173.45H915.32Z" fill="#353535"></path><path d="M1061.15 1118.63C1059 1118.63 1057.22 1116.92 1057.16 1114.76C1053.33 996.26 1072.7 902.06 1072.9 901.13C1073.35 898.97 1075.44 897.58 1077.63 898.03C1079.79 898.48 1081.18 900.6 1080.72 902.76C1080.53 903.69 1061.34 997.01 1065.14 1114.5C1065.22 1116.76 1063.4 1118.63 1061.14 1118.63H1061.15Z" fill="#353535"></path><path d="M1846.98 1243.95H1147.89V1807.1H1846.98V1243.95Z" fill="#353535"></path><path d="M1623.67 1248.96H1024.96V1803.22H1623.67V1248.96Z" fill="white"></path><path d="M1623.66 1807.22H1024.96C1022.75 1807.22 1020.96 1805.43 1020.96 1803.22V1248.96C1020.96 1246.75 1022.75 1244.96 1024.96 1244.96H1623.66C1625.87 1244.96 1627.66 1246.75 1627.66 1248.96V1803.22C1627.66 1805.43 1625.87 1807.22 1623.66 1807.22ZM1028.96 1799.22H1619.66V1252.96H1028.96V1799.22Z" fill="#353535"></path><path d="M1566.73 1386.15H954.28L1024.96 1248.96H1623.66L1566.73 1386.15Z" fill="white"></path><path d="M1566.73 1390.15H954.28C951.29 1390.15 949.35 1386.98 950.72 1384.32L1021.4 1247.13C1022.08 1245.8 1023.46 1244.96 1024.95 1244.96H1623.65C1626.5 1244.96 1628.44 1247.86 1627.35 1250.49L1570.42 1387.68C1569.8 1389.17 1568.34 1390.15 1566.72 1390.15H1566.73ZM960.84 1382.15H1564.06L1617.67 1252.96H1027.4L960.85 1382.15H960.84Z" fill="#353535"></path><path d="M1927.03 1386.15H1691.01L1623.66 1248.96H1848.16L1927.03 1386.15Z" fill="white"></path><path d="M1927.03 1390.15H1691.01C1689.48 1390.15 1688.09 1389.28 1687.42 1387.91L1620.07 1250.72C1618.77 1248.07 1620.7 1244.96 1623.66 1244.96H1848.16C1849.59 1244.96 1850.91 1245.73 1851.63 1246.97L1930.5 1384.16C1932.03 1386.82 1930.1 1390.15 1927.03 1390.15ZM1693.51 1382.15H1920.12L1845.85 1252.96H1630.08L1693.51 1382.15Z" fill="#353535"></path><path d="M1310.86 1092.74C1401.3 1092.74 1474.62 1019.42 1474.62 928.98C1474.62 838.538 1401.3 765.22 1310.86 765.22C1220.42 765.22 1147.1 838.538 1147.1 928.98C1147.1 1019.42 1220.42 1092.74 1310.86 1092.74Z" fill="#353535"></path><path d="M1281.18 1092.75C1370.37 1092.75 1442.68 1020.44 1442.68 931.25C1442.68 842.056 1370.37 769.75 1281.18 769.75C1191.99 769.75 1119.68 842.056 1119.68 931.25C1119.68 1020.44 1191.99 1092.75 1281.18 1092.75Z" fill="white"></path><path d="M1281.18 1096.75C1189.92 1096.75 1115.68 1022.51 1115.68 931.25C1115.68 839.99 1189.92 765.75 1281.18 765.75C1372.44 765.75 1446.68 839.99 1446.68 931.25C1446.68 1022.51 1372.44 1096.75 1281.18 1096.75ZM1281.18 773.75C1194.33 773.75 1123.68 844.4 1123.68 931.25C1123.68 1018.1 1194.33 1088.75 1281.18 1088.75C1368.03 1088.75 1438.68 1018.1 1438.68 931.25C1438.68 844.4 1368.03 773.75 1281.18 773.75Z" fill="#353535"></path><path d="M1291.61 1027.69C1236.81 1034.49 1209.66 1009.77 1205.16 973.47L1240.3 969.11C1241.71 980.47 1249.03 990.56 1262.08 995.26C1276.53 1000.47 1305.68 996.97 1318.1 985.1C1324.58 978.91 1327.33 971.88 1326.35 964C1325.46 956.86 1321.62 951.35 1314.82 947.45C1302.53 940.42 1284.58 942.09 1269.89 942.57C1233.1 943.94 1205.2 928.91 1200.62 892.08C1197.58 867.59 1207.25 849.13 1227.07 837.92C1246.98 826.67 1280.61 822.12 1303.1 829.46C1326.68 837.16 1339.4 855.79 1342.48 880.6L1307.34 884.96C1305.26 868.22 1291.6 854.58 1267.43 857.58C1233.17 861.83 1228.83 890.08 1245.43 903.8C1255.16 911.84 1270.54 909.73 1284.44 909.27C1323.3 907.81 1357.01 921.31 1361.77 959.6C1366.92 1001.06 1333.59 1022.47 1291.62 1027.68L1291.61 1027.69ZM1250.18 842.17L1245.2 802.09L1277.32 798.1L1282.3 838.18L1250.18 842.17ZM1278.88 1064.39L1273.9 1024.31L1306.02 1020.32L1311 1060.4L1278.88 1064.39Z" fill="#353535"></path><path d="M1654.73 1012.34C1745.17 1012.34 1818.49 939.022 1818.49 848.58C1818.49 758.138 1745.17 684.82 1654.73 684.82C1564.29 684.82 1490.97 758.138 1490.97 848.58C1490.97 939.022 1564.29 1012.34 1654.73 1012.34Z" fill="#353535"></path><path d="M1684.41 1012.34C1773.6 1012.34 1845.91 940.034 1845.91 850.84C1845.91 761.646 1773.6 689.34 1684.41 689.34C1595.22 689.34 1522.91 761.646 1522.91 850.84C1522.91 940.034 1595.22 1012.34 1684.41 1012.34Z" fill="white"></path><path d="M1684.41 1016.34C1593.15 1016.34 1518.91 942.1 1518.91 850.84C1518.91 759.58 1593.15 685.34 1684.41 685.34C1775.67 685.34 1849.91 759.58 1849.91 850.84C1849.91 942.1 1775.67 1016.34 1684.41 1016.34ZM1684.41 693.34C1597.56 693.34 1526.91 763.99 1526.91 850.84C1526.91 937.69 1597.56 1008.34 1684.41 1008.34C1771.26 1008.34 1841.91 937.69 1841.91 850.84C1841.91 763.99 1771.26 693.34 1684.41 693.34Z" fill="#353535"></path><path d="M1623.59 926.41C1580.03 892.47 1578.31 855.8 1600.79 826.94L1628.72 848.7C1621.68 857.73 1619.73 870.04 1625.63 882.59C1632.17 896.49 1655.25 914.63 1672.43 915.02C1681.39 915.22 1688.31 912.2 1693.18 905.94C1697.6 900.27 1698.78 893.65 1696.73 886.09C1693.01 872.43 1679.14 860.92 1668.41 850.87C1641.43 825.83 1632.32 795.47 1655.13 766.19C1670.3 746.72 1690.18 740.51 1712.13 746.6C1734.16 752.72 1761.16 773.29 1771.87 794.37C1783.1 816.49 1778.92 838.65 1763.56 858.38L1735.63 836.62C1746 823.31 1745.98 804.01 1726.77 789.04C1699.53 767.82 1676.49 784.73 1678.54 806.17C1679.74 818.74 1692.1 828.11 1702.25 837.62C1730.76 864.07 1745.05 897.45 1721.34 927.89C1695.66 960.85 1656.96 952.42 1623.59 926.43V926.41ZM1725.48 765.93L1750.3 734.07L1775.83 753.96L1751.01 785.82L1725.48 765.93ZM1588.64 943.36L1613.46 911.5L1638.99 931.39L1614.17 963.25L1588.64 943.36Z" fill="#353535"></path></g><defs><clipPath id="clip0_12_272"><rect width="1931" height="1807" fill="white"></rect></clipPath></defs></svg>