<svg width="528" height="529" viewBox="0 0 528 529" fill="none" xmlns="http://www.w3.org/2000/svg">
<circle cx="264" cy="264.367" r="264" fill="#5CFFF1"/>
<path d="M137.977 470.438L137.97 470.445C135.42 473.012 132.099 473.316 129.392 472.057C126.675 470.794 124.561 467.944 124.561 464.121L124.561 61.3869C124.561 56.5489 128.198 52.75 132.538 52.75H392.875C397.215 52.75 400.852 56.5489 400.852 61.3869V463.188C400.852 467.19 398.568 470.083 395.71 471.261C392.863 472.434 389.423 471.919 386.969 468.992L386.943 468.962L386.915 468.933L360.559 442.145C359.564 441.134 357.917 441.195 356.999 442.276L330.73 473.22L330.718 473.233L330.708 473.247C327.523 477.273 321.774 477.273 318.59 473.247L294.292 442.526C293.325 441.304 291.472 441.304 290.506 442.526L266.97 472.283C263.785 476.31 258.037 476.31 254.852 472.283L254.847 472.277L254.842 472.27L230.48 442.473C229.504 441.279 227.674 441.294 226.718 442.504L205.543 469.302L205.523 469.327L205.505 469.354C202.277 474.034 195.78 473.971 192.632 469.222L192.602 469.176L192.567 469.134L170.199 442.286C169.295 441.2 167.655 441.121 166.649 442.114L137.977 470.438Z" fill="white" stroke="black" stroke-width="2"/>
<path d="M177.525 114.706V100.828H181.749V120.137H176.72L169.077 106.46V120.137H164.854V100.828H169.882L177.525 114.706Z" fill="black"/>
<path d="M196.834 100.226C203.069 100.226 207.494 104.449 207.494 110.483C207.494 116.517 203.069 120.741 196.834 120.741C190.599 120.741 186.174 116.517 186.174 110.483C186.174 104.449 190.398 100.226 196.834 100.226ZM196.834 116.92C200.454 116.92 202.868 114.305 202.868 110.483C202.868 106.662 200.454 104.047 196.834 104.047C193.213 104.047 190.8 106.662 190.8 110.483C190.8 114.305 193.213 116.92 196.834 116.92Z" fill="black"/>
<path d="M209.906 104.65V100.828H225.997V104.65H220.164V120.137H215.538V104.65H209.906Z" fill="black"/>
<path d="M245.508 120.137H240.681L239.474 116.718H231.831L230.825 120.137H225.998L232.434 100.828H239.072L245.508 120.137ZM232.837 113.298H238.669L235.652 104.65L232.837 113.298Z" fill="black"/>
<path d="M262.401 113.298V120.137H257.775V100.828H270.849V104.851H262.2V109.879H269.24V113.298H262.401Z" fill="black"/>
<path d="M279.298 120.137H274.672V100.828H279.298V120.137Z" fill="black"/>
<path d="M283.523 113.701H287.546C287.546 115.713 289.356 117.322 291.971 117.322C294.183 117.322 295.591 116.115 295.591 114.908C295.591 110.886 283.725 114.305 283.725 106.662C283.725 102.84 286.943 100.226 291.569 100.226C296.195 100.226 299.614 103.041 299.614 106.863H295.591C295.591 105.053 293.982 103.645 291.569 103.645C289.356 103.645 287.948 104.65 287.948 106.058C287.948 109.88 299.815 106.662 299.815 114.305C299.815 118.126 296.597 120.942 291.569 120.942C286.54 120.942 283.523 117.925 283.523 113.701Z" fill="black"/>
<path d="M323.346 113.5C322.742 117.724 318.72 120.741 313.691 120.741C307.657 120.741 303.434 116.517 303.434 110.483C303.434 104.449 307.657 100.226 313.691 100.226C318.518 100.226 322.541 103.444 323.145 107.667L318.921 108.07C318.317 105.656 316.306 104.047 313.691 104.047C310.272 104.047 307.858 106.662 307.858 110.483C307.858 114.305 310.272 116.92 313.691 116.92C316.105 116.92 318.317 115.311 318.921 112.897L323.346 113.5Z" fill="black"/>
<path d="M344.465 120.137H339.638L338.431 116.718H330.788L329.782 120.137H325.156L331.593 100.828H338.23L344.465 120.137ZM331.995 113.298H337.828L334.811 104.65L331.995 113.298Z" fill="black"/>
<path d="M347.883 120.137V100.828H352.509V116.114H360.554V119.936H347.883V120.137Z" fill="black"/>
<path d="M316.57 166.656H361.68" stroke="black" stroke-width="2" stroke-miterlimit="10" stroke-linecap="round" stroke-linejoin="round"/>
<path d="M316.57 178.326H361.68" stroke="black" stroke-width="2" stroke-miterlimit="10" stroke-linecap="round" stroke-linejoin="round"/>
<path d="M316.57 190.895H361.68" stroke="black" stroke-width="2" stroke-miterlimit="10" stroke-linecap="round" stroke-linejoin="round"/>
<path d="M316.57 234.883H361.68" stroke="black" stroke-width="2" stroke-miterlimit="10" stroke-linecap="round" stroke-linejoin="round"/>
<path d="M316.57 246.553H361.68" stroke="black" stroke-width="2" stroke-miterlimit="10" stroke-linecap="round" stroke-linejoin="round"/>
<path d="M316.57 259.121H361.68" stroke="black" stroke-width="2" stroke-miterlimit="10" stroke-linecap="round" stroke-linejoin="round"/>
<rect x="164.061" y="160.474" width="126.373" height="108.419" rx="4.65358" fill="white" stroke="black" stroke-width="2"/>
<path d="M182.811 181.917H272.582" stroke="black" stroke-width="2" stroke-miterlimit="10" stroke-linecap="round" stroke-linejoin="round"/>
<path d="M182.811 193.587H272.582" stroke="black" stroke-width="2" stroke-miterlimit="10" stroke-linecap="round" stroke-linejoin="round"/>
<path d="M182.811 206.155H272.582" stroke="black" stroke-width="2" stroke-miterlimit="10" stroke-linecap="round" stroke-linejoin="round"/>
<path d="M182.811 234.882H206.151" stroke="black" stroke-width="2" stroke-miterlimit="10" stroke-linecap="round" stroke-linejoin="round"/>
<path d="M216.924 234.882H272.582" stroke="black" stroke-width="2" stroke-miterlimit="10" stroke-linecap="round" stroke-linejoin="round"/>
<path d="M182.811 247.45H206.151" stroke="black" stroke-width="2" stroke-miterlimit="10" stroke-linecap="round" stroke-linejoin="round"/>
<path d="M216.924 247.45H272.582" stroke="black" stroke-width="2" stroke-miterlimit="10" stroke-linecap="round" stroke-linejoin="round"/>
<path d="M126.254 316.575H400.057" stroke="black" stroke-width="2" stroke-dasharray="8.48 8.48"/>
<rect x="187.301" y="345.302" width="10.9938" height="60.1469" fill="black"/>
<rect x="216.982" y="345.302" width="10.9938" height="60.1469" fill="black"/>
<rect x="260.959" y="345.302" width="10.9938" height="60.1469" fill="black"/>
<rect x="284.045" y="345.302" width="10.9938" height="60.1469" fill="black"/>
<rect x="313.727" y="345.302" width="10.9938" height="60.1469" fill="black"/>
<rect x="328.021" y="345.302" width="10.9938" height="60.1469" fill="black"/>
<rect x="201.592" y="345.302" width="5.49688" height="60.1469" fill="black"/>
<rect x="231.275" y="345.302" width="5.49688" height="60.1469" fill="black"/>
<rect x="298.338" y="345.302" width="5.49688" height="60.1469" fill="black"/>
<rect x="275.252" y="345.302" width="5.49688" height="60.1469" fill="black"/>
<rect x="245.566" y="345.302" width="5.49688" height="60.1469" fill="black"/>
<rect x="209.289" y="345.302" width="4.3975" height="60.1469" fill="black"/>
<rect x="238.971" y="345.302" width="4.3975" height="60.1469" fill="black"/>
<rect x="306.033" y="345.302" width="4.3975" height="60.1469" fill="black"/>
<rect x="253.264" y="345.302" width="4.3975" height="60.1469" fill="black"/>
<rect x="26.8926" y="284.35" width="263.453" height="71.8759" rx="3.94688" fill="#0098F9" stroke="black" stroke-width="2"/>
<path d="M96.4819 309.729V325.393H92.7859V309.729H96.4819ZM104.734 325.393H101.126V309.729H106.01L110.432 321.191L114.81 309.729H119.76V325.393H116.152V314.195L111.818 325.393H109.046L104.734 314.195V325.393ZM131.416 320.531H127.984V325.393H124.42V309.729H131.438C135.09 309.729 137.62 311.951 137.62 315.141C137.62 318.309 135.068 320.531 131.416 320.531ZM130.756 312.523H127.984V317.737H130.756C132.604 317.737 133.924 316.659 133.924 315.141C133.924 313.601 132.626 312.523 130.756 312.523ZM141.332 325.393V309.729H148.922C152.552 309.729 155.082 311.863 155.082 314.943C155.082 317.033 153.696 318.749 151.65 319.409L155.434 325.393H151.298L148.218 319.915H145.028V325.393H141.332ZM148.328 312.523H145.028V317.297H148.328C150.066 317.297 151.386 316.351 151.386 314.943C151.386 313.403 150.066 312.523 148.328 312.523ZM163.058 309.729V325.393H159.362V309.729H163.058ZM171.31 325.393H167.702V309.729H172.586L177.008 321.191L181.386 309.729H186.336V325.393H182.728V314.195L178.394 325.393H175.622L171.31 314.195V325.393ZM194.691 309.729V325.393H190.995V309.729H194.691ZM199.336 325.393V309.729H206.926C210.556 309.729 213.086 311.863 213.086 314.943C213.086 317.033 211.7 318.749 209.654 319.409L213.438 325.393H209.302L206.222 319.915H203.032V325.393H199.336ZM206.332 312.523H203.032V317.297H206.332C208.07 317.297 209.39 316.351 209.39 314.943C209.39 313.403 208.07 312.523 206.332 312.523Z" fill="white"/>
<rect x="302" y="284.367" width="157" height="72" rx="3.94688" fill="white" stroke="black" stroke-width="2"/>
<path d="M339.266 322.423H346.922V325.393H335.702V309.729H346.702V312.699H339.266V316.065H345.822V318.661H339.266V322.423ZM354.967 309.729L361.193 320.927V309.729H364.713V325.393H360.577L354.329 314.217V325.393H350.831V309.729H354.967ZM371.819 309.729L375.823 322.665L379.805 309.729H383.655L378.639 325.393H373.007L367.969 309.729H371.819ZM390.63 309.729V325.393H386.934V309.729H390.63ZM404.514 309.729L409.75 325.393H405.878L404.954 322.555H398.662L397.782 325.393H393.888L399.146 309.729H404.514ZM401.83 312.897L399.454 319.893H404.206L401.83 312.897ZM413.024 325.393V309.729H420.614C424.244 309.729 426.774 311.863 426.774 314.943C426.774 317.033 425.388 318.749 423.342 319.409L427.126 325.393H422.99L419.91 319.915H416.72V325.393H413.024ZM420.02 312.523H416.72V317.297H420.02C421.758 317.297 423.078 316.351 423.078 314.943C423.078 313.403 421.758 312.523 420.02 312.523Z" fill="black"/>
<path fill-rule="evenodd" clip-rule="evenodd" d="M102.646 363.986L108.828 371.936C109.518 372.824 109.359 374.101 108.471 374.79L102.126 379.724C101.238 380.414 99.9608 380.255 99.2726 379.367L93.0905 371.416L88.332 375.117C87.1378 376.045 85.3854 375.391 85.0893 373.909L79.7962 347.421C79.4668 345.78 81.1559 344.466 82.6679 345.19L107.034 356.847C108.397 357.499 108.599 359.359 107.404 360.287L102.646 363.986Z" fill="white"/>
<path d="M102.646 363.986V363.986L108.828 371.936C109.518 372.824 109.359 374.101 108.471 374.79L102.126 379.724C101.238 380.414 99.9608 380.255 99.2726 379.367L93.0905 371.416L88.332 375.117C87.1378 376.045 85.3854 375.391 85.0893 373.909L79.7962 347.421C79.4668 345.78 81.1559 344.466 82.6679 345.19L107.034 356.847C108.397 357.499 108.599 359.359 107.404 360.287L102.646 363.986" stroke="black" stroke-width="2" stroke-linecap="round" stroke-linejoin="round"/>
</svg>
