<?xml version="1.0" encoding="utf-8"?>
<!-- Generator: Adobe Illustrator 27.5.0, SVG Export Plug-In . SVG Version: 6.00 Build 0)  -->
<svg version="1.1" xmlns="http://www.w3.org/2000/svg" xmlns:xlink="http://www.w3.org/1999/xlink" x="0px" y="0px"
	 viewBox="0 0 500 500" style="enable-background:new 0 0 500 500;" xml:space="preserve">
<g id="BACKGROUND">
	<g>
		<defs>
			<rect id="SVGID_1_" width="500" height="500"/>
		</defs>
		<clipPath id="SVGID_00000076567311840580006910000005039135660547467190_">
			<use xlink:href="#SVGID_1_"  style="overflow:visible;"/>
		</clipPath>
		
			<rect style="clip-path:url(#SVGID_00000076567311840580006910000005039135660547467190_);fill:#FEFDFD;" width="500" height="500"/>
		<g style="clip-path:url(#SVGID_00000076567311840580006910000005039135660547467190_);">
			<path style="fill:#E6EDFA;" d="M294.742-8.842c-4.539,8.502-8.279,17.31-11.017,25.959c-5.075,16.032-8.87,32.342-14.593,48.195
				c-4.642,12.858-10.18,25.129-16.158,37.397c-10.116,20.76-18.6,42.909-44.442,46.974c-21.672,3.41-38.74-8.194-56.91-18.728
				c-16.044-9.301-31.688-19.394-47.403-29.233c-8.816-5.701-17.766-11.183-26.848-16.446c-7.162-4.561-14.681-8.447-22.559-11.658
				c-23.123-6.821-46.445,1.768-67.224,12.098c-2.243,1.115-4.478,2.323-6.692,3.602v305.32h538.209V-8.842H294.742z"/>
			<g>
				<path style="fill:#A2C0F5;" d="M214.409,230.737c7.661,1.661,15.172,4.059,22.413,7.125c3.627,1.52,7.16,3.281,10.569,5.269
					c0.843,0.513,1.713,0.983,2.535,1.532l2.466,1.649c0.824,0.547,1.584,1.188,2.38,1.778l1.182,0.904l1.12,0.974l2.239,1.952
					c0.724,0.674,1.423,1.377,2.136,2.064c1.452,1.351,2.747,2.853,4.11,4.291c2.599,2.989,5.122,6.056,7.388,9.313
					c4.574,6.494,8.575,13.342,11.771,20.716l-2.098,0.829c-2.904-7.165-6.719-14.098-11.061-20.574
					c-2.156-3.263-4.568-6.341-7.059-9.35c-1.308-1.447-2.55-2.962-3.948-4.325c-0.686-0.694-1.358-1.403-2.056-2.085l-2.159-1.976
					l-1.081-0.988l-1.138-0.914c-0.768-0.598-1.498-1.246-2.297-1.804l-2.392-1.684c-0.798-0.562-1.647-1.046-2.468-1.574
					c-3.325-2.047-6.79-3.881-10.362-5.48C229.467,235.157,222.027,232.581,214.409,230.737z"/>
				<g>
					<path style="fill:#A2C0F5;" d="M226.97,234.317c0,0,1.165-18.902-8.468-15.045C208.869,223.13,226.97,234.317,226.97,234.317z"
						/>
					<path style="fill:#A2C0F5;" d="M226.97,234.317c0,0-5.89,17.98-13.407,10.775C206.046,237.888,226.97,234.317,226.97,234.317z"
						/>
				</g>
				<g>
					<path style="fill:#A2C0F5;" d="M240.408,239.956c0,0,2.392-18.783-7.472-15.569
						C223.072,227.602,240.408,239.956,240.408,239.956z"/>
					<path style="fill:#A2C0F5;" d="M240.408,239.956c0,0-7.047,17.552-14.08,9.868
						C219.295,242.141,240.408,239.956,240.408,239.956z"/>
				</g>
				<g>
					<path style="fill:#A2C0F5;" d="M255.074,249.083c0,0,7.576-17.326-2.792-17.055C241.913,232.3,255.074,249.083,255.074,249.083
						z"/>
					<path style="fill:#A2C0F5;" d="M255.074,249.083c0,0-11.696,14.82-16.284,5.45
						C234.201,245.163,255.074,249.083,255.074,249.083z"/>
				</g>
				<g>
					<path style="fill:#A2C0F5;" d="M268.164,261.71c0,0,10.492-18.8-1.295-19.644C255.082,241.221,268.164,261.71,268.164,261.71z"
						/>
					<path style="fill:#A2C0F5;" d="M268.164,261.71c0,0-14.889,15.5-19.063,4.368C244.926,254.946,268.164,261.71,268.164,261.71z"
						/>
				</g>
				<g>
					<path style="fill:#A2C0F5;" d="M278.68,278.445c0,0,15.412-14.973,4.357-19.185C271.981,255.048,278.68,278.445,278.68,278.445
						z"/>
					<path style="fill:#A2C0F5;" d="M278.68,278.445c0,0-18.686,10.544-19.515-1.322C258.337,265.258,278.68,278.445,278.68,278.445
						z"/>
				</g>
				<path style="fill:#A2C0F5;" d="M217.667,231.496c0,0-15.371,10.904-17.156,0.617
					C198.725,221.825,217.667,231.496,217.667,231.496z"/>
			</g>
			<g>
				<path style="fill:#A2C0F5;" d="M341.499,91.124c5.377,7.309,10.06,15.142,13.996,23.35c1.984,4.097,3.701,8.331,5.138,12.667
					c0.339,1.091,0.734,2.165,1.027,3.271l0.878,3.32c0.296,1.106,0.465,2.245,0.704,3.367l0.333,1.689l0.226,1.703l0.448,3.409
					c0.112,1.14,0.18,2.284,0.273,3.427c0.226,2.285,0.199,4.579,0.28,6.872c-0.033,4.584-0.192,9.179-0.72,13.741
					c-1.003,9.139-2.776,18.147-5.649,26.995l-2.455-0.887c2.967-8.443,4.966-17.381,6.157-26.327
					c0.628-4.483,0.892-9.003,1.034-13.521c-0.027-2.258,0.055-4.524-0.115-6.777c-0.064-1.128-0.104-2.258-0.188-3.385
					l-0.361-3.369l-0.182-1.685l-0.288-1.665c-0.208-1.107-0.346-2.229-0.612-3.325l-0.786-3.293
					c-0.262-1.098-0.628-2.169-0.937-3.256c-1.318-4.323-2.921-8.568-4.796-12.692C351.182,106.492,346.698,98.559,341.499,91.124z"
					/>
				<g>
					<path style="fill:#A2C0F5;" d="M349.658,103.851c0,0,15.488-15.513,4.173-19.543
						C342.516,80.279,349.658,103.851,349.658,103.851z"/>
					<path style="fill:#A2C0F5;" d="M349.658,103.851c0,0-18.882,11.094-19.888-0.916
						C328.764,90.925,349.658,103.851,349.658,103.851z"/>
				</g>
				<g>
					<path style="fill:#A2C0F5;" d="M357.003,119.037c0,0,16.461-14.47,5.438-19.235
						C351.418,95.037,357.003,119.037,357.003,119.037z"/>
					<path style="fill:#A2C0F5;" d="M357.003,119.037c0,0-19.558,9.837-19.778-2.219
						C337.006,104.763,357.003,119.037,357.003,119.037z"/>
				</g>
				<g>
					<path style="fill:#A2C0F5;" d="M362.742,138.19c0,0,19.845-9.236,10.638-16.941C364.173,113.544,362.742,138.19,362.742,138.19
						z"/>
					<path style="fill:#A2C0F5;" d="M362.742,138.19c0,0-21.502,3.905-18.308-7.742C347.629,118.802,362.742,138.19,362.742,138.19z
						"/>
				</g>
				<g>
					<path style="fill:#A2C0F5;" d="M364.433,159.175c0,0,23.504-8.281,13.921-18.042
						C368.77,131.373,364.433,159.175,364.433,159.175z"/>
					<path style="fill:#A2C0F5;" d="M364.433,159.175c0,0-24.793,2.05-19.891-10.809
						C349.445,135.507,364.433,159.175,364.433,159.175z"/>
				</g>
				<g>
					<path style="fill:#A2C0F5;" d="M360.743,181.753c0,0,24.844-1.191,18.474-13.314
						C372.847,156.316,360.743,181.753,360.743,181.753z"/>
					<path style="fill:#A2C0F5;" d="M360.743,181.753c0,0-24.293-5.16-15.925-16.093
						C353.186,154.728,360.743,181.753,360.743,181.753z"/>
				</g>
				<path style="fill:#A2C0F5;" d="M343.745,94.278c0,0-21.691-2.309-15.362-12.604C334.712,71.377,343.745,94.278,343.745,94.278z"
					/>
			</g>
			<g>
				<path style="fill:#A2C0F5;" d="M27.114,290.27c-0.558,6.428-1.733,12.81-3.482,19.041c-0.863,3.12-1.933,6.187-3.2,9.178
					c-0.331,0.742-0.624,1.501-0.986,2.229l-1.089,2.185c-0.361,0.73-0.805,1.417-1.204,2.129l-0.615,1.059l-0.679,1.016
					l-1.361,2.031c-0.475,0.662-0.976,1.305-1.462,1.959c-0.951,1.326-2.043,2.54-3.076,3.803c-2.169,2.433-4.411,4.813-6.833,7.002
					c-4.825,4.411-9.999,8.391-15.686,11.769l-0.896-1.626c5.547-3.117,10.81-6.954,15.644-11.174c2.44-2.1,4.701-4.39,6.898-6.738
					c1.045-1.219,2.152-2.391,3.119-3.674c0.495-0.632,1.004-1.255,1.488-1.896l1.388-1.969l0.693-0.986l0.628-1.024
					c0.408-0.689,0.861-1.353,1.234-2.063l1.125-2.128c0.375-0.71,0.683-1.454,1.028-2.179c1.324-2.928,2.461-5.948,3.394-9.03
					C25.073,303.024,26.401,296.681,27.114,290.27z"/>
				<g>
					<path style="fill:#A2C0F5;" d="M25.499,300.897c0,0,15.554-1.018,11.4-8.481C32.746,284.954,25.499,300.897,25.499,300.897z"/>
					<path style="fill:#A2C0F5;" d="M25.499,300.897c0,0-15.293-2.935-10.194-9.823C20.404,284.187,25.499,300.897,25.499,300.897z"
						/>
				</g>
				<g>
					<path style="fill:#A2C0F5;" d="M22.296,312.456c0,0,15.584-0.004,11.932-7.723C30.576,297.015,22.296,312.456,22.296,312.456z"
						/>
					<path style="fill:#A2C0F5;" d="M22.296,312.456c0,0-15.064-3.924-9.524-10.467S22.296,312.456,22.296,312.456z"/>
				</g>
				<g>
					<path style="fill:#A2C0F5;" d="M16.373,325.381c0,0,14.935,4.38,13.633-4.057C28.703,312.887,16.373,325.381,16.373,325.381z"
						/>
					<path style="fill:#A2C0F5;" d="M16.373,325.381c0,0-13.318-8.005-6.146-12.727C17.398,307.932,16.373,325.381,16.373,325.381z"
						/>
				</g>
				<g>
					<path style="fill:#A2C0F5;" d="M7.428,337.384c0,0,16.442,6.607,15.903-3.104C22.792,324.569,7.428,337.384,7.428,337.384z"/>
					<path style="fill:#A2C0F5;" d="M7.428,337.384c0,0-14.206-10.541-5.552-15.109C10.529,317.707,7.428,337.384,7.428,337.384z"/>
				</g>
				<g>
					<path style="fill:#A2C0F5;" d="M-5.139,347.713c0,0,13.83,11.023,16.117,1.558C13.264,339.806-5.139,347.713-5.139,347.713z"/>
					<path style="fill:#A2C0F5;" d="M-5.139,347.713c0,0-10.555-14.157-0.955-16.07C3.507,329.73-5.139,347.713-5.139,347.713z"/>
				</g>
				<path style="fill:#A2C0F5;" d="M26.833,293.009c0,0-10.503-11.413-2.291-13.943C32.755,276.536,26.833,293.009,26.833,293.009z"
					/>
			</g>
			<g>
				<path style="fill:#A2C0F5;" d="M381.809,364.011l89.18-98.56c0,0-54.583,0.227-79.882,28.187
					C365.807,321.598,381.809,364.011,381.809,364.011z"/>
				<path style="fill:#CDDDFA;" d="M381.94,364.124l89.18-98.56c0,0,7.795,54.002-17.504,81.962
					C428.317,375.486,381.94,364.124,381.94,364.124z"/>
			</g>
			<g>
				<path style="fill:#A2C0F5;" d="M304.447,385.619l-97.662-108.164c0,0-5.781,59.565,21.925,90.25
					C256.415,398.39,304.447,385.619,304.447,385.619z"/>
				<path style="fill:#CDDDFA;" d="M304.585,385.488l-97.662-108.164c0,0,59.767-2.539,87.472,28.146
					C322.1,336.155,304.585,385.488,304.585,385.488z"/>
			</g>
			<g>
				<path style="fill:#A2C0F5;" d="M248.324,75.549c2.154,0,3.787-1.896,3.532-4.035c-0.431-3.616-1.803-7.109-4.218-10.047
					c-3.225-3.923-8.634-6.651-13.747-6.568c-6.076,0.099-10.878,3.511-14.62,8.05c-1.023,1.241-1.932,2.609-2.697,4.058
					c-0.364-0.235-0.744-0.461-1.025-0.68c-0.699-0.634-1.406-1.261-2.134-1.861c-4.19-3.456-10.099-4.263-15.037-1.964
					c-1.929,0.898-3.62,2.289-5.073,3.823c-0.561,0.592-1.102,1.204-1.678,1.781c-0.318,0.319-0.642,0.631-0.985,0.923
					c-0.004,0.002-0.008,0.004-0.013,0.006c-0.324,0.062-0.446,0.164-0.441,0.26c-0.099,0.018-0.196,0.035-0.286,0.049
					c-0.242-0.003-0.484-0.011-0.726-0.029c-0.399-0.028-1.237,0.001-1.588-0.201c0.286,0.057,0.572,0.114,0.858,0.171
					c-0.348-0.078-0.695-0.161-1.041-0.249c-0.523-0.13-1.044-0.272-1.566-0.405c-1.687-0.43-3.396-0.823-5.12-1.071
					c-3.687-0.531-7.754-0.057-11.323,0.976c-4.259,1.232-8.555,3.223-11.106,7.013H248.324z"/>
			</g>
			<g>
				<path style="fill:#A2C0F5;" d="M565.49,67.093c-2.773-3.858-7.395-6.23-12.533-5.933c-3.227,0.187-6.37,1.542-8.832,3.665
					c-0.179-0.71-0.413-1.41-0.702-2.1c-0.357-1.176-0.926-2.249-1.695-3.226c-0.141-0.215-0.371-0.565-0.513-0.78
					c-0.78-1.442-1.845-2.637-3.22-3.562c-1.127-1.288-2.495-2.214-4.093-2.797c-0.132-0.064-0.265-0.129-0.397-0.194
					c-1.398-0.876-2.92-1.388-4.574-1.509c-1.31-0.435-2.64-0.584-3.988-0.472c-0.721-0.016-1.446,0.026-2.175,0.117
					c-0.813,0.038-1.607,0.18-2.383,0.415c-1.282,0.264-2.491,0.68-3.627,1.248c-1.695,0.691-3.244,1.684-4.641,2.994
					c-0.039,0.028-0.079,0.056-0.119,0.083c-0.31,0.25-0.604,0.511-0.89,0.777c-0.073,0.068-0.143,0.139-0.214,0.208
					c-0.424,0.411-0.821,0.841-1.188,1.291c-0.02,0.025-0.04,0.051-0.06,0.076c-0.391,0.486-0.748,0.993-1.073,1.523
					c-0.018,0.028-0.039,0.052-0.056,0.08c-0.014,0.029-0.029,0.058-0.043,0.087c-0.414,0.697-0.777,1.427-1.078,2.199
					c0,0,0,0,0,0.001c-0.428,0.713-0.784,1.45-1.082,2.207c-0.013,0.026-0.026,0.053-0.039,0.079
					c-0.008,0.023-0.013,0.046-0.021,0.069c-0.342,0.896-0.594,1.823-0.755,2.78c-1.602-1.049-3.358-1.646-5.269-1.786
					c-1.447-0.155-2.827,0.046-4.139,0.602c-1.412,0.333-2.661,1.007-3.749,2.013c-0.167-0.769-0.371-1.531-0.622-2.284
					c-0.852-3.087-2.337-5.868-4.47-8.338c-2.545-2.91-5.645-4.989-9.298-6.239c-3.548-1.18-7.161-1.432-10.839-0.758
					c-3.792,0.729-7.151,2.358-10.076,4.885c-0.49,0.529-1.025,1.116-1.563,1.713c-0.009-0.001-0.009-0.001-0.018-0.003
					c-0.893-1.86-2.193-3.365-3.902-4.516c-1.319-1.509-2.926-2.587-4.82-3.235c-1.632-1.073-3.422-1.682-5.369-1.824
					c-2.768-0.797-5.586-0.874-8.454-0.229c-0.331,0.084-0.662,0.171-0.988,0.271c-0.113,0.035-0.224,0.077-0.342,0.1
					c-1.443,0.282-2.858,0.661-4.182,1.3c-0.687,0.332-1.163,0.43-1.628,0.633c-0.026,0.011-0.048,0.027-0.074,0.039
					c-0.073,0.034-5.135,3.37-5.18,3.409c-0.776,0.673-2.172,2.46-2.077,2.352c-2.697,3.065-1.596,1.41-3.363,5.014
					c-1.542,3.145-2.345,4.219-2.47,8.375c-0.002,0.065-0.001,0.129,0.002,0.194l0.001,0.01c0.062,1.136,1.001,2.025,2.138,2.025
					h149.131C565.443,70.143,566.404,68.365,565.49,67.093z"/>
			</g>
			<g>
				<path style="fill:#A2C0F5;" d="M40.859,168.992c-2.773-3.858-7.395-6.23-12.533-5.933c-3.226,0.186-6.37,1.542-8.832,3.665
					c-0.179-0.71-0.413-1.41-0.702-2.1c-0.357-1.176-0.926-2.249-1.695-3.226c-0.141-0.215-0.371-0.565-0.513-0.78
					c-0.78-1.442-1.845-2.637-3.22-3.562c-1.127-1.288-2.495-2.214-4.093-2.797c-0.132-0.064-0.264-0.129-0.396-0.194
					c-1.398-0.876-2.92-1.388-4.574-1.509c-1.31-0.436-2.64-0.584-3.988-0.472c-0.721-0.016-1.446,0.026-2.175,0.117
					c-0.813,0.038-1.607,0.18-2.382,0.415c-1.282,0.264-2.491,0.68-3.627,1.248c-0.961,0.392-1.87,0.892-2.736,1.481v16.697h49.854
					C40.813,172.041,41.773,170.263,40.859,168.992z"/>
			</g>
		</g>
	</g>
</g>
<g id="OBJECTS">
	<g>
		<path style="opacity:0.08;fill:#41405B;" d="M189.188,446.041c0,3.674-28.821,6.653-64.373,6.653
			c-35.552,0-64.373-2.979-64.373-6.653s28.821-6.653,64.373-6.653C160.367,439.388,189.188,442.366,189.188,446.041z"/>
		<ellipse style="opacity:0.08;fill:#41405B;" cx="338.797" cy="441.458" rx="102.479" ry="12.688"/>
	</g>
	<g>
		<g>
			<path style="fill:#66B0EE;" d="M142.943,270.683c0,0-4.466,70.822-6.699,85.497c-2.233,14.675-12.442,64.442-12.442,64.442
				l-7.657-0.319l3.19-106.233l0.285-45.344l23.004,0.044L142.943,270.683z"/>
			<path style="fill:#EAB191;" d="M118.397,410.9c-0.018,0.671-3.317,14.916-3.317,14.916s0.761,4.948,4.373,3.926
				c3.611-1.022,4.585-3.907,4.585-3.907l-0.47-15.69L118.397,410.9z"/>
			<path style="fill:#C4D6F5;" d="M117.293,425.611c0,0-1.425-1.481-2.851-0.938c-1.426,0.543-3.689,12.421-2.334,13.012
				c1.355,0.591,5.308,2.104,6.678,4.467c1.37,2.363,14.428,10.014,19.73,4.147c5.302-5.867-8.882-13.715-10.851-14.598
				c-1.969-0.883-1.298-9.57-3.55-7.94C121.861,425.392,121.75,427.156,117.293,425.611z"/>
			<path style="fill:#EAB191;" d="M102.435,413.511c0,0.672-2.91,15-2.91,15s0.896,4.925,4.478,3.806
				c3.582-1.119,4.478-4.03,4.478-4.03l-0.896-15.672L102.435,413.511z"/>
			<path style="fill:#D7E2F5;" d="M101.197,428.919c0,0-1.565-1.434-2.999-0.782c-1.434,0.652-2.999,13.038-1.565,13.56
				c1.434,0.521,5.606,1.825,7.171,4.172c1.565,2.347,15.516,9.388,20.601,2.999c5.085-6.389-10.04-13.56-12.126-14.342
				c-2.086-0.782-1.956-9.779-4.172-7.953C105.891,428.398,105.891,430.223,101.197,428.919z"/>
			<path style="fill:#41405B;" d="M103.116,208.515c-0.696,0.135-0.766,2.371-0.904,2.839c-1.087,3.683-4.829,5.128-7.643,7.279
				c-4.17,3.187-9.088,7.059-14.457,7.666c-6.598,0.746-11.05-0.266-15.327-5.661c-4.23-5.334-7.366-12.365-8.09-19.179
				c-1.376-12.945,17.467-14.59,19.026-27.343c0.794-6.49-2.645-12.35-2.366-18.796c0.194-4.497,3.362-8.015,7.433-9.604
				c2.26-0.882,4.164-0.772,5.886-2.698c1.747-1.955,2.322-4.879,3.678-7.098c5.4-8.838,17.287-13.332,26.112-6.559
				c0.675,0.518,1.411,0.926,1.955,1.6c0.46,0.571,0.706,1.259,1.051,1.905c0.339,0.634,0.753,1.277,0.952,1.968
				c0.12,0.415-0.005,1.026,0.686,0.735c0.143,0.458-0.496,0.537-0.527,0.983c-0.074,1.04,0.257,2.237,0.337,3.273
				c0.157,2.049-0.171,4.154-0.404,6.187c-0.346,3.014-0.979,6.006-1.5,8.994c-0.663,3.806-1.768,7.491-2.541,11.27
				c-0.599,2.93-1.135,5.857-2,8.728c-0.931,3.094-1.737,6.195-2.599,9.308c-0.727,2.625-1.685,5.171-2.391,7.803
				c-0.464,1.727-0.788,3.507-1.466,5.17c-0.284,0.698-0.675,1.4-0.85,2.141c-0.173,0.732-0.279,1.436-0.55,2.145
				c-0.624,1.632-0.595,3.404-1.586,4.935c-0.387,0.597-0.662,1.025-0.97,1.636C103.919,208.424,103.44,208.452,103.116,208.515z"/>
			<path style="fill:#41405B;" d="M116.678,216.495c0.696,0.135,0.766,2.371,0.904,2.839c1.087,3.683,4.828,5.128,7.643,7.279
				c4.17,3.187,9.088,7.059,14.457,7.666c6.598,0.746,11.05-0.267,15.327-5.661c4.23-5.334,7.366-12.365,8.09-19.179
				c1.376-12.945-17.467-14.59-19.026-27.343c-0.794-6.49,2.645-12.35,2.366-18.796c-0.194-4.497-3.362-8.015-7.432-9.604
				c-2.26-0.882-4.164-0.772-5.886-2.698c-1.747-1.955-2.322-4.879-3.678-7.098c-5.4-8.838-17.287-13.332-26.112-6.559
				c-0.675,0.518-1.411,0.926-1.955,1.6c-0.46,0.571-0.706,1.259-1.051,1.905c-0.339,0.634-0.753,1.277-0.952,1.968
				c-0.12,0.415,0.005,1.026-0.686,0.735c-0.143,0.458,0.496,0.538,0.527,0.983c0.074,1.04-0.257,2.237-0.337,3.273
				c-0.157,2.049,0.171,4.154,0.404,6.187c0.346,3.014,0.979,6.006,1.5,8.994c0.663,3.806,1.768,7.491,2.541,11.271
				c0.599,2.93,1.135,5.857,2,8.728c0.931,3.094,1.737,6.195,2.599,9.308c0.727,2.625,1.685,5.171,2.391,7.803
				c0.464,1.727,0.788,3.507,1.466,5.17c0.284,0.698,0.675,1.4,0.85,2.141c0.173,0.732,0.279,1.436,0.55,2.145
				c0.624,1.632,0.594,3.404,1.586,4.935c0.387,0.597,0.662,1.025,0.97,1.636C115.875,216.403,116.354,216.432,116.678,216.495z"/>
			<path style="fill:#CC345F;" d="M142.025,265.996l1.186,5.8c0,0,7.25-3.296,8.041-7.909c0.791-4.614,1.977-17.796-7.909-16.083
				L142.025,265.996z"/>
			<path style="fill:#EAB191;" d="M143.806,267.23c0,0,3.512-0.396,4.649-5.452c1.137-5.057-2.042-16.537-0.381-20.125l-3.959-2.299
				l-3.346,7.585C140.769,246.939,137.984,261.943,143.806,267.23z"/>
			<path style="fill:#E3A37F;" d="M105.975,165.972l-3.136,17.922c0,0,1.882,26.533,12.752,23.852s5.179-21.914,5.179-21.914
				l1.489-13.17L105.975,165.972z"/>
			<path style="fill:#D9D8FA;" d="M134.128,217.983c-5.875-8.99-8.967-32.8-8.967-32.8l-3.837-0.045c0,0,1.673,18.823-5.439,21.029
				c-4.466,1.386-9.42-8.341-12.487-15.771h-7.09c2.036,10.02,6.128,30.956,6.59,39.559c0.618,11.506,0,44.902,0,44.902
				s10.823,4.02,15.461,2.164c4.638-1.855,17.626-6.803,17.626-6.803s-1.546-13.297,0-21.645
				C137.529,240.224,140.003,226.973,134.128,217.983z"/>
			<path style="fill:#66B0EE;" d="M142.943,270.683c0,0-4.466,70.822-6.699,85.497c-2.233,14.675-12.442,64.442-12.442,64.442
				l-7.657-0.319l3.19-106.233l0.285-45.344l23.004,0.044L142.943,270.683z"/>
			<path style="fill:#62AAE6;" d="M125.157,325.22c0.084-8.092,1.418-18.909-0.982-26.665c-1.308-4.225-3.029-8.299-4.664-12.401
				l-0.175,27.915l-3.169,102.58C124.852,417.716,125.016,338.862,125.157,325.22z"/>
			<path style="fill:#66B0EE;" d="M91.259,268.45c0,0-15.313,16.908-11.485,47.215c3.828,30.307,11.485,62.209,11.485,62.209
				l8.294,39.239v5.423l10.209-0.319l0.319-7.657c0,0,4.785-67.951,5.423-77.203c0.638-9.252,9.571-46.258,9.571-68.589
				L91.259,268.45z"/>
			<rect x="104.966" y="267.547" style="fill:#41405B;" width="35.107" height="9.274"/>
			<rect x="120.763" y="267.547" style="fill:#A2A3C2;" width="8.931" height="9.274"/>
			<path style="fill:#D14965;" d="M120.758,185.044c0,0-1.798,13.116,0.469,16.888c2.268,3.772,7.199,17.331,8.812,19.528
				c1.613,2.197,4.214,7.232,4.314,14.835c0.1,7.603-1.617,21.566,1.072,33.254s5.336,44.287,7.22,42.995
				c1.884-1.292,3.213-20.637,2.467-29.182c-0.746-8.545-3.815-49.059-2.385-60.801c1.43-11.742,0.554-30.107-4.544-32.257
				C133.086,188.152,122.321,183.439,120.758,185.044z"/>
			<path style="fill:#EAB191;" d="M102.451,163.188c0,0-0.167,17.217,18.696,16.899c16.389-0.276,19.694-48.712,4.902-49.936
				C111.577,128.954,100.125,146.221,102.451,163.188z"/>
			<path style="fill:#D14965;" d="M103.24,181.604l-22.866,11.769c0,0,2.92,24.314,0,37.825c-2.921,13.51-1.491,76.66-1.491,76.66
				s11.049,22.249,27.51,22.514c0,0,6.372-33.188,7.7-44.604c1.327-11.417-5.119-80.669-5.119-80.669L103.24,181.604z"/>
			<path style="fill:#A43C53;" d="M103.24,181.604l-15.056,7.747l10.739,20.939h4.317l-2.992,8.983l12.042,25.284
				C112.291,244.557,117.831,204.948,103.24,181.604z"/>
			<path style="fill:#A43C53;" d="M121.029,183.961l5.868,1.771c0.16,0.048,0.318,0.103,0.473,0.165l5.864,2.314l1.955,16.151
				l-4.093,1.375l5.697,7.563l-3.363,27.803C133.43,241.101,115.399,205.209,121.029,183.961z"/>
			<path style="fill:#EAB191;" d="M107.28,159.426c0,2.652-2.15,4.802-4.802,4.802c-2.652,0-4.802-2.15-4.802-4.802
				c0-2.652,2.15-4.802,4.802-4.802C105.131,154.624,107.28,156.774,107.28,159.426z"/>
			<path style="fill:#41405B;" d="M116.193,143.005c0,0,8.291,12.146,19.947,11.42c11.656-0.727,7.527-15.537,1.22-13.861
				c0,0-8.001-17.775-23.7-12.468s-14.563,18.38-14.563,18.38l-1.498,9.391C97.599,155.865,112.108,162.334,116.193,143.005z"/>
			<path style="fill:#CC345F;" d="M92.292,271.21c0,0,10.071-7.816,2.405-20.292l-7.065,1.353l0.902,11.273L92.292,271.21z"/>
			<path style="fill:#7CBAEE;" d="M129.821,416.064c-2.687-0.896-8.507-0.896-8.507-0.896s-5.821,0-8.507,0.896
				c0,0-1.642,4.478,0.149,6.119c0,0,2.985,0.746,8.358,0.746c5.373,0,8.358-0.746,8.358-0.746
				C131.463,420.541,129.821,416.064,129.821,416.064z"/>
			<path style="fill:#83BDEE;" d="M113.105,416.661c-2.687-0.895-8.507-0.895-8.507-0.895s-5.821,0-8.507,0.895
				c0,0-1.642,4.478,0.149,6.119c0,0,2.985,0.746,8.358,0.746c5.373,0,8.358-0.746,8.358-0.746
				C114.747,421.138,113.105,416.661,113.105,416.661z"/>
			<path style="fill:#CC345F;" d="M80.202,261.213c0,0,6.74-35.22,6.3-42.689c-0.439-7.468,0.686-8.229-3.086-11.144
				c-3.129-2.417-4.093,9.462-4.093,9.462s0.439,20.428,0,22.625c-0.439,2.197-0.879,21.746-0.879,21.746H80.202z"/>
			<path style="fill:#EAB191;" d="M95.841,255.651c0,0,9.151-9.739,13.17-12.937c4.018-3.198,5.395-3.73,8.788-3.142
				c3.393,0.588,12.074,2.742,12.074,2.742s3.117,0.695,1.64,2.278c-1.477,1.584-10.891,0.156-10.891,0.156
				s-1.083,7.192-3.743,8.663c-2.66,1.471-8.744,1.289-8.744,1.289l-10.265,10.296L95.841,255.651z"/>
			<path style="fill:#41405B;" d="M134.971,261.784l-12.191-0.243c-1.849-0.037-3.218-1.73-2.868-3.546l5.279-27.334
				c0.275-1.425,1.536-2.444,2.986-2.415l12.191,0.243c1.849,0.037,3.218,1.73,2.868,3.546l-5.279,27.334
				C137.682,260.793,136.422,261.813,134.971,261.784z"/>
			<path style="fill:#EAB191;" d="M136.249,243.302c0,0,0.135,1.651,4.59,1.969c4.454,0.318,5.788,1.359,6.309-0.292
				c0.521-1.651,1.404-4.364,1.562-5.607c0.159-1.244-0.382-6.535-2.666-6.672c-2.284-0.136-9.949-0.614-10.334,0.72
				c-0.385,1.334-1.901,3.775-0.793,4.906C136.024,239.458,136.249,243.302,136.249,243.302z"/>
			<path style="fill:#CC345F;" d="M92.008,266.826H78.541v4.002c4.371,1.65,9.101,2.621,14.076,2.329
				C92.616,273.157,92.222,270.351,92.008,266.826z"/>
			<path style="fill:#A43C53;" d="M103.071,248.244l2.682,13.472c0,0-16.31,8.887-21.106,7.902
				c-4.796-0.986-6.842-4.485-6.293-7.472c0.549-2.987,8.52-10.932,13.656-10.202C95.594,252.453,103.071,248.244,103.071,248.244z"
				/>
			<path style="fill:#D14965;" d="M80.374,193.373l-2.776,2.12c-2.791,2.132-5.153,4.775-6.959,7.787l-6.7,11.17
				c-1.105,1.842-1.993,3.806-2.645,5.853l-8.92,27.98c-0.461,1.445,0.035,3.014,1.221,3.959
				c6.063,4.831,20.821,20.02,38.696,18.968c0,0-2.772-19.695,2.405-20.292c0,0-9.846-0.991-15.621-1.19
				c-4.476-0.154-6.816-2.502-7.643-3.55c-0.209-0.266-0.17-0.644,0.088-0.863c1.914-1.621,9.564-8.501,12.82-17.507
				c1.602-4.43,2.431-9.975,2.855-14.864C87.821,205.749,85.32,198.636,80.374,193.373L80.374,193.373z"/>
		</g>
		<g>
			<path style="fill:#D14965;" d="M135.031,69.863c0,13.26-23.323,42.767-23.323,42.767S88.386,83.123,88.386,69.863
				c0-13.26,10.442-24.01,23.323-24.01S135.031,56.603,135.031,69.863z"/>
			<ellipse style="fill:#FEFDFD;" cx="111.709" cy="68.756" rx="12.409" ry="12.774"/>
		</g>
	</g>
	<g>
		<path style="fill:#FEFDFD;" d="M256.467,426.841V160.016c0-6.806,5.517-12.323,12.323-12.323h139.306
			c6.806,0,12.323,5.517,12.323,12.323v266.824c0,6.806-5.517,12.323-12.323,12.323H268.79
			C261.984,439.163,256.467,433.646,256.467,426.841z"/>
		<path style="fill:#41405B;" d="M402.177,134.624H274.708c-10.075,0-18.242,8.167-18.242,18.242v18.635
			c0-5.93,3.431-11.83,9.361-11.83h142.478c5.93,0,12.114,5.9,12.114,11.83v-18.635
			C420.419,142.791,412.252,134.624,402.177,134.624z"/>
		<path style="fill:#41405B;" d="M274.708,442.482h127.469c10.075,0,18.242-8.167,18.242-18.242v-18.635
			c0,5.93-4.807,10.737-10.737,10.737H267.204c-5.93,0-10.737-4.807-10.737-10.737v18.635
			C256.467,434.315,264.634,442.482,274.708,442.482z"/>
		<g>
			<defs>
				<circle id="SVGID_00000126282143098856655980000009828246170035399818_" cx="367.224" cy="223.448" r="100.572"/>
			</defs>
			<clipPath id="SVGID_00000153680819965859756890000001029644858865757107_">
				<use xlink:href="#SVGID_00000126282143098856655980000009828246170035399818_"  style="overflow:visible;"/>
			</clipPath>
			<g style="clip-path:url(#SVGID_00000153680819965859756890000001029644858865757107_);">
				<defs>
					<path id="SVGID_00000030476000619399979230000004354846556898018205_" d="M256.676,438.817V171.993
						c0-6.806,5.517-12.323,12.323-12.323h139.306c6.806,0,12.323,5.517,12.323,12.323v266.824c0,6.806-5.517,12.323-12.323,12.323
						H268.999C262.193,451.14,256.676,445.623,256.676,438.817z"/>
				</defs>
				<clipPath id="SVGID_00000055685893288717546450000000117168725465826712_">
					<use xlink:href="#SVGID_00000030476000619399979230000004354846556898018205_"  style="overflow:visible;"/>
				</clipPath>
				<path style="clip-path:url(#SVGID_00000055685893288717546450000000117168725465826712_);fill:#CDDDFA;" d="M256.676,438.817
					V171.993c0-6.806,5.517-12.323,12.323-12.323h139.306c6.806,0,12.323,5.517,12.323,12.323v266.824
					c0,6.806-5.517,12.323-12.323,12.323H268.999C262.193,451.14,256.676,445.623,256.676,438.817z"/>
				<g style="clip-path:url(#SVGID_00000055685893288717546450000000117168725465826712_);">
					<path style="fill:none;stroke:#F1F1F1;stroke-width:5;stroke-miterlimit:10;" d="M312.925,146.025
						c0.063,71.472,0.063,142.993,0,214.587"/>
					<path style="fill:none;stroke:#F1F1F1;stroke-width:5;stroke-miterlimit:10;" d="M349.251,146.025
						c-0.091,71.472-0.091,142.993,0,214.701"/>
					
						<line style="fill:none;stroke:#F1F1F1;stroke-width:5;stroke-miterlimit:10;" x1="255.13" y1="340.885" x2="429.278" y2="340.885"/>
					<polyline style="fill:none;stroke:#F1F1F1;stroke-width:5;stroke-miterlimit:10;" points="349.251,243.425 383.785,243.425 
						436.59,296.23 					"/>
					
						<line style="fill:none;stroke:#F1F1F1;stroke-width:5;stroke-miterlimit:10;" x1="349.251" y1="207.366" x2="248.716" y2="207.366"/>
					
						<ellipse transform="matrix(0.9222 -0.3866 0.3866 0.9222 -45.8021 163.6535)" style="fill:none;stroke:#F1F1F1;stroke-width:5;stroke-miterlimit:10;" cx="383.93" cy="195.688" rx="16.757" ry="16.757"/>
					
						<line style="fill:none;stroke:#F1F1F1;stroke-width:2;stroke-miterlimit:10;" x1="312.925" y1="247.988" x2="245.162" y2="247.988"/>
					
						<line style="fill:none;stroke:#F1F1F1;stroke-width:2;stroke-miterlimit:10;" x1="451.693" y1="228.572" x2="350.048" y2="228.572"/>
					
						<line style="fill:none;stroke:#F1F1F1;stroke-width:2;stroke-miterlimit:10;" x1="410.187" y1="268.286" x2="350.048" y2="268.286"/>
					
						<line style="fill:none;stroke:#F1F1F1;stroke-width:2;stroke-miterlimit:10;" x1="427.746" y1="297.899" x2="315.078" y2="297.899"/>
					<path style="fill:none;stroke:#F1F1F1;stroke-width:2;stroke-miterlimit:10;" d="M399.373,360.703
						c-0.066-20.715-0.066-42.089,0-62.804"/>
					
						<line style="fill:none;stroke:#F1F1F1;stroke-width:2;stroke-miterlimit:10;" x1="367.173" y1="195.688" x2="350.048" y2="195.688"/>
					
						<line style="fill:none;stroke:#F1F1F1;stroke-width:2;stroke-miterlimit:10;" x1="419.572" y1="195.688" x2="402.447" y2="195.688"/>
					
						<line style="fill:none;stroke:#F1F1F1;stroke-width:2;stroke-miterlimit:10;" x1="384.943" y1="178.931" x2="384.943" y2="151.013"/>
					
						<line style="fill:none;stroke:#F1F1F1;stroke-width:2;stroke-miterlimit:10;" x1="383.93" y1="243.425" x2="383.93" y2="212.444"/>
					<path style="fill:none;stroke:#F1F1F1;stroke-width:2;stroke-miterlimit:10;" d="M312.925,271.779
						c-7.336-1.668-13.09,1.62-18.023,6.552c-0.822,1.644-1.644,3.288-1.644,4.932c-0.822,25.485,0,51.792-0.396,77.329"/>
					<polyline style="fill:none;stroke:#F1F1F1;stroke-width:2;stroke-miterlimit:10;" points="312.925,217.331 279.044,237.197 
						279.044,340.885 					"/>
					
						<line style="fill:none;stroke:#F1F1F1;stroke-width:2;stroke-miterlimit:10;" x1="289.919" y1="208.87" x2="289.919" y2="152.951"/>
				</g>
				
					<rect x="274.155" y="178.931" style="clip-path:url(#SVGID_00000055685893288717546450000000117168725465826712_);fill:#A2C0F5;" width="10.754" height="22.58"/>
				<polygon style="clip-path:url(#SVGID_00000055685893288717546450000000117168725465826712_);fill:#A2C0F5;" points="
					343.592,304.408 330.233,304.408 319.48,304.408 319.48,315.162 319.48,334.18 330.233,334.18 330.233,315.162 343.592,315.162 
									"/>
				<g style="clip-path:url(#SVGID_00000055685893288717546450000000117168725465826712_);">
					<path style="fill:#A2C0F5;" d="M339.661,330.743c0,1.248-1.012,2.259-2.259,2.259c-1.248,0-2.259-1.012-2.259-2.259
						c0-1.248,1.012-2.259,2.259-2.259C338.65,328.483,339.661,329.495,339.661,330.743z"/>
				</g>
				<g style="clip-path:url(#SVGID_00000055685893288717546450000000117168725465826712_);">
					<circle style="fill:#A2C0F5;" cx="411.01" cy="217.039" r="2.259"/>
					<circle style="fill:#A2C0F5;" cx="411.01" cy="207.849" r="2.259"/>
				</g>
				<g style="clip-path:url(#SVGID_00000055685893288717546450000000117168725465826712_);">
					<circle style="fill:#A2C0F5;" cx="358.611" cy="183.526" r="2.259"/>
					<circle style="fill:#A2C0F5;" cx="358.611" cy="174.336" r="2.259"/>
				</g>
				<g style="clip-path:url(#SVGID_00000055685893288717546450000000117168725465826712_);">
					<circle style="fill:#A2C0F5;" cx="271.896" cy="328.407" r="2.259"/>
					<circle style="fill:#A2C0F5;" cx="271.896" cy="319.218" r="2.259"/>
				</g>
				
					<ellipse transform="matrix(0.7071 -0.7071 0.7071 0.7071 -25.9216 328.7949)" style="clip-path:url(#SVGID_00000055685893288717546450000000117168725465826712_);fill:#A2C0F5;" cx="383.93" cy="195.688" rx="8.991" ry="8.991"/>
				
					<rect x="358.611" y="274.647" style="clip-path:url(#SVGID_00000055685893288717546450000000117168725465826712_);fill:#A2C0F5;" width="42.26" height="15.992"/>
				
					<rect x="319.48" y="217.331" style="clip-path:url(#SVGID_00000055685893288717546450000000117168725465826712_);fill:#A2C0F5;" width="21.958" height="10.603"/>
				
					<rect x="356.194" y="213.859" style="clip-path:url(#SVGID_00000055685893288717546450000000117168725465826712_);fill:#A2C0F5;" width="6.553" height="10.603"/>
				
					<circle style="clip-path:url(#SVGID_00000055685893288717546450000000117168725465826712_);fill:#D14965;" cx="348.359" cy="228.532" r="10.246"/>
				
					<rect x="405.474" y="238.123" style="clip-path:url(#SVGID_00000055685893288717546450000000117168725465826712_);fill:#A2C0F5;" width="6.553" height="10.603"/>
				
					<rect x="319.48" y="237.385" style="clip-path:url(#SVGID_00000055685893288717546450000000117168725465826712_);fill:#A2C0F5;" width="21.958" height="10.603"/>
				
					<rect x="319.48" y="257.439" style="clip-path:url(#SVGID_00000055685893288717546450000000117168725465826712_);fill:#A2C0F5;" width="21.958" height="30.517"/>
				
					<rect x="356.194" y="304.408" style="clip-path:url(#SVGID_00000055685893288717546450000000117168725465826712_);fill:#A2C0F5;" width="36.726" height="12.551"/>
				
					<rect x="295.985" y="169.897" style="clip-path:url(#SVGID_00000055685893288717546450000000117168725465826712_);fill:#A2C0F5;" width="9.193" height="31.802"/>
				
					<rect x="295.985" y="318.478" style="clip-path:url(#SVGID_00000055685893288717546450000000117168725465826712_);fill:#A2C0F5;" width="9.193" height="15.34"/>
				
					<rect x="282.972" y="252.418" style="clip-path:url(#SVGID_00000055685893288717546450000000117168725465826712_);fill:#A2C0F5;" width="23.648" height="13.433"/>
				
					<rect x="271.147" y="212.444" style="clip-path:url(#SVGID_00000055685893288717546450000000117168725465826712_);fill:#A2C0F5;" width="7.896" height="13.433"/>
				
					<rect x="319.27" y="186.697" style="clip-path:url(#SVGID_00000055685893288717546450000000117168725465826712_);fill:#A2C0F5;" width="7.896" height="13.433"/>
				
					<rect x="333.454" y="167.533" style="clip-path:url(#SVGID_00000055685893288717546450000000117168725465826712_);fill:#A2C0F5;" width="7.896" height="32.597"/>
				<g style="clip-path:url(#SVGID_00000055685893288717546450000000117168725465826712_);">
					<path style="fill:#41405B;" d="M345.036,234.325v-11.097c0-0.934,0.757-1.691,1.691-1.691h3.785
						c0.934,0,1.691,0.757,1.691,1.691v11.097c0,0.934-0.757,1.691-1.691,1.691h-3.785
						C345.793,236.016,345.036,235.259,345.036,234.325z"/>
					<polygon style="fill:#F5F5F5;" points="346.736,228.521 345.914,225.744 351.325,225.744 350.503,228.521 					"/>
					<polygon style="fill:#F5F5F5;" points="345.914,234.324 346.736,233.256 350.503,233.256 351.325,234.324 					"/>
					<path style="fill:#F5F5F5;" d="M350.972,224.093c-0.282,0-0.51-0.229-0.51-0.511c0-0.282,0.229-0.511,0.51-0.511
						c0.282,0,0.511,0.229,0.511,0.511C351.483,223.865,351.254,224.093,350.972,224.093z"/>
					<path style="fill:#F5F5F5;" d="M346.425,224.093c-0.282,0-0.511-0.229-0.511-0.511c0-0.282,0.229-0.511,0.511-0.511
						s0.511,0.229,0.511,0.511C346.935,223.865,346.707,224.093,346.425,224.093z"/>
					
						<rect x="346.252" y="229.005" transform="matrix(-1.836970e-16 1 -1 -1.836970e-16 579.5084 -117.7306)" style="fill:#A2C0F5;" width="4.735" height="3.767"/>
				</g>
				<g style="clip-path:url(#SVGID_00000055685893288717546450000000117168725465826712_);">
					<polygon style="fill:#F5F5F5;" points="401.061,325.306 401.883,328.084 396.472,328.084 397.294,325.306 					"/>
					<polygon style="fill:#F5F5F5;" points="401.883,319.503 401.061,320.571 397.294,320.571 396.472,319.503 					"/>
					<circle style="fill:#F5F5F5;" cx="396.825" cy="330.245" r="0.511"/>
					<path style="fill:#F5F5F5;" d="M401.372,329.734c0.282,0,0.51,0.229,0.51,0.511c0,0.282-0.229,0.511-0.51,0.511
						c-0.282,0-0.511-0.229-0.511-0.511C400.862,329.963,401.09,329.734,401.372,329.734z"/>
					
						<rect x="396.81" y="321.055" transform="matrix(6.123234e-17 -1 1 6.123234e-17 76.2389 722.1161)" style="fill:#4B3270;" width="4.735" height="3.767"/>
				</g>
				<g style="clip-path:url(#SVGID_00000055685893288717546450000000117168725465826712_);">
					<path style="fill:#41405B;" d="M322.356,302.996h-11.097c-0.934,0-1.691-0.757-1.691-1.691v-3.785
						c0-0.934,0.757-1.691,1.691-1.691h11.097c0.934,0,1.691,0.757,1.691,1.691v3.785
						C324.047,302.239,323.29,302.996,322.356,302.996z"/>
					<polygon style="fill:#F5F5F5;" points="316.552,301.296 313.775,302.118 313.775,296.707 316.552,297.529 					"/>
					<polygon style="fill:#F5F5F5;" points="322.355,302.118 321.287,301.296 321.287,297.529 322.355,296.707 					"/>
					<circle style="fill:#F5F5F5;" cx="311.614" cy="297.06" r="0.511"/>
					<circle style="fill:#F5F5F5;" cx="311.614" cy="301.607" r="0.511"/>
					<rect x="316.552" y="297.529" style="fill:#A2C0F5;" width="4.735" height="3.767"/>
				</g>
			</g>
		</g>
		<g>
			<path style="fill:#D14965;" d="M291.697,391.195L291.697,391.195c0,6.45,5.229,11.679,11.679,11.679h72.135
				c6.45,0,11.679-5.229,11.679-11.679l0,0c0-6.45-5.229-11.679-11.679-11.679h-72.135
				C296.925,379.517,291.697,384.745,291.697,391.195z"/>
			<path style="fill:#A43C53;" d="M361.697,391.195L361.697,391.195c0,6.45,5.229,11.679,11.679,11.679h2.135
				c6.45,0,11.679-5.229,11.679-11.679l0,0c0-6.45-5.229-11.679-11.679-11.679h-2.135
				C366.925,379.517,361.697,384.745,361.697,391.195z"/>
			<text transform="matrix(1 0 0 1 301.5734 394.5658)" style="fill:#F1F1F1; font-family:'Quicksand-Bold'; font-size:8.9858px;">CALL NOW</text>
			<polygon style="fill:#FEFDFD;" points="370.39,391.353 376.135,394.67 376.135,388.036 370.39,391.353 376.135,394.67 
				376.135,388.036 			"/>
		</g>
		<g>
			<text transform="matrix(1 0 0 1 291.6197 364.4232)" style="fill:#A2C0F5; font-family:'Quicksand-Bold'; font-size:7.8906px;">ECONOMY </text>
			<text transform="matrix(1 0 0 1 345.4225 364.4242)" style="fill:#A2C0F5; font-family:'Quicksand-Bold'; font-size:7.8906px;">BUSINESS </text>
			<line style="fill:none;stroke:#A2C0F5;stroke-miterlimit:10;" x1="313.11" y1="347.681" x2="366.175" y2="347.681"/>
			<circle style="fill:#A2C0F5;" cx="313.11" cy="347.681" r="4.385"/>
			<path style="fill:#A2C0F5;" d="M370.729,347.681c0,2.422-1.963,4.385-4.385,4.385c-2.422,0-4.385-1.963-4.385-4.385
				s1.963-4.385,4.385-4.385C368.766,343.296,370.729,345.259,370.729,347.681z"/>
			<circle style="fill:#CDDDFA;" cx="313.11" cy="347.681" r="2.142"/>
			<path style="fill:#CDDDFA;" d="M368.509,347.681c0,1.183-0.959,2.142-2.142,2.142c-1.183,0-2.142-0.959-2.142-2.142
				c0-1.183,0.959-2.142,2.142-2.142C367.55,345.539,368.509,346.498,368.509,347.681z"/>
		</g>
		<g>
			<circle style="fill:#41405B;" cx="305.443" cy="301.917" r="22.666"/>
			<circle style="fill:#F5F5F5;" cx="305.443" cy="301.917" r="18.22"/>
			<g>
				<defs>
					<circle id="SVGID_00000026121220336791760920000007505682709543401623_" cx="305.443" cy="301.917" r="18.22"/>
				</defs>
				<clipPath id="SVGID_00000048492314595054840340000018428632808029563522_">
					<use xlink:href="#SVGID_00000026121220336791760920000007505682709543401623_"  style="overflow:visible;"/>
				</clipPath>
			</g>
		</g>
		<g>
			<path style="fill:#41405B;" d="M299.009,313.224v-22.615c0-0.934,0.757-1.691,1.691-1.691h9.487c0.934,0,1.691,0.757,1.691,1.691
				v22.615c0,0.934-0.757,1.691-1.691,1.691h-9.487C299.766,314.915,299.009,314.158,299.009,313.224z"/>
			<polygon style="fill:#F5F5F5;" points="302.061,301.458 300.585,296.471 310.3,296.471 308.824,301.458 			"/>
			<polygon style="fill:#F5F5F5;" points="300.585,311.877 302.061,309.959 308.824,309.959 310.3,311.877 			"/>
			<path style="fill:#F5F5F5;" d="M309.667,293.507c-0.506,0-0.917-0.41-0.917-0.917c0-0.506,0.41-0.917,0.917-0.917
				c0.506,0,0.917,0.41,0.917,0.917C310.584,293.097,310.173,293.507,309.667,293.507z"/>
			<path style="fill:#F5F5F5;" d="M301.502,293.507c-0.506,0-0.917-0.41-0.917-0.917c0-0.506,0.41-0.917,0.917-0.917
				c0.506,0,0.917,0.41,0.917,0.917C302.419,293.097,302.008,293.507,301.502,293.507z"/>
			
				<rect x="301.192" y="302.327" transform="matrix(-1.836970e-16 1 -1 -1.836970e-16 611.1514 0.266)" style="fill:#A2C0F5;" width="8.501" height="6.763"/>
		</g>
	</g>
</g>
</svg>
