<svg width="602" height="347" viewBox="0 0 602 347" fill="none" xmlns="http://www.w3.org/2000/svg">
<path opacity="0.5" d="M149.747 227.388C113.386 214.822 71.8114 204.185 37.8394 222.243C33.5339 224.531 29.2913 227.413 26.9715 231.7C20.844 242.98 30.5836 257.608 25.8367 269.531C21.0899 281.453 3.22451 287.456 4.68702 300.192C5.07156 303.521 6.87449 306.535 8.99892 309.133C22.3065 325.393 46.7028 327.039 67.323 323.004C87.9432 318.969 108.109 310.602 129.102 311.655C149.274 312.695 167.833 322.373 186.316 330.52C217.477 344.29 253.869 354.17 285.004 340.33C299.27 333.987 311.065 323.187 324.719 315.646C343.12 305.577 364.272 301.695 385.048 304.574C398.917 306.529 412.155 311.447 425.727 314.839C456.554 322.537 488.729 322.285 520.494 321.982C526.407 321.926 532.415 321.856 538.082 320.167C546.473 317.645 553.395 311.838 560.058 306.157C568.814 298.698 578.037 290.501 580.861 279.348C584.196 266.107 577.293 252.034 567.055 243.037C556.818 234.039 543.731 229.121 530.959 224.38C527.807 223.22 524.441 222.041 521.213 222.917C519.095 223.497 517.311 224.91 515.729 226.429C506.664 235.155 499.004 249.916 486.642 247.545C482.229 246.7 478.617 243.629 475.125 240.792C456.478 225.66 431.395 213.977 408.889 222.337C392.43 228.453 380.812 244.159 364.131 249.701C352.267 253.648 339.376 251.939 326.894 252.709C308.739 253.818 291.069 260.237 272.888 259.846C226.529 258.85 187.905 214.513 141.735 218.737C138.116 219.065 134.17 219.897 131.951 222.76" fill="#E05D51"/>
<path d="M91.4818 184.626C91.4818 184.626 52.7503 207.965 124.173 243.912C124.173 243.912 139.91 214.747 122.513 190.965C115.525 181.375 102.456 178.516 92.0902 184.31L91.4818 184.626Z" fill="#E05D51"/>
<path d="M91.1221 185.005C91.1221 185.005 123.296 210.343 122.398 244.833" stroke="#535461"/>
<path d="M578.682 165.951C586.486 194.576 553.196 276.127 553.196 276.127C553.196 276.127 483.15 222.93 475.339 194.305C469.778 175.621 474.74 155.382 488.305 141.417C501.871 127.452 521.912 121.952 540.675 127.045C559.439 132.137 573.981 147.024 578.676 165.945L578.682 165.951Z" fill="#E05D51"/>
<path opacity="0.1" d="M578.682 165.951C586.486 194.576 553.196 276.127 553.196 276.127C553.196 276.127 483.15 222.93 475.339 194.305C469.778 175.621 474.74 155.382 488.305 141.417C501.871 127.452 521.912 121.952 540.675 127.045C559.439 132.137 573.981 147.024 578.676 165.945L578.682 165.951Z" fill="black"/>
<path d="M512.676 127.939C512.676 127.939 556.259 193.306 553.001 274.286" stroke="#535461"/>
<path d="M589.644 218.004C589.644 218.004 549.453 196.75 554.541 275.207C554.541 275.207 588.067 274.042 599.967 247.456C604.783 236.753 600.6 224.241 590.233 218.334L589.644 218.004Z" fill="#E05D51"/>
<path d="M590.912 218.141C590.912 218.141 585.703 260.181 555.016 277.048" stroke="#535461"/>
<path d="M10.4944 208.582C10.4944 208.582 -28.2588 231.915 43.1754 267.843C43.1754 267.843 58.9137 238.678 41.5147 214.896C34.5263 205.306 21.4566 202.447 11.0902 208.241L10.4944 208.582Z" fill="#E05D51"/>
<path d="M11.9656 208.936C11.9656 208.936 44.1394 234.274 43.2416 268.764" stroke="#535461"/>
<path fill-rule="evenodd" clip-rule="evenodd" d="M450.213 239.387H490.684C491.638 239.387 492.554 239.769 493.227 240.449C493.9 241.128 494.274 242.049 494.268 243.006V245.905C494.268 251.235 492.156 256.347 488.397 260.116C484.638 263.885 479.54 266.003 474.225 266.003H87.234C76.1645 266.003 67.191 257.005 67.191 245.905V243.006C67.1859 242.05 67.5613 241.131 68.234 240.453C68.9067 239.775 69.8212 239.393 70.775 239.393H112.675C111.744 237.515 111.261 235.446 111.264 233.349V48.5618C111.264 41.0587 117.33 34.9761 124.813 34.9761H438.075C445.558 34.9761 451.624 41.0587 451.624 48.5618V233.343C451.627 235.44 451.144 237.509 450.213 239.387ZM237.828 246.935L241.317 250.882L320.141 250.888L323.984 246.935H237.828Z" fill="url(#paint0_linear)"/>
<rect x="115.053" y="37.7374" width="333.194" height="207.095" rx="23.26" fill="#535461"/>
<rect x="123.337" y="67.191" width="318.467" height="169.358" fill="white"/>
<path d="M282.11 56.1459C283.381 56.1459 284.411 55.1157 284.411 53.8448C284.411 52.574 283.381 51.5438 282.11 51.5438C280.839 51.5438 279.809 52.574 279.809 53.8448C279.809 55.1157 280.839 56.1459 282.11 56.1459Z" fill="white"/>
<path d="M330.225 236.549L319.291 248.092H242.194L232.312 236.549H75.2992C73.3628 236.549 71.7931 238.164 71.7931 240.156V243.063C71.7931 254.207 80.5735 263.241 91.4047 263.241H470.054C475.255 263.241 480.244 261.115 483.922 257.331C487.6 253.547 489.666 248.415 489.666 243.063V240.156C489.666 238.164 488.096 236.549 486.16 236.549H330.225Z" fill="#535461"/>
<path d="M163.836 78.2361V222.743H402.225" stroke="#535461" stroke-width="2"/>
<rect opacity="0.5" x="184.085" y="178.562" width="24.8515" height="37.7374" fill="#E05D51"/>
<rect opacity="0.7" x="226.424" y="145.427" width="24.8515" height="71.7931" fill="#E05D51"/>
<rect opacity="0.5" x="268.764" y="165.676" width="24.8515" height="51.5438" fill="#E05D51"/>
<rect opacity="0.8" x="311.104" y="134.382" width="24.8515" height="82.8382" fill="#E05D51"/>
<rect x="351.602" y="104.008" width="24.8515" height="113.212" fill="#E05D51"/>
<path d="M196.05 155.552L238.86 117.169L280.97 153.455L322.379 109.492L364.488 92.0424" stroke="#535461" stroke-width="2"/>
<path d="M196.511 161.074C199.306 161.074 201.573 158.808 201.573 156.012C201.573 153.216 199.306 150.95 196.511 150.95C193.715 150.95 191.448 153.216 191.448 156.012C191.448 158.808 193.715 161.074 196.511 161.074Z" fill="#E05D51"/>
<path d="M279.349 156.472C282.145 156.472 284.411 154.206 284.411 151.41C284.411 148.614 282.145 146.347 279.349 146.347C276.553 146.347 274.286 148.614 274.286 151.41C274.286 154.206 276.553 156.472 279.349 156.472Z" fill="#E05D51"/>
<path d="M323.529 114.133C326.325 114.133 328.591 111.866 328.591 109.07C328.591 106.274 326.325 104.008 323.529 104.008C320.733 104.008 318.467 106.274 318.467 109.07C318.467 111.866 320.733 114.133 323.529 114.133Z" fill="#E05D51"/>
<path d="M238.85 122.416C241.646 122.416 243.913 120.15 243.913 117.354C243.913 114.558 241.646 112.292 238.85 112.292C236.054 112.292 233.788 114.558 233.788 117.354C233.788 120.15 236.054 122.416 238.85 122.416Z" fill="#E05D51"/>
<path d="M364.948 97.565C367.744 97.565 370.011 95.2985 370.011 92.5026C370.011 89.7068 367.744 87.4403 364.948 87.4403C362.152 87.4403 359.886 89.7068 359.886 92.5026C359.886 95.2985 362.152 97.565 364.948 97.565Z" fill="#E05D51"/>
<path d="M548.074 243.134C545.498 242.283 541.679 241.299 538.651 241.646C535.768 240.593 528.99 237.864 524.36 233.754C524.494 229.712 524.391 225.667 524.052 221.638C521.684 194.613 527.011 176.798 527.011 176.798C527.011 176.798 531.195 163.207 530.736 151.929C531.006 152.44 531.157 152.743 531.157 152.743C531.521 143.016 534.826 132.948 537.301 126.676C537.395 126.649 537.487 126.615 537.577 126.575L540.341 119.994C540.561 119.61 540.736 119.202 540.862 118.777L541.308 117.737L541.176 117.681C541.22 117.51 541.264 117.327 541.308 117.145C543.073 109.649 544.449 91.8725 544.449 91.8725C549.186 73.1626 537.941 61.614 537.941 61.614L518.857 45.1357C518.952 45.3502 519.016 45.5774 519.046 45.8102L518.889 45.6715C518.619 44.8961 518.323 43.9694 518.034 42.9104C518.708 42.4254 519.338 41.8833 519.919 41.2903C522.089 39.2339 523.581 36.5617 524.197 33.6311C524.567 31.3393 524.662 29.0113 524.479 26.6969L524.165 18.7477C524.151 17.192 523.993 15.6409 523.694 14.1143C522.256 7.81049 515.817 3.39778 509.353 3.1078C507.296 3.09579 505.241 3.20524 503.197 3.43561C501.525 3.5734 499.847 3.60919 498.172 3.54277C497.981 3.55292 497.792 3.50216 497.631 3.39778C497.486 3.25217 497.402 3.0555 497.399 2.84935C497.332 2.10377 497.573 1.36333 498.065 0.800591C498.318 0.578043 498.612 0.408696 498.932 0.302585L498.473 0.409751C498.699 0.230843 498.954 0.0922422 499.227 0C497.551 0.295637 495.94 0.882282 494.465 1.73356C494.059 2.00145 493.686 2.31674 493.353 2.67284C492.475 3.44628 491.904 4.51166 491.745 5.67348C490.958 5.00665 490.371 4.13375 490.049 3.15193C489.949 2.75046 489.949 2.33046 490.049 1.92898C489.936 2.06767 489.827 2.21055 489.723 2.35764C489.723 2.31352 489.723 2.26939 489.723 2.22526C488.509 3.72271 487.649 5.47729 487.21 7.35661C486.868 6.94553 486.705 6.41415 486.758 5.8815C486.663 6.17779 486.575 6.47407 486.494 6.77035C486.465 6.57386 486.465 6.37427 486.494 6.17779C485.754 8.45044 485.42 10.8363 485.507 13.2255C485.507 15.6084 486.563 19.3213 489.107 20.1598C489.239 20.2039 489.371 20.2354 489.509 20.2669C486.603 24.7975 486.159 30.4903 488.328 35.4193C490.497 40.3484 494.988 43.8543 500.282 44.7511C500.324 45.0411 500.364 45.3458 500.402 45.6652H500.502C500.571 46.2956 500.628 46.989 500.665 47.695C500.023 48.3263 499.32 48.8922 498.567 49.3845C496.432 50.6514 494.049 51.4426 491.582 51.7043C488.636 51.9363 485.772 52.7959 483.183 54.2258C480.137 55.9342 476.776 58.4242 475.721 61.4501C473.962 66.4931 464.275 74.3415 457.78 75.3186L455.468 75.1862L455.299 75.1357V75.1799L454.733 75.1483H454.702H454.551V75.1799L453.967 75.1483C453.967 75.1483 453.91 75.4194 453.829 75.8985C450.562 74.7701 443.621 71.6434 434.588 63.4169C424.537 54.2574 410.937 56.0603 405.691 57.2139C405.326 57.2948 405.049 57.5945 404.996 57.9662C404.943 58.3379 405.125 58.7037 405.453 58.8844C407.57 60.0506 410.849 61.7463 412.363 61.9355C412.363 61.9355 409.222 65.2324 412.564 66.9785C413.381 67.3751 414.351 67.2803 415.076 66.7327C416.697 65.5413 421.201 68.2393 427.728 69.6451C427.728 69.6451 446.146 88.771 455.292 91.7086C455.503 92.1263 455.736 92.5324 455.99 92.9252L456.555 92.8811V92.9252H456.794L456.863 93.5556C456.863 93.5556 471.085 92.8055 475.708 87.6237C476.035 87.3296 476.336 87.0068 476.606 86.6592L471.662 149.067H471.706L471.662 149.66H475.3C475.611 157.336 475.281 165.024 474.313 172.644V213.329C474.313 213.329 474.125 216.91 481.537 222.154C489.309 227.584 496.799 233.41 503.976 239.61L504.874 240.392C503.511 252.842 500.659 276.046 498.278 276.91L499.748 277.168C497.236 280.364 490.099 289.146 487.926 289.379C485.262 289.675 483.485 293.836 487.926 294.725C496.794 296.265 505.912 295.363 514.309 292.115C516.033 291.432 517.07 289.658 516.822 287.815L515.961 281.259C516.124 281.35 516.256 281.489 516.338 281.657C516.929 283.441 516.338 279.28 516.338 279.28C518.772 271.431 520.684 263.428 522.061 255.325L530.855 262.953C530.855 262.953 531.031 262.732 531.339 262.323C533.494 267.227 537.338 277.263 536.478 284.613C535.297 294.699 546.528 285.798 545.354 279.86C544.399 275.056 548.671 254.695 550.335 247.08C550.707 245.376 549.728 243.668 548.074 243.134Z" fill="url(#paint1_linear)"/>
<path d="M454.291 77.3168C454.291 77.3168 445.978 75.8305 433.651 64.2376C423.898 55.0679 410.743 56.8708 405.67 58.0275C405.316 58.1069 405.047 58.4062 404.996 58.778C404.944 59.1497 405.121 59.5154 405.439 59.6947C407.49 60.8579 410.668 62.5574 412.157 62.7513C412.157 62.7513 409.085 66.047 412.351 67.8111C413.148 68.2172 414.098 68.1222 414.806 67.5655C416.376 66.3765 420.739 69.0777 427.064 70.4799C427.064 70.4799 451.718 96.9356 457.451 92.4509L454.291 77.3168Z" fill="#FEC3BE"/>
<path d="M498.87 43.616C498.87 43.616 501.252 53.3586 498.87 60.2357L509.59 61.6684L519.119 57.0837V51.0662C519.119 51.0662 514.653 41.8967 515.844 31.2944L498.87 43.616Z" fill="#FEC3BE"/>
<path d="M528.324 258.68C528.324 258.68 535.969 273.619 534.771 283.578C533.573 293.538 544.735 284.75 543.563 278.892C542.613 274.154 546.844 254.057 548.494 246.581C548.864 244.907 547.906 243.225 546.277 242.69C542.753 241.531 536.854 240.111 533.892 242.282C529.515 245.498 528.324 258.68 528.324 258.68Z" fill="#8B416F"/>
<path d="M498.953 273.333C498.953 273.333 489.295 286.341 486.739 286.637C484.182 286.933 482.478 291.072 486.739 291.959C495.246 293.5 503.996 292.611 512.056 289.388C513.717 288.714 514.719 286.946 514.483 285.107L512.853 272.446L498.953 273.333Z" fill="#8B416F"/>
<path d="M482.656 138.064L473.212 139.332C474.508 150.441 474.47 161.667 473.099 172.767V212.715C473.099 212.715 472.916 216.234 480.169 221.351C487.775 226.677 495.105 232.391 502.131 238.472L528.411 261.401C528.411 261.401 538.838 248.567 537.39 240.983C537.39 240.983 520.012 235.441 517.695 226.399C516.367 221.225 509.63 216.887 504.114 214.161C496.97 210.667 493.209 202.632 495.079 194.859C495.401 193.548 495.899 192.287 496.558 191.112C501.193 182.945 507.854 164.569 507.854 164.569L495.11 140.105L482.656 138.064Z" fill="#4D4981"/>
<path opacity="0.05" d="M482.656 138.064L473.212 139.332C474.508 150.441 474.47 161.667 473.099 172.767V212.715C473.099 212.715 472.916 216.234 480.169 221.351C487.775 226.677 495.105 232.391 502.131 238.472L528.411 261.401C528.411 261.401 538.838 248.567 537.39 240.983C537.39 240.983 520.012 235.441 517.695 226.399C516.367 221.225 509.63 216.887 504.114 214.161C496.97 210.667 493.209 202.632 495.079 194.859C495.401 193.548 495.899 192.287 496.558 191.112C501.193 182.945 507.854 164.569 507.854 164.569L495.11 140.105L482.656 138.064Z" fill="black"/>
<path d="M496.233 274.719C496.233 274.719 513.478 277.628 514.062 279.374C514.647 281.12 514.062 277.046 514.062 277.046C514.062 277.046 524 247.077 521.687 220.606C519.375 194.135 524.61 176.671 524.61 176.671C524.61 176.671 530.749 156.885 527.241 145.538C523.734 134.19 486.905 139.137 486.905 139.137C486.905 139.137 499.765 169.106 499.473 183.363C499.473 183.363 500.935 226.425 503.565 231.372C503.54 231.346 499.448 273.536 496.233 274.719Z" fill="#4D4981"/>
<path d="M498.456 51.5438C498.456 51.5438 500.168 62.2028 517.279 57.6006L505.896 145.274C505.896 145.274 472.815 146.428 473.1 142.39L479.92 89.327L498.456 51.5438Z" fill="white"/>
<path opacity="0.1" d="M499.765 50.6233C497.518 52.8618 494.59 54.2682 491.455 54.6153C488.591 54.8373 485.807 55.6741 483.288 57.0699C480.33 58.7464 477.034 61.182 476.034 64.1491C474.02 69.9693 461.363 79.5727 455.61 77.5356L457.624 94.9963C457.624 94.9963 474.02 94.1233 476.897 87.721L472.013 150.029H476.328C476.328 150.029 478.629 133.15 480.355 129.658C482.081 126.166 485.533 106.959 485.82 102.303C486.108 97.647 490.423 70.874 494.162 66.2431L499.79 52.42L499.765 50.6233Z" fill="black"/>
<path opacity="0.1" d="M498.87 51.5438C496.331 53.5657 493.294 54.8382 490.092 55.2221C487.264 55.4476 484.516 56.2835 482.031 57.6743C479.109 59.3406 475.853 61.7614 474.865 64.7104C472.876 70.4951 460.373 80.04 454.69 78.0153L456.679 95.3695C456.679 95.3695 472.876 94.5018 475.717 88.1386L470.887 150.029H475.149C475.149 150.029 477.422 133.253 479.127 129.783C480.832 126.312 484.242 107.222 484.526 102.594C484.81 97.9664 489.073 71.3565 492.767 66.7539L498.87 53.2729V51.5438Z" fill="black"/>
<path d="M498.864 50.6233C496.325 52.6447 493.289 53.9169 490.088 54.3007C487.26 54.5214 484.511 55.3528 482.023 56.7398C479.102 58.4056 475.847 60.8258 474.859 63.774C472.871 69.5573 460.371 79.0997 454.69 77.0755L456.678 94.4254C456.678 94.4254 472.871 93.5579 475.712 87.1963L470.888 149.109H475.15C475.15 149.109 477.422 132.337 479.127 128.867C480.831 125.397 484.24 106.313 484.524 101.686C484.808 97.0593 489.069 70.4562 492.762 65.8547L498.87 52.4086L498.864 50.6233Z" fill="#FD6F8D"/>
<path opacity="0.1" d="M513.831 39.7846C513.473 37.0771 514.189 35.388 514.517 32.2149L498.87 44.4978C498.87 44.4978 499.246 46.1558 499.532 48.5838C500.322 48.7165 501.12 48.7829 501.919 48.7825C507.35 48.7825 511.259 44.3674 513.831 39.7846Z" fill="black"/>
<path d="M501.171 47.8621C509.559 47.8621 516.358 41.0626 516.358 32.6751C516.358 24.2875 509.559 17.4881 501.171 17.4881C492.784 17.4881 485.984 24.2875 485.984 32.6751C485.984 41.0626 492.784 47.8621 501.171 47.8621Z" fill="#FEC3BE"/>
<path opacity="0.1" d="M484.158 16.2356C484.058 13.6088 484.484 10.9885 485.412 8.52892C484.879 9.32913 485.018 10.3998 485.738 11.0372C486.24 8.35654 487.617 5.91773 489.652 4.10183C488.542 4.28368 487.971 5.65695 488.247 6.74805C488.622 7.81377 489.289 8.75252 490.173 9.45698C490.079 7.80779 491.17 6.26521 492.55 5.36223C493.988 4.53661 495.559 3.96791 497.192 3.68169C496.04 4.09035 495.309 5.22341 495.41 6.44079C495.415 6.64192 495.499 6.83318 495.642 6.97379C495.799 7.07404 495.984 7.12232 496.169 7.11175C497.795 7.17436 499.422 7.13877 501.043 7.00515C503.036 6.78091 505.04 6.67412 507.046 6.68534C513.318 6.94871 519.622 11.2316 521.027 17.3455C521.318 18.8289 521.472 20.3361 521.485 21.8478L521.793 29.567C521.971 31.819 521.878 34.0843 521.517 36.3142C520.637 40.4822 517.944 44.041 514.171 46.0212C511.907 42.7417 511.706 38.5278 510.922 34.6212C510.799 33.7196 510.463 32.8601 509.944 32.1129C509.394 31.3556 508.425 31.0286 507.529 31.2977C506.682 31.6363 506.318 32.9281 507.021 33.505C506.394 34.2449 505.221 33.6931 504.512 33.0347C502.532 31.1575 501.17 28.7237 500.604 26.0554C500.322 24.7135 500.04 23.058 498.722 22.6003C498.269 22.4758 497.796 22.4438 497.33 22.5062C494.582 22.6943 490.286 23.8293 487.626 22.9577C485.186 22.1613 484.158 18.5494 484.158 16.2356Z" fill="black"/>
<path d="M485.078 16.2356C484.978 13.6088 485.405 10.9885 486.332 8.52892C485.799 9.32913 485.939 10.3998 486.659 11.0372C487.161 8.35654 488.537 5.91773 490.573 4.10183C489.462 4.28368 488.892 5.65695 489.168 6.74805C489.543 7.81377 490.21 8.75252 491.093 9.45698C490.999 7.80779 492.091 6.26521 493.471 5.36223C494.908 4.53661 496.479 3.96791 498.112 3.68169C496.961 4.09035 496.229 5.22341 496.331 6.44079C496.336 6.64192 496.419 6.83318 496.563 6.97379C496.72 7.07404 496.904 7.12232 497.09 7.11175C498.715 7.17436 500.343 7.13877 501.964 7.00515C503.956 6.78091 505.961 6.67412 507.966 6.68534C514.239 6.94871 520.543 11.2316 521.948 17.3455C522.239 18.8289 522.392 20.3361 522.406 21.8478L522.713 29.567C522.891 31.819 522.799 34.0843 522.437 36.3142C521.557 40.4822 518.864 44.041 515.092 46.0212C512.827 42.7417 512.627 38.5278 511.843 34.6212C511.719 33.7196 511.384 32.8601 510.864 32.1129C510.314 31.3556 509.346 31.0286 508.449 31.2977C507.602 31.6363 507.239 32.9281 507.941 33.505C507.314 34.2449 506.141 33.6931 505.432 33.0347C503.453 31.1575 502.09 28.7237 501.524 26.0554C501.242 24.7135 500.96 23.058 499.643 22.6003C499.19 22.4758 498.716 22.4438 498.25 22.5062C495.503 22.6943 491.206 23.8293 488.547 22.9577C486.107 22.1551 485.078 18.5494 485.078 16.2356Z" fill="#784F69"/>
<path opacity="0.1" d="M454.326 77.3156C454.326 77.3156 452.237 87.5203 456.153 93.8833L458.371 93.6912L457.163 77.4837L454.326 77.3156Z" fill="black"/>
<path d="M455.246 77.3156C455.246 77.3156 453.158 87.5203 457.073 93.8833L459.292 93.6912L458.083 77.4837L455.246 77.3156Z" fill="#FD6F8D"/>
<path opacity="0.1" d="M516.511 47.8621L535.44 64.0286C535.44 64.0286 546.592 75.3888 541.896 93.74C541.896 93.74 539.842 120.539 537.494 121.704C537.494 121.704 529.277 138.016 528.69 153.454C528.69 153.454 517.685 131.462 512.696 144.861C507.707 158.26 496.109 160.154 496.109 160.154L502.565 80.898C502.565 80.898 518.859 52.7886 516.511 47.8621Z" fill="black"/>
<path d="M517.432 47.8621L536.361 64.0277C536.361 64.0277 547.512 75.3873 542.817 93.7374C542.817 93.7374 540.763 120.534 538.415 121.7C538.415 121.7 530.198 138.011 529.611 153.448C529.611 153.448 518.019 130.292 513.023 143.691C508.028 157.089 497.029 160.154 497.029 160.154L503.486 80.9341C503.486 80.9341 519.779 52.7884 517.432 47.8621Z" fill="#FD6F8D"/>
<path d="M525.32 115.622C525.32 115.622 529.971 112.443 537.528 121.112L518.926 154.631L512.676 145.253C512.676 145.253 525.901 119.378 525.32 115.622Z" fill="#FEC3BE"/>
<path opacity="0.1" d="M520.96 118.115C520.96 118.115 530.946 129.577 534.841 127.74L538.448 119.156L524.911 113.212L520.96 118.115Z" fill="black"/>
<path d="M520.96 117.195C520.96 117.195 530.946 128.656 534.841 126.819L538.448 118.236L524.911 112.292L520.96 117.195Z" fill="#FD6F8D"/>
<path opacity="0.1" d="M512.621 143.586C512.621 143.586 517.461 153.454 520.04 154.025L516.293 158.313L510.836 148.023L512.621 143.586Z" fill="black"/>
<path d="M512.632 144.507C512.632 144.507 517.464 154.374 520.04 154.946L516.298 159.233L510.836 148.925L512.632 144.507Z" fill="#4D4981"/>
<path opacity="0.1" d="M522.735 83.7586C522.735 83.7586 523.327 103.841 520.96 111.371L522.735 83.7586Z" fill="black"/>
<path opacity="0.1" d="M475.859 84.679C475.859 84.679 479.541 83.6271 479.541 80.9973L475.859 84.679Z" fill="black"/>
<path d="M51.4488 89.2812C51.4488 89.2812 33.7505 123.708 45.3739 164.45C56.9972 205.191 53.305 253.943 41.7154 266.003" stroke="#535461" stroke-width="2"/>
<path d="M53.3846 92.9629C55.9263 92.9629 57.9867 90.9024 57.9867 88.3607C57.9867 85.8191 55.9263 83.7586 53.3846 83.7586C50.8429 83.7586 48.7825 85.8191 48.7825 88.3607C48.7825 90.9024 50.8429 92.9629 53.3846 92.9629Z" fill="#E05D51"/>
<path d="M44.1804 111.573C44.1804 111.573 61.6292 114.477 66.2706 108.61" stroke="#535461" stroke-width="2"/>
<path d="M45.1007 121.496C45.1007 121.496 34.4111 110.564 34.9995 104.008" stroke="#535461" stroke-width="2"/>
<path d="M43.26 142.555C43.26 142.555 52.4037 144.991 60.7481 127.019" stroke="#535461" stroke-width="2"/>
<path d="M45.1008 157.393C45.1008 157.393 22.308 142.286 25.0863 132.541" stroke="#535461" stroke-width="2"/>
<path d="M48.7825 173.96C48.7825 173.96 65.0892 160.042 63.3843 146.347" stroke="#535461" stroke-width="2"/>
<path d="M49.703 184.085C49.703 184.085 28.8353 178.351 29.4677 169.358" stroke="#535461" stroke-width="2"/>
<path d="M51.5438 197.891C51.5438 197.891 64.5723 185.311 66.2706 177.642" stroke="#535461" stroke-width="2"/>
<path d="M52.4642 217.22C52.4642 217.22 39.2228 201.351 38.6578 193.289" stroke="#535461" stroke-width="2"/>
<path d="M52.4642 231.027C52.4642 231.027 67.0143 214.201 68.1114 206.175" stroke="#535461" stroke-width="2"/>
<path d="M33.1353 108.61C35.677 108.61 37.7374 106.55 37.7374 104.008C37.7374 101.466 35.677 99.4058 33.1353 99.4058C30.5936 99.4058 28.5332 101.466 28.5332 104.008C28.5332 106.55 30.5936 108.61 33.1353 108.61Z" fill="#E05D51"/>
<path d="M29.4536 174.881C31.9952 174.881 34.0557 172.82 34.0557 170.279C34.0557 167.737 31.9952 165.676 29.4536 165.676C26.9119 165.676 24.8514 167.737 24.8514 170.279C24.8514 172.82 26.9119 174.881 29.4536 174.881Z" fill="#E05D51"/>
<path d="M23.931 137.143C26.4727 137.143 28.5331 135.083 28.5331 132.541C28.5331 129.999 26.4727 127.939 23.931 127.939C21.3893 127.939 19.3289 129.999 19.3289 132.541C19.3289 135.083 21.3893 137.143 23.931 137.143Z" fill="#E05D51"/>
<path d="M67.191 113.212C69.7327 113.212 71.7931 111.152 71.7931 108.61C71.7931 106.068 69.7327 104.008 67.191 104.008C64.6493 104.008 62.5889 106.068 62.5889 108.61C62.5889 111.152 64.6493 113.212 67.191 113.212Z" fill="#E05D51"/>
<path d="M67.191 182.244C69.7327 182.244 71.7931 180.184 71.7931 177.642C71.7931 175.1 69.7327 173.04 67.191 173.04C64.6493 173.04 62.5889 175.1 62.5889 177.642C62.5889 180.184 64.6493 182.244 67.191 182.244Z" fill="#E05D51"/>
<path d="M59.8276 130.7C62.3693 130.7 64.4297 128.64 64.4297 126.098C64.4297 123.556 62.3693 121.496 59.8276 121.496C57.2859 121.496 55.2255 123.556 55.2255 126.098C55.2255 128.64 57.2859 130.7 59.8276 130.7Z" fill="#E05D51"/>
<path d="M69.0318 213.538C71.5735 213.538 73.6339 211.478 73.6339 208.936C73.6339 206.395 71.5735 204.334 69.0318 204.334C66.4901 204.334 64.4297 206.395 64.4297 208.936C64.4297 211.478 66.4901 213.538 69.0318 213.538Z" fill="#E05D51"/>
<path d="M37.7374 201.573C40.2791 201.573 42.3395 199.513 42.3395 196.971C42.3395 194.429 40.2791 192.369 37.7374 192.369C35.1957 192.369 33.1353 194.429 33.1353 196.971C33.1353 199.513 35.1957 201.573 37.7374 201.573Z" fill="#E05D51"/>
<path d="M63.5092 150.95C66.0509 150.95 68.1113 148.889 68.1113 146.347C68.1113 143.806 66.0509 141.745 63.5092 141.745C60.9675 141.745 58.9071 143.806 58.9071 146.347C58.9071 148.889 60.9675 150.95 63.5092 150.95Z" fill="#E05D51"/>
<defs>
<linearGradient id="paint0_linear" x1="494.25" y1="265.977" x2="494.25" y2="34.9698" gradientUnits="userSpaceOnUse">
<stop stop-color="#808080" stop-opacity="0.25"/>
<stop offset="0.54" stop-color="#808080" stop-opacity="0.12"/>
<stop offset="1" stop-color="#808080" stop-opacity="0.1"/>
</linearGradient>
<linearGradient id="paint1_linear" x1="550.446" y1="295.424" x2="550.446" y2="-0.0378282" gradientUnits="userSpaceOnUse">
<stop stop-color="#808080" stop-opacity="0.25"/>
<stop offset="0.54" stop-color="#808080" stop-opacity="0.12"/>
<stop offset="1" stop-color="#808080" stop-opacity="0.1"/>
</linearGradient>
</defs>
</svg>
