<svg xmlns="http://www.w3.org/2000/svg" width="1916" height="1689" viewBox="0 0 1916 1689" fill="none"><g clip-path="url(#clip0_22_124)"><path d="M1032.27 250.01C1032.94 266.17 1031.04 321.87 1002.82 365.38C978.039 403.58 936.099 412.64 893.199 413C833.939 413.5 774.369 412.56 715.139 411.03C701.649 410.68 688.079 409.66 674.909 407.44C648.389 432.36 611.629 447.57 576.379 449.34C570.429 449.64 558.499 444.11 567.579 438.38C589.359 424.64 605.719 406.45 617.309 385.14C613.629 382.48 608.339 378.31 602.739 372.49C573.459 342.06 570.289 302.56 568.809 284.1C567.129 263.23 563.939 223.47 587.049 186.82C595.119 174.01 615.659 146.91 674.769 126.89C809.979 81.0901 998.639 122.61 1026.55 209.32C1031.19 223.73 1031.9 240.96 1032.27 250.01Z" fill="white"></path><path d="M560.61 444.84C560.07 443.14 559.47 438.77 565.44 435.01C584.85 422.77 600.54 406.38 612.1 386.26C607.75 382.89 603.64 379.21 599.85 375.27C569.59 343.81 566.36 303.71 564.81 284.43C563.07 262.76 559.841 222.47 583.651 184.69C638.001 98.5 841.21 78.37 961.22 138.79C997.77 157.19 1021.67 181.15 1030.35 208.1C1035.16 223.04 1035.87 240.48 1036.26 249.85C1037.02 249.85 1038.38 317.89 1006.17 367.56C977.821 411.27 928.13 416.71 893.23 417C840.8 417.44 784.181 416.81 715.031 415.03C700.591 414.65 687.86 413.57 676.18 411.71C649.58 436.01 612.5 451.54 576.57 453.34C571.06 453.57 562.4 450.51 560.61 444.84ZM568.48 442.72C569.62 443.88 573.5 445.59 576.18 445.35C610.93 443.61 646.81 428.35 672.17 404.53C675.43 401.45 677.49 406.06 715.24 407.03C784.3 408.81 840.84 409.44 893.17 409C945.71 408.56 979.49 394.01 999.47 363.21C1030.57 315.25 1028.39 252.82 1028.28 250.18C1027.91 241.19 1027.23 224.46 1022.75 210.56C1014.75 185.7 992.231 163.36 957.641 145.94C842.281 87.87 642.28 106.73 590.43 188.96C568.04 224.48 571.13 263.05 572.8 283.78C574.28 302.14 577.34 340.33 605.63 369.73C609.91 374.18 614.63 378.28 619.66 381.92C621.29 383.1 621.79 385.31 620.83 387.08C599.75 425.8 570.78 440.4 568.49 442.73L568.48 442.72Z" fill="#A3C8DA"></path><path d="M416.199 444.3L280.229 413.57C280.229 413.57 225.019 392.06 215.429 463.76C205.839 535.46 192.529 615.64 90.2792 603.78C-11.9608 591.92 0.58916 715.98 0.58916 715.98C0.58916 715.98 9.84915 878.4 207.929 890.38C406.009 902.36 601.089 707.54 601.089 707.54L416.199 444.3Z" fill="#0E2531"></path><path d="M821.329 348.09C905.906 348.09 974.469 279.527 974.469 194.95C974.469 110.373 905.906 41.8101 821.329 41.8101C736.753 41.8101 668.189 110.373 668.189 194.95C668.189 279.527 736.753 348.09 821.329 348.09Z" fill="#CA0000"></path><path d="M793.581 348.09C876.987 348.09 944.601 280.476 944.601 197.07C944.601 113.664 876.987 46.05 793.581 46.05C710.175 46.05 642.561 113.664 642.561 197.07C642.561 280.476 710.175 348.09 793.581 348.09Z" fill="white"></path><path d="M793.581 352.09C708.101 352.09 638.561 282.55 638.561 197.07C638.561 111.59 708.101 42.05 793.581 42.05C879.061 42.05 948.601 111.59 948.601 197.07C948.601 282.55 879.061 352.09 793.581 352.09ZM793.581 50.05C712.511 50.05 646.561 116 646.561 197.07C646.561 278.14 712.511 344.09 793.581 344.09C874.651 344.09 940.601 278.14 940.601 197.07C940.601 116 874.651 50.05 793.581 50.05Z" fill="#CA0000"></path><path d="M802.529 279.86C755.489 285.7 732.179 264.48 728.319 233.32L758.479 229.57C759.689 239.32 765.979 247.98 777.179 252.02C789.589 256.49 814.609 253.49 825.269 243.3C830.829 237.98 833.189 231.95 832.359 225.19C831.599 219.06 828.299 214.33 822.459 210.99C811.909 204.95 796.499 206.39 783.889 206.8C752.309 207.98 728.349 195.07 724.429 163.45C721.819 142.43 730.119 126.58 747.129 116.96C764.219 107.3 793.089 103.4 812.389 109.69C832.629 116.3 843.549 132.29 846.189 153.59L816.029 157.34C814.249 142.97 802.509 131.26 781.769 133.84C752.359 137.49 748.639 161.74 762.889 173.51C771.249 180.41 784.439 178.6 796.379 178.21C829.739 176.96 858.679 188.55 862.759 221.41C867.179 257 838.569 275.38 802.539 279.86H802.529ZM766.959 120.6L762.689 86.19L790.259 82.77L794.529 117.18L766.959 120.6ZM791.599 311.36L787.329 276.95L814.899 273.53L819.169 307.94L791.599 311.36Z" fill="#CA0000"></path><path d="M524.92 640.51C573.37 631.65 645.57 631.23 687.13 646.24C733.28 662.92 754.04 703.09 791.1 768.49C816.96 814.13 855.7 880.8 907.62 963.88C965.58 885.61 1023.54 807.33 1081.5 729.06C1113.44 716.99 1148.86 727.24 1167.54 752.96C1182.93 774.15 1184.89 803.02 1172.92 827.65C1169.68 863.64 1161.54 916.6 1138.86 976.43C1122.16 1020.47 1055.24 1197.01 947.06 1214.84C848.07 1231.15 713.34 1114.77 657.19 918.6L624.41 731.27L524.94 640.52L524.92 640.51Z" fill="white"></path><path d="M928.351 1220.33C882.321 1220.33 830.531 1195.19 783.271 1149.26C725.901 1093.51 679.751 1011.98 653.341 919.69L620.701 733.3L522.241 643.47C519.801 641.25 520.971 637.18 524.221 636.58C546.791 632.45 569.861 630.32 592.801 630.26C622.911 630.26 660.191 632.25 688.501 642.49C737.591 660.23 759.281 704.09 794.591 766.53C829.621 828.37 867.731 892.36 907.911 956.79C1079.34 725.27 1078.34 725.99 1080.09 725.33C1113.5 712.71 1150.79 723.1 1170.78 750.62C1186.91 772.84 1189.21 802.71 1176.84 828.74C1172.15 880.12 1160.64 930.29 1142.6 977.85C1105.27 1076.34 1034.23 1220.34 928.361 1220.34L928.351 1220.33ZM661.081 917.69C718.591 1118.35 853.941 1226.11 946.401 1210.89C1033.94 1196.47 1097.34 1074.66 1135.11 975.01C1167.39 889.87 1167.02 830.65 1169.31 825.9C1180.75 802.37 1178.83 775.33 1164.29 755.31C1146.64 730.99 1113.77 721.66 1083.99 732.4L910.831 966.26C909.121 968.57 905.691 968.34 904.221 966C862.841 899.79 823.611 834 787.611 770.46C752.631 708.57 731.191 666.42 685.761 650C645.131 635.32 576.731 636.14 533.651 643.06L627.081 728.3C627.741 728.89 628.171 729.69 628.331 730.56L661.081 917.68V917.69Z" fill="#0E2531"></path><path d="M420.955 523.277L328.047 540.547L360.328 714.213L453.236 696.943L420.955 523.277Z" fill="white"></path><path d="M360.369 718.18C358.479 718.18 356.799 716.84 356.439 714.91L324.149 541.25C323.749 539.08 325.179 536.99 327.349 536.59L420.259 519.31C422.519 518.91 424.529 520.41 424.919 522.51L457.209 696.17C457.609 698.35 456.179 700.43 454.009 700.83L360.369 718.17V718.18ZM332.749 543.72L363.579 709.51L448.619 693.7L417.789 527.9L332.749 543.72Z" fill="#0E2531"></path><path d="M484.35 489.86C476.29 480.43 460.4 480.7 448.19 490.17C433.6 430.29 360.42 414.29 316.66 450.1C293.85 468.77 285.88 491.53 290.54 518.55C276.42 515.16 262.65 520.64 258.7 531.81C254.41 543.96 263.37 558.21 278.71 563.63C289.23 567.35 300.01 565.95 307.14 560.8C327.43 593.77 361.45 619.05 390.55 613.63C419.65 608.21 442.88 572.28 449.22 534.22C457.78 536.63 468.52 534.09 477.11 526.74C489.48 516.16 492.72 499.65 484.35 489.85V489.86Z" fill="white"></path><path d="M382.379 618.39C353.099 618.39 323.409 593.01 305.869 566.27C297.749 570.4 287.229 570.89 277.389 567.42C259.989 561.26 249.919 544.7 254.939 530.49C258.979 519.08 271.709 512.43 285.819 513.74C282.669 485.93 293.399 463.97 314.139 447.02C357.859 411.24 432.159 424.52 450.589 483.79C463.709 476.34 479.069 477.52 487.399 487.27C504.299 507.04 480.689 542.19 452.439 538.93C445.139 575.49 419.809 618.4 382.389 618.4L382.379 618.39ZM310.549 558.72C331.929 593.45 364.469 614.42 389.819 609.71C415.389 604.95 438.719 572.93 445.279 533.57C445.669 531.22 448.009 529.73 450.309 530.37C464.129 534.27 481.589 522.51 484.589 507.24C488.279 488.49 467.729 480.08 450.649 493.33C449.579 494.16 448.159 494.39 446.879 493.95C443.269 492.68 445.039 489.64 440.059 478.41C419.059 430.93 356.309 422.84 319.199 453.2C297.489 470.95 290.079 492.36 294.489 517.88C294.989 520.74 292.369 523.12 289.609 522.45C277.319 519.5 265.679 524.11 262.469 533.15C258.919 543.2 266.809 555.19 280.039 559.87C288.979 563.02 298.469 562.14 304.789 557.57C306.689 556.2 309.329 556.75 310.539 558.71L310.549 558.72Z" fill="#0E2531"></path><path d="M374.789 613.75C374.789 613.75 401.989 633.97 438.479 617.3L432.229 583.67C432.229 583.67 408.419 616.64 374.789 613.74V613.75Z" fill="#0E2531"></path><path d="M390.68 660.46C390.68 660.46 138.61 730.85 135.03 805.24C131.44 879.63 362.68 1199.6 362.68 1199.6H751.66C751.66 1199.6 705.95 682.64 687.13 646.25C668.31 609.86 390.68 660.47 390.68 660.47V660.46Z" fill="#1F4B61"></path><path d="M362.68 1199.6C343.19 1222.47 316.92 1256.9 292.77 1302.67C257.52 1369.46 244.89 1426.07 231.82 1486.7C221.1 1536.42 210.08 1604.75 207.92 1687.46C445.33 1687.86 682.74 1688.26 920.15 1688.65L751.65 1199.59H362.67L362.68 1199.6Z" fill="#0E2531"></path><path d="M227.22 721.39C207.29 729.07 178.9 743.25 154.86 770.2C113.77 816.27 104.09 878.69 113.63 997.85C129.13 1191.45 136.89 1288.26 188.93 1323.3C280.45 1384.92 484.77 1299.03 671.11 1092.85C658.56 1054.01 646.01 1015.17 633.47 976.34C530.1 1019.36 426.73 1062.38 323.36 1105.4C291.31 977.39 259.26 849.39 227.22 721.38V721.39Z" fill="white"></path><path d="M261.941 1347.18C232.871 1347.18 207.361 1340.54 186.701 1326.62C133.061 1290.5 125.241 1192.82 109.651 998.21C99.7008 874 110.761 813.65 151.881 767.53C171.181 745.89 196.041 729.11 225.781 717.65C228.031 716.79 230.511 718.08 231.101 720.41L326.121 1099.92L631.941 972.64C634.101 971.73 636.561 972.88 637.281 975.1L674.921 1091.61C675.361 1092.97 675.041 1094.46 674.081 1095.52C532.431 1252.24 371.781 1347.16 261.941 1347.16V1347.18ZM224.451 726.79C197.771 737.72 175.381 753.2 157.851 772.86C118.411 817.08 107.881 875.88 117.621 997.52C133.011 1189.61 140.731 1286.01 191.171 1319.98C235.391 1349.76 307.001 1344.39 392.791 1304.86C482.121 1263.69 579.291 1188.1 666.591 1091.88L630.991 981.7L324.891 1109.09C322.601 1110.04 320.061 1108.72 319.481 1106.37L224.451 726.79Z" fill="#0E2531"></path><path d="M291.64 693.86C291.64 693.86 123.08 732.64 100.37 842.59C77.6701 952.53 100.37 1187.95 100.37 1187.95C180.44 1157.28 260.5 1126.61 340.57 1095.93C324.26 961.91 307.95 827.88 291.64 693.86Z" fill="#1F4B61"></path><path d="M468.881 647.89C500.651 637.97 550.531 626.36 611.981 628.93C643.261 630.24 668.971 631.1 697.881 643.62C741.691 662.59 764.471 695.77 797.071 744.6C848.491 821.64 887.701 881.89 913.591 921.99C847.471 971.21 781.341 1020.43 715.221 1069.65C648.101 943.38 580.981 817.1 513.861 690.83C498.871 676.52 483.881 662.21 468.891 647.9L468.881 647.89Z" fill="#1F4B61"></path><path d="M291.641 693.86L416.661 921.79L463.661 809.73L568.821 868.88L515.501 636.15C291.251 691.47 344.771 674.16 291.641 693.87V693.86Z" fill="#0E2531"></path><path d="M346.149 637.69L352.169 670.09L322.119 682.55L463.659 809.72L468.879 647.88L445.739 650.78C443.629 641.27 441.519 631.76 439.399 622.24" fill="white"></path><path d="M460.989 812.7L319.449 685.53C317.259 683.57 317.879 679.99 320.589 678.86L347.649 667.64L342.219 638.42C341.819 636.25 343.249 634.16 345.419 633.76C347.579 633.34 349.679 634.79 350.079 636.96L356.099 669.36C356.439 671.22 355.439 673.06 353.699 673.79L329.509 683.82L459.929 801L464.719 652.43L446.219 654.75C444.129 654.98 442.259 653.66 441.819 651.65L435.479 623.11C434.999 620.95 436.359 618.82 438.519 618.34C440.659 617.89 442.809 619.22 443.289 621.38L448.839 646.36L468.369 643.91C470.849 643.61 472.939 645.58 472.859 648.01L467.639 809.85C467.539 813.25 463.469 814.95 460.969 812.7H460.989Z" fill="#0E2531"></path><path d="M278.28 517.83C278.28 517.83 294.87 539.21 316.38 522.85C337.89 506.49 361.19 440.47 361.19 440.47C361.19 440.47 407.11 530.11 464.52 483.2C464.52 483.2 432.6 407.31 401.82 386.1C371.05 364.89 337.29 401.64 337.29 401.64C337.29 401.64 268.28 399.25 251.85 414.79C235.42 430.33 278.29 517.85 278.29 517.85L278.28 517.83Z" fill="#0E2531"></path><path d="M491.591 910.71C504.133 910.71 514.301 900.542 514.301 888C514.301 875.458 504.133 865.29 491.591 865.29C479.048 865.29 468.881 875.458 468.881 888C468.881 900.542 479.048 910.71 491.591 910.71Z" fill="#0E2531"></path><path d="M1866.07 839.25L1276.75 800.55L1329.05 4.21997C1497.32 15.27 1665.6 26.32 1833.87 37.37C1860 70.15 1886.14 102.94 1912.27 135.72C1896.87 370.23 1881.47 604.74 1866.07 839.25Z" fill="white"></path><path d="M1866.08 843.25L1276.5 804.54C1274.3 804.4 1272.62 802.49 1272.77 800.29L1325.06 3.97002C1325.2 1.88002 1326.95 0.130026 1329.31 0.240026L1834.13 33.39C1835.25 33.46 1836.29 34.01 1837 34.89L1915.4 133.24C1916.95 135.18 1916.44 133.37 1870.06 839.52C1869.92 841.64 1868.16 843.26 1866.07 843.26L1866.08 843.25ZM1281.01 796.81L1862.34 834.99L1908.18 137L1831.84 41.25L1332.77 8.48002L1281 796.82L1281.01 796.81Z" fill="#0E2531"></path><path d="M1833.87 37.3701L1827.66 131.97L1912.16 137.52L1833.87 37.3701Z" fill="#0E2531"></path><path d="M1744.04 130.48L1471.45 112.59C1469.25 112.45 1467.57 110.54 1467.72 108.34C1467.87 106.13 1469.79 104.5 1471.97 104.61L1744.29 122.5C1746.49 122.64 1748.17 124.55 1748.02 126.75C1747.88 128.87 1746.12 130.49 1744.03 130.49L1744.04 130.48Z" fill="#0E2531"></path><path d="M1846.47 232.61L1377.57 201.83C1375.37 201.69 1373.69 199.78 1373.84 197.58C1373.99 195.37 1375.88 193.76 1378.09 193.85L1846.72 224.62C1848.92 224.76 1850.6 226.67 1850.45 228.87C1850.31 230.99 1848.55 232.61 1846.46 232.61H1846.47Z" fill="#0E2531"></path><path d="M1843.18 282.7L1374.28 251.91C1372.08 251.77 1370.4 249.86 1370.55 247.66C1370.69 245.45 1372.66 243.85 1374.8 243.93L1843.43 274.71C1845.63 274.85 1847.31 276.76 1847.16 278.96C1847.02 281.08 1845.26 282.7 1843.17 282.7H1843.18Z" fill="#0E2531"></path><path d="M1839.89 332.78L1370.99 301.99C1368.79 301.85 1367.11 299.94 1367.26 297.74C1367.41 295.53 1369.34 293.88 1371.51 294.01L1840.14 324.79C1842.34 324.93 1844.02 326.84 1843.87 329.04C1843.73 331.16 1841.97 332.78 1839.88 332.78H1839.89Z" fill="#0E2531"></path><path d="M1836.6 382.86L1367.7 352.07C1365.5 351.93 1363.82 350.02 1363.97 347.82C1364.12 345.61 1366.02 344.02 1368.22 344.09L1836.85 374.87C1839.05 375.01 1840.73 376.92 1840.58 379.12C1840.44 381.24 1838.68 382.86 1836.59 382.86H1836.6Z" fill="#0E2531"></path><path d="M1833.31 432.95L1364.41 402.17C1362.21 402.03 1360.53 400.12 1360.68 397.92C1360.82 395.71 1362.71 394.07 1364.93 394.19L1833.56 424.96C1835.76 425.1 1837.44 427.01 1837.29 429.21C1837.15 431.33 1835.39 432.95 1833.3 432.95H1833.31Z" fill="#0E2531"></path><path d="M1830.02 483.03L1361.12 452.24C1358.92 452.1 1357.24 450.19 1357.39 447.99C1357.53 445.78 1359.48 444.19 1361.64 444.26L1830.27 475.04C1832.47 475.18 1834.15 477.09 1834 479.29C1833.86 481.41 1832.1 483.03 1830.01 483.03H1830.02Z" fill="#0E2531"></path><path d="M1826.73 533.11L1357.83 502.32C1355.63 502.18 1353.95 500.27 1354.1 498.07C1354.25 495.86 1356.17 494.22 1358.35 494.34L1826.98 525.12C1829.18 525.26 1830.86 527.17 1830.71 529.37C1830.57 531.49 1828.81 533.11 1826.72 533.11H1826.73Z" fill="#0E2531"></path><path d="M1823.44 583.2L1354.54 552.41C1352.34 552.27 1350.66 550.36 1350.81 548.16C1350.95 545.95 1352.85 544.36 1355.06 544.43L1823.69 575.21C1825.89 575.35 1827.57 577.26 1827.42 579.46C1827.28 581.58 1825.52 583.2 1823.43 583.2H1823.44Z" fill="#0E2531"></path><path d="M1820.16 633.28L1351.26 602.5C1349.06 602.36 1347.38 600.45 1347.53 598.25C1347.67 596.04 1349.64 594.41 1351.78 594.52L1820.41 625.29C1822.61 625.43 1824.29 627.34 1824.14 629.54C1824 631.66 1822.24 633.28 1820.15 633.28H1820.16Z" fill="#0E2531"></path><path d="M1816.87 683.36L1347.97 652.57C1345.77 652.43 1344.09 650.52 1344.24 648.32C1344.39 646.11 1346.31 644.53 1348.49 644.59L1817.12 675.37C1819.32 675.51 1821 677.42 1820.85 679.62C1820.71 681.74 1818.95 683.36 1816.86 683.36H1816.87Z" fill="#0E2531"></path><path d="M1813.58 733.45L1344.68 702.66C1342.48 702.52 1340.8 700.61 1340.95 698.41C1341.1 696.2 1343 694.57 1345.2 694.68L1813.83 725.46C1816.03 725.6 1817.71 727.51 1817.56 729.71C1817.42 731.83 1815.66 733.45 1813.57 733.45H1813.58Z" fill="#0E2531"></path><path d="M1734.33 673.92L1696.19 230.15C1694.68 212.61 1679.24 199.61 1661.7 201.12L1136.8 246.24C1119.26 247.75 1106.26 263.19 1107.77 280.73L1170.65 1012.32C1172.16 1029.86 1187.6 1042.86 1205.14 1041.35L1799.26 990.28C1816.8 988.77 1829.8 973.33 1828.29 955.79L1809.28 734.67C1808.02 719.99 1796.86 708.09 1782.3 705.88L1761.3 702.7C1746.74 700.49 1735.58 688.59 1734.32 673.91L1734.33 673.92Z" fill="#1F4B61"></path><path d="M1594.98 278.864L1211.58 311.8L1228.57 509.542L1611.97 476.606L1594.98 278.864Z" fill="white"></path><path d="M1228.6 513.47C1226.55 513.47 1224.79 511.89 1224.62 509.81L1207.62 312.07C1207.43 309.87 1209.06 307.93 1211.26 307.74L1594.65 274.79C1596.89 274.57 1598.79 276.24 1598.98 278.43L1615.98 476.17C1616.17 478.38 1614.53 480.31 1612.34 480.5L1228.6 513.47ZM1215.93 315.37L1232.24 505.14L1607.67 472.87L1591.35 283.1L1215.93 315.37Z" fill="#0E2531"></path><path d="M1309.67 372.11C1307.62 372.11 1305.87 370.54 1305.69 368.45C1305.5 366.25 1307.13 364.31 1309.33 364.12L1507.64 347.08C1509.87 346.85 1511.78 348.53 1511.97 350.72C1512.16 352.92 1510.53 354.86 1508.33 355.05L1309.67 372.11Z" fill="#0E2531"></path><path d="M1269.44 421.15C1267.39 421.15 1265.64 419.58 1265.46 417.49C1265.27 415.29 1266.9 413.35 1269.1 413.16L1551.31 388.9C1553.54 388.68 1555.45 390.35 1555.64 392.54C1555.83 394.74 1554.2 396.68 1552 396.87L1269.44 421.14V421.15Z" fill="#0E2531"></path><path d="M1058.78 759.73L1097.82 699.98C1102.99 676.72 1114.32 641.26 1137.84 630.66C1142.02 628.78 1145.16 628.32 1160.95 622.11C1182.02 613.82 1190.1 609.26 1193.81 612.55C1197.38 615.72 1194.69 624.2 1193.21 628.68C1193.21 628.68 1186.59 648.79 1147.2 681.65L1145.41 758.94" fill="white"></path><path d="M1058.78 763.73C1055.66 763.73 1053.68 760.23 1055.44 757.54L1094.08 698.4C1100.11 671.62 1112.29 637.78 1136.2 627.01C1138.15 626.13 1139.84 625.56 1142.39 624.69C1177.62 612.65 1189.16 603.08 1196.48 609.55C1202.1 614.53 1198.8 624.55 1197.03 629.93C1196.75 630.79 1189.76 651.02 1151.18 683.55L1149.43 759.03C1149.38 761.24 1147.51 762.92 1145.34 762.94C1143.13 762.89 1141.38 761.06 1141.43 758.85L1143.22 681.56C1143.25 680.41 1143.77 679.32 1144.66 678.58C1182.35 647.13 1189.37 627.6 1189.44 627.4C1192.69 617.53 1191.46 615.79 1191.18 615.54C1189.67 614.78 1181.68 618.03 1173.97 621.18C1142.5 634.04 1145.95 631.41 1139.5 634.3C1118.39 643.81 1107.32 675.73 1101.74 700.84C1101.49 701.94 1101.95 700.99 1062.14 761.91C1061.37 763.09 1060.09 763.72 1058.79 763.72L1058.78 763.73Z" fill="#0E2531"></path><path d="M234.219 1191.95C231.469 1191.95 229.509 1189.21 230.459 1186.58C245.889 1144.16 305.339 1110.46 318.889 1103.22C284.809 919.31 223.119 823.02 222.499 822.06C221.299 820.21 221.819 817.73 223.669 816.52C225.529 815.32 228.009 815.84 229.209 817.69C229.839 818.66 293.009 917.15 327.299 1104.68C327.619 1106.42 326.749 1108.17 325.169 1108.97C324.459 1109.33 253.969 1145.34 237.979 1189.31C237.389 1190.93 235.859 1191.94 234.219 1191.94V1191.95Z" fill="#0E2531"></path><path d="M726.93 929.3C724.88 929.3 723.13 927.73 722.95 925.65C709.85 777.39 668.08 703.7 667.66 702.98C666.55 701.07 667.21 698.62 669.12 697.52C671.03 696.41 673.48 697.07 674.58 698.97C675.01 699.71 717.65 774.72 730.92 924.95C731.13 927.29 729.28 929.3 726.93 929.3Z" fill="#0E2531"></path><path d="M592.73 992.56L633.47 976.34C633.47 976.34 671.14 936.99 691.24 929.23C711.34 921.46 717.011 902.94 723.581 913.69C730.151 924.45 728.66 944.16 706.25 963.88C706.25 963.88 762.42 951.63 782.13 936.99C801.85 922.35 820.37 900.84 827.54 910.7C834.71 920.56 811.71 999.43 801.25 1014.67C790.79 1029.91 691.23 1074.42 691.23 1074.42L641.24 1124.73" fill="white"></path><path d="M641.239 1128.73C637.719 1128.73 635.89 1124.44 638.4 1121.91C689.4 1070.59 688.529 1071.25 689.599 1070.77C729.209 1053.06 790.75 1022.91 797.96 1012.41C809.19 996.05 829.119 920.82 824.299 913.04C820.479 907.8 800.32 928.48 784.52 940.21C764.34 955.19 709.429 967.29 707.109 967.79C703.089 968.68 700.529 963.6 703.609 960.88C723.429 943.44 726.209 925.66 720.169 915.78C719.449 914.6 719.03 914.36 719.03 914.36C716.49 915.14 707.279 927.32 692.679 932.96C673.639 940.32 636.729 978.73 636.359 979.11C635.419 980.09 636.469 979.45 594.199 996.28C592.129 997.11 589.819 996.1 588.999 994.05C588.179 992 589.179 989.67 591.229 988.85L631.179 972.95C636.319 967.64 670.279 933.04 689.789 925.5C706.159 919.17 711.739 905.31 720.329 906.49C729.629 907.82 739.329 931.33 718.699 956.76C736.329 952.23 766.729 943.45 779.749 933.78C797.779 920.39 812.98 902.87 824.02 904.28C826.74 904.6 829.08 906.01 830.78 908.35C840.31 921.45 813.669 1003.65 804.549 1016.93C793.979 1032.34 706.619 1071.91 693.549 1077.77L644.079 1127.55C643.299 1128.34 642.269 1128.73 641.239 1128.73Z" fill="#0E2531"></path><path d="M862.199 1073.64C860.059 1073.64 858.289 1071.94 858.209 1069.79C856.379 1020.44 902.569 963.73 904.529 961.34C905.939 959.63 908.459 959.39 910.159 960.79C911.869 962.19 912.109 964.72 910.709 966.42C910.249 966.98 864.489 1023.19 866.199 1069.49C866.279 1071.76 864.469 1073.64 862.199 1073.64Z" fill="#0E2531"></path><path d="M1209.46 1434.19H1077.24V1688.66H1209.46V1434.19Z" fill="#A3C8DA"></path><path d="M1406.79 1332.71H1274.57V1688.66H1406.79V1332.71Z" fill="#A3C8DA"></path><path d="M1604.13 1247.35H1471.91V1688.66H1604.13V1247.35Z" fill="#A3C8DA"></path><path d="M1800.45 1129.75H1668.23V1688.66H1800.45V1129.75Z" fill="#A3C8DA"></path></g><defs><clipPath id="clip0_22_124"><rect width="1916" height="1689" fill="white"></rect></clipPath></defs></svg>