<svg xmlns="http://www.w3.org/2000/svg" width="1947" height="1753" viewBox="0 0 1947 1753" fill="none"><g clip-path="url(#clip0_12_378)"><path d="M980.68 297.34V203.19H900.8C896.95 189.11 891.4 175.74 884.38 163.29L940.79 106.88L874.22 40.3099L818 96.5299C805.51 89.3899 792.07 83.7299 777.91 79.7999V0.409912H683.76V79.7999C669.6 83.7299 656.17 89.3799 643.67 96.5299L587.45 40.3099L520.88 106.88L577.29 163.29C570.27 175.74 564.72 189.11 560.87 203.19H480.99V297.34H561.26C565.18 311.24 570.76 324.45 577.79 336.74L520.88 393.65L587.45 460.22L644.54 403.13C656.78 410.04 669.93 415.51 683.75 419.35V500.11H777.9V419.35C791.73 415.51 804.87 410.03 817.11 403.13L874.2 460.22L940.77 393.65L883.86 336.74C890.89 324.45 896.47 311.25 900.39 297.34H980.66H980.68ZM730.84 342.73C679.48 342.73 637.69 300.94 637.69 249.58C637.69 198.22 679.48 156.43 730.84 156.43C782.2 156.43 823.99 198.22 823.99 249.58C823.99 300.94 782.2 342.73 730.84 342.73Z" fill="#A7BCFB"></path><path d="M1714.26 1597.2H833.28L847.23 1506.71H1700.31L1714.26 1597.2Z" fill="#353535"></path><path d="M1756.2 1748.57H1698.72L1609.88 1104.22H1655.34L1756.2 1748.57Z" fill="#353535"></path><path d="M848.82 1748.57H791.34L892.2 1104.22H937.66L848.82 1748.57Z" fill="#353535"></path><path d="M1826.81 1442.82H673.43C643.98 1442.82 621.08 1417.19 624.39 1387.92L748.2 293.8C751.02 268.85 772.13 250 797.24 250H1893.53C1921.97 250 1944.52 273.97 1942.79 302.35L1876.07 1396.47C1874.48 1422.51 1852.9 1442.82 1826.81 1442.82Z" fill="white"></path><path d="M1826.81 1446.82H673.43C641.61 1446.82 616.84 1419.09 620.42 1387.47L744.23 293.35C747.29 266.36 770.08 246 797.24 246H1893.53C1924.3 246 1948.65 271.88 1946.78 302.59L1880.06 1396.71C1878.35 1424.8 1854.96 1446.81 1826.81 1446.81V1446.82ZM797.24 254C774.15 254 754.78 271.3 752.18 294.25L628.37 1388.37C625.33 1415.25 646.38 1438.82 673.43 1438.82H1826.81C1850.74 1438.82 1870.62 1420.11 1872.08 1396.23L1938.8 302.11C1940.39 276 1919.69 254 1893.53 254H797.24Z" fill="#353535"></path><path d="M1779.43 1328.23H1330.93C1312.02 1328.23 1297.18 1312.02 1298.83 1293.18L1331.77 919.2C1333.24 902.57 1347.17 889.81 1363.87 889.81H1804.84C1823.49 889.81 1838.25 905.6 1836.99 924.21L1811.58 1298.19C1810.43 1315.1 1796.38 1328.23 1779.43 1328.23Z" fill="#A7BCFB"></path><path d="M1465.85 1250.95H1373.23L1386.91 1093.05H1478.85L1465.85 1250.95Z" fill="white"></path><path d="M1604.09 1250.95H1511.47L1529.13 1030.73H1620.8L1604.09 1250.95Z" fill="white"></path><path d="M1742.34 1250.95H1649.71L1669.8 978.59H1761.24L1742.34 1250.95Z" fill="white"></path><path d="M1832.03 483.12C1835.04 440.22 1838.03 397.46 1841.02 354.86C1793.94 362.56 1746.82 370.26 1699.68 377.96C1707.84 384.44 1716 390.93 1724.17 397.42L1567.41 551.2L1482.42 473.24L1234.12 691.03L1306.95 758.79L1473.51 611.93L1563.32 694.8L1802.04 459.31C1812.03 467.25 1822.02 475.19 1832.02 483.14L1832.03 483.12Z" fill="#353535"></path><path d="M1024.09 688.89C1111.7 688.89 1182.72 617.869 1182.72 530.26C1182.72 442.651 1111.7 371.63 1024.09 371.63C936.481 371.63 865.46 442.651 865.46 530.26C865.46 617.869 936.481 688.89 1024.09 688.89Z" fill="#353535"></path><path d="M995.34 688.89C1081.74 688.89 1151.78 618.849 1151.78 532.45C1151.78 446.051 1081.74 376.01 995.34 376.01C908.941 376.01 838.9 446.051 838.9 532.45C838.9 618.849 908.941 688.89 995.34 688.89Z" fill="white"></path><path d="M995.34 692.89C906.87 692.89 834.9 620.92 834.9 532.45C834.9 443.98 906.87 372.01 995.34 372.01C1083.81 372.01 1155.78 443.98 1155.78 532.45C1155.78 620.92 1083.81 692.89 995.34 692.89ZM995.34 380.01C911.29 380.01 842.9 448.4 842.9 532.45C842.9 616.5 911.28 684.89 995.34 684.89C1079.4 684.89 1147.78 616.51 1147.78 532.45C1147.78 448.39 1079.4 380.01 995.34 380.01Z" fill="#353535"></path><path d="M1012.26 611.06C967.26 619.87 943.35 600.96 937.52 571.16L966.37 565.51C968.2 574.84 974.85 582.77 985.93 585.91C998.2 589.39 1022.14 584.8 1031.74 574.25C1036.75 568.75 1038.62 562.76 1037.36 556.3C1036.21 550.44 1032.71 546.09 1026.85 543.26C1016.26 538.15 1001.49 540.57 989.36 541.82C958.97 545.08 934.99 534.25 929.07 504.01C925.13 483.9 932.07 468.06 947.84 457.62C963.68 447.15 991.27 441.44 1010.32 446.21C1030.3 451.22 1041.91 465.91 1045.9 486.29L1017.05 491.94C1014.36 478.19 1002.25 467.69 982.41 471.57C954.28 477.08 952.32 500.72 966.87 511.12C975.4 517.22 988.01 514.58 999.5 513.39C1031.6 509.93 1060.31 519.16 1066.46 550.6C1073.12 584.64 1046.76 604.31 1012.29 611.05L1012.26 611.06ZM967.2 459.8L960.76 426.89L987.13 421.73L993.57 454.64L967.2 459.8ZM1003.84 642.2L997.4 609.29L1023.77 604.13L1030.21 637.04L1003.84 642.2Z" fill="#353535"></path><path d="M1202.14 919.5H768.7C766.49 919.5 764.7 917.71 764.7 915.5C764.7 913.29 766.49 911.5 768.7 911.5H1202.14C1204.35 911.5 1206.14 913.29 1206.14 915.5C1206.14 917.71 1204.35 919.5 1202.14 919.5Z" fill="#353535"></path><path d="M1196.54 969.06H763.1C760.89 969.06 759.1 967.27 759.1 965.06C759.1 962.85 760.89 961.06 763.1 961.06H1196.54C1198.75 961.06 1200.54 962.85 1200.54 965.06C1200.54 967.27 1198.75 969.06 1196.54 969.06Z" fill="#353535"></path><path d="M1190.94 1018.62H757.46C755.25 1018.62 753.46 1016.83 753.46 1014.62C753.46 1012.41 755.25 1010.62 757.46 1010.62H1190.94C1193.15 1010.62 1194.94 1012.41 1194.94 1014.62C1194.94 1016.83 1193.15 1018.62 1190.94 1018.62Z" fill="#353535"></path><path d="M1185.34 1068.18H751.86C749.65 1068.18 747.86 1066.39 747.86 1064.18C747.86 1061.97 749.65 1060.18 751.86 1060.18H1185.34C1187.55 1060.18 1189.34 1061.97 1189.34 1064.18C1189.34 1066.39 1187.55 1068.18 1185.34 1068.18Z" fill="#353535"></path><path d="M1179.74 1117.74H746.26C744.05 1117.74 742.26 1115.95 742.26 1113.74C742.26 1111.53 744.05 1109.74 746.26 1109.74H1179.74C1181.95 1109.74 1183.74 1111.53 1183.74 1113.74C1183.74 1115.95 1181.95 1117.74 1179.74 1117.74Z" fill="#353535"></path><path d="M1174.1 1167.3H740.66C738.45 1167.3 736.66 1165.51 736.66 1163.3C736.66 1161.09 738.45 1159.3 740.66 1159.3H1174.1C1176.31 1159.3 1178.1 1161.09 1178.1 1163.3C1178.1 1165.51 1176.31 1167.3 1174.1 1167.3Z" fill="#353535"></path><path d="M1168.5 1216.86H735.06C732.85 1216.86 731.06 1215.07 731.06 1212.86C731.06 1210.65 732.85 1208.86 735.06 1208.86H1168.5C1170.71 1208.86 1172.5 1210.65 1172.5 1212.86C1172.5 1215.07 1170.71 1216.86 1168.5 1216.86Z" fill="#353535"></path><path d="M1162.9 1266.42H729.42C727.21 1266.42 725.42 1264.63 725.42 1262.42C725.42 1260.21 727.21 1258.42 729.42 1258.42H1162.9C1165.11 1258.42 1166.9 1260.21 1166.9 1262.42C1166.9 1264.63 1165.11 1266.42 1162.9 1266.42Z" fill="#353535"></path><path d="M1157.3 1315.94H723.82C721.61 1315.94 719.82 1314.15 719.82 1311.94C719.82 1309.73 721.61 1307.94 723.82 1307.94H1157.3C1159.51 1307.94 1161.3 1309.73 1161.3 1311.94C1161.3 1314.15 1159.51 1315.94 1157.3 1315.94Z" fill="#353535"></path><path d="M1003.17 835.27C1003.17 835.27 1040.74 795.21 1059.9 787.5C1079.06 779.79 1152.21 821.59 1150.47 839.75C1148.73 857.91 1116.38 847.96 1088.76 825.32L1037.8 855.1L1003.17 835.27Z" fill="white"></path><path d="M1037.8 859.1C1036.17 859.1 1037.36 859.46 1001.18 838.75C998.93 837.46 998.49 834.42 1000.25 832.54C1001.81 830.88 1038.65 791.75 1058.4 783.79C1073.75 777.61 1112.49 796.83 1133.41 812.46C1148.08 823.42 1155.16 832.74 1154.45 840.14C1153.92 845.66 1151 849.79 1146.22 851.77C1132.41 857.53 1107.07 844.88 1088.4 830.17C1038.1 859.56 1039.48 859.1 1037.8 859.1ZM1009.6 834.35L1037.78 850.48L1086.74 821.87C1088.19 821.03 1090 821.17 1091.29 822.23C1113.44 840.39 1135.06 847.75 1143.14 844.38C1144.52 843.81 1146.15 842.72 1146.47 839.37C1146.77 836.29 1142.26 829.08 1128.61 818.87C1104.6 800.92 1071.31 787.21 1061.38 791.21C1046.56 797.17 1019.27 824.39 1009.59 834.35H1009.6Z" fill="#353535"></path><path d="M1050.16 822.28L1086.27 834.28C1086.27 834.28 1133.05 845.73 1142 866.63C1150.96 887.53 1159.91 924.6 1144.99 925.68C1132.58 926.57 1127.06 907.06 1125.55 900.44C1127.03 907.89 1131 932.34 1119.61 933.82C1106.17 935.56 1099.21 906.45 1099.21 906.45C1084.9 935.06 1064.38 924.86 1064.38 924.86L1048.11 953.13C1020.46 949.38 997.01 933.09 989.73 910.93C979.15 878.67 1002.94 834.31 1050.16 822.3V822.28Z" fill="white"></path><path d="M1047.57 957.08C1017.75 953.04 993.56 935.41 985.93 912.16C974.84 878.36 998.97 831.18 1049.17 818.41C1050.82 817.99 1049.43 817.83 1087.53 830.48C1089.21 830.88 1136.05 842.57 1145.68 865.05C1154.02 884.51 1166.39 928.14 1145.28 929.66C1139.3 930.15 1134.67 927.18 1131.15 922.94C1130.31 930.23 1127.38 936.83 1120.13 937.77C1108.73 939.28 1101.61 925.77 1098.05 916.19C1086.51 932.37 1072.66 931.33 1066.22 929.67L1051.58 955.12C1050.79 956.49 1049.24 957.31 1047.58 957.09L1047.57 957.08ZM1050.03 826.45C1004.58 838.65 984.1 880.9 993.54 909.66C1000 929.34 1020.44 944.48 1046.01 948.75L1060.92 922.85C1061.97 921.02 1064.27 920.32 1066.17 921.26C1066.84 921.58 1083.39 929.14 1095.64 904.64C1097.33 901.28 1102.24 901.91 1103.11 905.5C1105.12 913.85 1111.6 930.67 1119.11 929.84C1120.03 929.72 1120.68 929.31 1121.28 928.47C1124.03 924.65 1124.16 913.94 1121.63 901.2C1121.2 899.05 1122.58 896.96 1124.72 896.51C1126.84 896.04 1128.97 897.4 1129.45 899.53C1130.32 903.35 1135.17 922.34 1144.71 921.68C1145.91 921.59 1146.67 921.11 1147.33 920.02C1151.97 912.41 1146.42 887.07 1138.33 868.19C1131.63 852.55 1097.79 841.21 1085.32 838.16L1050.03 826.45Z" fill="#353535"></path><path d="M1162.88 892.63C1177.31 889.6 1191.73 886.57 1206.16 883.54C1195.88 872.75 1185.6 861.96 1175.32 851.17L897.58 767.83C886.19 764.41 874 771.48 870.36 783.63C867.13 794.39 872.7 805.57 882.79 808.6L1162.88 892.64V892.63Z" fill="#FFCF4B"></path><path d="M960.12 871.35C964.5 865.2 971.18 856.26 980.02 845.97C1006.89 814.72 1004 821.01 1045.66 822.16C1079.32 823.09 1089.67 820.07 1093.15 826.5C1096.89 833.43 1089.09 844.73 1084.03 849.94C1067.66 866.8 1040.89 861.1 1037.8 860.39C1037.8 860.39 1043.43 871.22 1039.67 883.83C1037.46 891.25 1033.11 896.01 1030.79 898.21L1013.73 916.12C995.86 901.19 978 886.26 960.13 871.33L960.12 871.35Z" fill="white"></path><path d="M1011.16 919.21L957.56 874.42C955.96 873.08 955.65 870.73 956.87 869.03C963.11 860.28 969.88 851.64 977 843.36C987.69 830.93 993.58 824.08 1000.74 820.38C1008.68 816.27 1014.04 816.58 1026.99 817.32C1079.68 820.36 1091.21 814.46 1096.68 824.61C1101.62 833.77 1092.86 846.6 1086.91 852.74C1073.58 866.46 1054.4 866.65 1043.8 865.45C1047.16 878.97 1043.12 892.04 1033.55 901.13L1016.63 918.9C1015.18 920.43 1012.79 920.57 1011.17 919.21H1011.16ZM965.55 870.67L1013.42 910.66L1027.9 895.46C1030.62 892.87 1034.06 888.69 1035.85 882.7C1039.11 871.76 1034.31 862.34 1034.26 862.24C1032.68 859.2 1035.43 855.72 1038.7 856.5C1041.51 857.14 1066.48 862.3 1081.18 847.16C1086.95 841.21 1091.73 832.25 1089.65 828.4C1087.72 824.81 1074.75 826.96 1045.57 826.16C1004.26 825.01 1008.57 818.92 983.07 848.58C976.93 855.72 971.05 863.14 965.55 870.67Z" fill="#353535"></path><path d="M358.726 581.516L280.879 593.47L303.224 738.985L381.071 727.031L358.726 581.516Z" fill="white"></path><path d="M303.23 742.99C301.25 742.99 299.57 741.54 299.28 739.6L276.93 594.08C276.59 591.9 278.09 589.85 280.28 589.52L358.13 577.57C360.29 577.23 362.36 578.73 362.69 580.92L385.04 726.44C385.38 728.62 383.88 730.66 381.69 731L303.23 743V742.99ZM285.44 596.82L306.57 734.43L376.52 723.69L355.39 586.08L285.44 596.82Z" fill="#353535"></path><path d="M386.03 542.32C382.63 530.51 374.69 520.53 363.96 514.54C353.55 508.72 339.07 503.21 322.03 503.71C314.25 503.94 297.08 504.52 280.88 516.77C280.05 517.39 264.28 529.61 258.55 548.05C256.34 555.17 255.8 562.82 256.71 570.64C249.62 571.67 243.74 575.56 241.37 581.64C235.35 597.12 255.03 614.22 273.57 610.15C285.65 626.17 298.21 635.15 312.21 640.5C327.4 646.3 353.15 653.34 375.91 646C407.83 635.7 400.98 594.25 386.03 542.32Z" fill="white"></path><path d="M354.47 653.18C338.35 653.18 322.67 648.77 310.79 644.24C296.58 638.82 284.09 629.98 271.88 614.5C266.64 615.17 261.01 614.44 255.77 612.4C231.6 602.99 229.54 574.02 252.42 567.47C251.97 560.2 252.74 553.28 254.74 546.86C260.89 527.05 277.76 514.11 278.47 513.57C299.55 497.64 334.4 493.42 365.92 511.04C377.66 517.61 386.17 528.32 389.88 541.21C406.97 600.58 416.46 653.17 354.47 653.17V653.18ZM273.58 606.15C277.64 606.15 276.85 610.42 290.56 622.79C297.15 628.73 304.92 633.43 313.64 636.76C326.96 641.85 352.6 649.33 374.68 642.19C402.06 633.36 397.85 597.85 382.18 543.42C379.06 532.57 371.89 523.55 362 518.02C349.06 510.78 335.69 507.32 322.14 507.7C315.09 507.9 298.59 508.38 283.29 519.95C283.14 520.07 267.77 531.84 262.37 549.23C260.38 555.64 259.81 562.69 260.68 570.17C260.93 572.32 259.42 574.28 257.28 574.59C239.16 577.22 240.45 597.85 258.66 604.94C266.71 608.07 272.45 606.14 273.57 606.14L273.58 606.15Z" fill="#353535"></path><path d="M312.22 640.5C312.22 640.5 340.56 676.53 372.29 669.8L368.92 647.87C368.92 647.87 336.56 655.24 312.22 640.5Z" fill="#353535"></path><path d="M297.93 704.51C196.34 728.79 145.55 740.94 116.82 782.53C80.6603 834.89 96.1103 901.17 124 1013.51C139.29 1075.11 166.43 1160.37 217.49 1256.64H641.45C658.53 1140.31 661.09 1041.93 659.45 968.75C654.81 761.11 615.64 722.39 591.68 707.3C573.28 695.71 548.59 693.61 499.21 689.4C406.6 681.51 333.08 696.12 297.93 704.52V704.51Z" fill="#FFCF4B"></path><path d="M209.48 1260.64C209.48 1260.64 178.11 1385.84 169.27 1465.81C160.43 1545.77 178.11 1748.57 178.11 1748.57H465.45V1504.61L529.55 1748.57H847.83L633.43 1260.64H209.48Z" fill="white"></path><path d="M847.84 1752.57C846.3 1752.57 844.83 1751.68 844.18 1750.18L630.83 1264.64H212.61C207.8 1284.24 181.2 1394.34 173.25 1466.25C164.55 1544.9 181.92 1746.2 182.1 1748.22C182.29 1750.42 180.66 1752.36 178.46 1752.55C176.22 1752.74 174.32 1751.11 174.13 1748.91C173.95 1746.88 156.51 1544.8 165.3 1465.36C174.07 1386.04 205.29 1260.91 205.6 1259.66C206.05 1257.88 207.65 1256.63 209.48 1256.63H633.44C635.03 1256.63 636.46 1257.57 637.1 1259.02L851.5 1746.95C852.67 1749.61 850.69 1752.56 847.84 1752.56V1752.57Z" fill="#353535"></path><path d="M529.55 1752.57C527.78 1752.57 526.16 1751.38 525.68 1749.59L469.45 1535.57V1748.57C469.45 1750.78 467.66 1752.57 465.45 1752.57C463.24 1752.57 461.45 1750.78 461.45 1748.57V1504.61C461.45 1502.6 462.94 1500.9 464.94 1500.64C466.9 1500.4 468.81 1501.64 469.32 1503.59L533.42 1747.55C534.09 1750.09 532.17 1752.57 529.55 1752.57Z" fill="#353535"></path><path d="M264.86 715.44C202.75 722.93 144.28 749.18 104.67 781.42C63.7399 814.74 37.1699 870.08 22.2699 972.06C-0.610117 1128.65 -25.4601 1279.34 57.6999 1338.42C118.76 1381.8 216.51 1360.91 296.06 1343.92C341.81 1334.14 378.28 1320.55 402.51 1310.24C404.17 1235.09 405.83 1159.94 407.48 1084.79C328.46 1096.39 249.44 1108 170.42 1119.6C183.48 1020.16 196.53 920.72 209.59 821.28C228.01 786 246.43 750.72 264.85 715.44H264.86Z" fill="#FFCF4B"></path><path d="M343.72 700.53C377.07 692.65 427.26 684.22 488.15 687.49C531.66 689.82 553.41 690.99 578.22 701.03C661.31 734.64 665.85 821.63 814.42 988.23C863.88 941.95 913.35 895.68 962.81 849.4C1005.7 887.8 1048.6 926.21 1091.49 964.61C1077.61 1007.5 1049.85 1074.99 992.99 1141.35C945.97 1196.23 898.44 1250.66 829.57 1260.52C700.86 1278.95 576 1129.55 525.17 1036.73C491.27 974.83 498.92 945.2 451.68 856.59C414.1 786.12 372.96 733.93 343.72 700.55V700.53Z" fill="#FFCF4B"></path><path d="M294.08 679.41L297.94 704.51L234.11 720.66C234.11 720.66 269.07 765.68 336.76 754.63C404.45 743.58 423.46 688.19 423.46 688.19C407.77 689.16 392.09 690.12 376.4 691.09C375.18 684.98 373.96 678.88 372.74 672.77" fill="white"></path><path d="M315.46 760.4C260.6 760.4 232.26 724.81 230.94 723.11C229.17 720.83 230.33 717.49 233.12 716.78L293.42 701.53L290.12 680.02C289.78 677.84 291.28 675.8 293.47 675.46C295.66 675.13 297.7 676.62 298.03 678.81L301.88 703.92C302.19 705.96 300.91 707.9 298.91 708.4L241.62 722.89C291.93 772.11 384.97 758.04 417.18 692.58L376.65 695.08C374.65 695.17 372.87 693.83 372.48 691.87L368.82 673.55C368.39 671.39 369.79 669.28 371.96 668.85C374.11 668.4 376.23 669.82 376.67 671.99L379.64 686.88L423.21 684.2C426.2 684.1 428.13 686.89 427.24 689.49C426.43 691.85 406.66 747.28 337.4 758.59C329.67 759.85 322.36 760.41 315.46 760.41V760.4Z" fill="#353535"></path><path d="M244.78 576.41C244.78 576.41 251.29 569.05 264.74 574.21C278.19 579.37 310.43 593.55 319.45 512.14C322.47 510.9 327.59 509.3 333.39 510.35C352.14 513.77 352.78 540.33 369.91 547.13C391.13 555.56 424.85 528.61 422.22 518.4C420.87 513.16 410.88 515.94 402.33 506.61C394.13 497.67 397.67 488.96 391.65 476.03C385.49 462.82 373.76 454.67 366.97 451.53C346.98 442.29 317.64 452.35 295.13 476.58C254.16 470.16 218.89 482.97 208.93 506.05C201.43 523.42 209.29 544.27 214.46 557.99C222.86 580.3 236.29 595.05 244.67 602.93C240.76 594.66 240.67 584.92 244.79 576.4L244.78 576.41Z" fill="#353535"></path><path d="M406.38 1248C428.58 1231.96 450.78 1215.91 472.99 1199.87C472.99 1199.87 544.95 1204.14 556.98 1199.87C569.01 1195.6 608.26 1164.43 608.26 1164.43H409.49C408.45 1192.29 407.42 1220.14 406.38 1248Z" fill="white"></path><path d="M406.38 1252C404.11 1252 402.3 1250.12 402.38 1247.85L405.489 1164.28C405.569 1162.13 407.339 1160.43 409.489 1160.43H608.26C612.04 1160.43 613.709 1165.21 610.749 1167.56C606.679 1170.79 570.63 1199.27 558.32 1203.64C546.46 1207.84 486.259 1204.64 474.179 1203.94C406.819 1252.61 408.39 1251.99 406.38 1251.99V1252ZM413.339 1168.43L410.679 1239.96L470.64 1196.63C471.39 1196.09 472.31 1195.82 473.22 1195.88C501.82 1197.58 547.37 1199.04 555.64 1196.1C562.99 1193.49 583.099 1178.76 596.599 1168.43H413.339Z" fill="#353535"></path><path d="M72.6799 1210.22C69.3899 1210.22 67.4799 1206.41 69.5199 1203.77C103.42 1159.97 166 1140.43 183.07 1135.77C176.38 1116.61 147.65 1034.47 126.29 975.78C101.83 908.58 102.14 846.98 102.15 846.36C102.17 844.16 103.96 842.4 106.15 842.4C107.33 842.4 110.18 843.33 110.15 846.44C110.15 847.04 109.86 907.27 133.81 973.05C158.04 1039.6 191.72 1136.27 192.06 1137.24C192.84 1139.48 191.51 1141.9 189.2 1142.45C188.44 1142.63 112.76 1160.99 75.8499 1208.66C75.0599 1209.68 73.8799 1210.21 72.6899 1210.21L72.6799 1210.22Z" fill="#353535"></path><path d="M636.13 918.45C633.83 918.45 632 916.52 632.13 914.22C638.48 802.27 605.85 770.21 605.52 769.9C603.92 768.4 603.82 765.87 605.32 764.26C606.82 762.65 609.33 762.53 610.94 764.02C612.4 765.36 646.72 798.2 640.11 914.68C639.99 916.81 638.23 918.45 636.12 918.45H636.13Z" fill="#353535"></path><path d="M255.72 1142.56H188.27C186.06 1142.56 184.27 1140.77 184.27 1138.56C184.27 1136.35 186.06 1134.56 188.27 1134.56H255.72C257.93 1134.56 259.72 1136.35 259.72 1138.56C259.72 1140.77 257.93 1142.56 255.72 1142.56Z" fill="#353535"></path><path d="M701.86 1138.56H355.34L394.28 873.38H750.92L701.86 1138.56Z" fill="#353535"></path><path d="M702.32 1138.56H220.86V1164.44H702.32V1138.56Z" fill="#353535"></path><path d="M553.13 1041.6C572.808 1041.6 588.76 1025.65 588.76 1005.97C588.76 986.292 572.808 970.34 553.13 970.34C533.452 970.34 517.5 986.292 517.5 1005.97C517.5 1025.65 533.452 1041.6 553.13 1041.6Z" fill="white"></path><path d="M553.13 1045.59C531.28 1045.59 513.51 1027.81 513.51 1005.97C513.51 984.13 531.29 966.34 553.13 966.34C574.97 966.34 592.76 984.12 592.76 1005.97C592.76 1027.82 574.98 1045.59 553.13 1045.59ZM553.13 974.34C535.69 974.34 521.51 988.53 521.51 1005.97C521.51 1023.41 535.7 1037.59 553.13 1037.59C570.56 1037.59 584.76 1023.4 584.76 1005.97C584.76 988.54 570.57 974.34 553.13 974.34Z" fill="#353535"></path><path d="M779.86 1108.21H779.75C777.54 1108.15 775.8 1106.31 775.86 1104.1C777.39 1047.98 809.56 988.78 810.92 986.29C811.98 984.35 814.42 983.65 816.35 984.71C818.29 985.78 818.99 988.21 817.93 990.14C817.6 990.73 785.32 1050.16 783.85 1104.32C783.79 1106.49 782.01 1108.21 779.85 1108.21H779.86Z" fill="#353535"></path></g><defs><clipPath id="clip0_12_378"><rect width="1947" height="1753" fill="white"></rect></clipPath></defs></svg>