<svg xmlns="http://www.w3.org/2000/svg" width="1923" height="1742" viewBox="0 0 1923 1742" fill="none"><g clip-path="url(#clip0_22_491)"><path d="M958.221 966.43H88.6306C67.3406 966.43 49.6706 949.98 48.1506 928.74L0.140599 256.8C-1.5394 233.31 17.0706 213.32 40.6206 213.32H886.201C906.941 213.32 924.341 228.96 926.551 249.58L998.571 921.52C1001.14 945.51 982.341 966.43 958.221 966.43Z" fill="white"></path><path d="M958.22 970.43H88.6302C65.3502 970.43 45.8202 952.24 44.1602 929.03L-3.84976 257.09C-5.68976 231.31 14.7702 209.33 40.6202 209.33H886.2C909.04 209.33 928.1 226.45 930.53 249.16L1002.55 921.1C1005.37 947.43 984.71 970.43 958.22 970.43ZM40.6202 217.33C19.3702 217.33 2.61024 235.32 4.13024 256.52L52.1502 928.46C53.5102 947.51 69.5402 962.43 88.6402 962.43H958.23C979.96 962.43 996.92 943.56 994.61 921.95L922.59 250.01C920.59 231.38 904.95 217.33 886.21 217.33H40.6202Z" fill="#0E2531"></path><path d="M213.889 253.81H67.8294C56.9383 253.81 48.1094 262.639 48.1094 273.53V276.23C48.1094 287.121 56.9383 295.95 67.8294 295.95H213.889C224.78 295.95 233.609 287.121 233.609 276.23V273.53C233.609 262.639 224.78 253.81 213.889 253.81Z" fill="#0E2531"></path><path d="M691.781 47.3599C667.401 35.3999 667.541 4.64991 646.521 0.599914C633.761 -1.86009 622.211 6.81991 616.131 11.3799C587.271 33.0699 521.651 116.41 531.331 233.39C534.451 271.06 544.221 389.24 643.551 439.12C727.761 481.41 830.761 451.72 885.211 393.35C893.331 384.65 945.501 326.92 928.031 279.66C911.791 235.71 855.681 252.75 811.881 199.93C762.351 140.2 784.871 58.6399 744.451 46.6199C724.991 40.8299 712.851 57.6899 691.791 47.3599H691.781Z" fill="#0E2531"></path><path d="M753.93 293.89C753.93 293.89 824.42 328.39 828.85 397.05C833.28 465.71 764.37 721.89 764.37 721.89C839.51 745.15 914.65 768.4 989.79 791.66C975.17 815.23 960.55 838.81 945.93 862.38C900.41 867.73 676.57 891.01 621.78 783.58C618.93 777.99 615.63 770.28 611.79 754.01C601.42 710.11 589.37 613.68 656.22 467.25L753.92 293.9L753.93 293.89Z" fill="white"></path><path d="M618.229 785.39C615.349 779.74 611.879 771.71 607.909 754.92C588.409 672.37 603.859 572.32 652.589 465.58L750.449 291.93C751.489 290.09 753.799 289.37 755.689 290.3C758.649 291.75 828.309 326.63 832.839 396.8C837.019 461.61 778.019 686.19 769.219 719.21L990.969 787.84C993.469 788.61 994.559 791.55 993.179 793.77L949.319 864.49C948.679 865.53 947.599 866.21 946.389 866.36C840.649 878.8 666.339 879.78 618.209 785.4L618.229 785.39ZM755.489 299.28L659.719 469.21C611.889 574.01 596.609 672.28 615.699 753.09C619.469 769.05 622.699 776.54 625.359 781.76C675.869 880.8 879.149 866.03 943.559 858.63L983.669 793.95L763.189 725.71C761.129 725.08 759.949 722.93 760.509 720.85C761.199 718.3 829.199 464.53 824.859 397.31C821.179 340.25 769.239 307.09 755.489 299.28Z" fill="#0E2531"></path><path d="M1652.89 1738.23H1799.55V1007.12H1652.89V1738.23Z" fill="white"></path><path d="M1799.55 1742.22H1652.89C1650.68 1742.22 1648.89 1740.43 1648.89 1738.22V1007.11C1648.89 1004.9 1650.68 1003.11 1652.89 1003.11H1799.55C1801.76 1003.11 1803.55 1004.9 1803.55 1007.11V1738.22C1803.55 1740.43 1801.76 1742.22 1799.55 1742.22ZM1656.89 1734.22H1795.55V1011.11H1656.89V1734.22Z" fill="#A3C8DA"></path><path d="M1506.24 1741.44H1652.9V1134.78H1506.24V1741.44Z" fill="#A3C8DA"></path><path d="M1304.24 1738.23H1450.9V1007.12H1304.24V1738.23Z" fill="white"></path><path d="M1450.91 1742.22H1304.25C1302.04 1742.22 1300.25 1740.43 1300.25 1738.22V1007.11C1300.25 1004.9 1302.04 1003.11 1304.25 1003.11H1450.91C1453.12 1003.11 1454.91 1004.9 1454.91 1007.11V1738.22C1454.91 1740.43 1453.12 1742.22 1450.91 1742.22ZM1308.25 1734.22H1446.91V1011.11H1308.25V1734.22Z" fill="#A3C8DA"></path><path d="M1157.58 1741.44H1304.24V1261.93H1157.58V1741.44Z" fill="#A3C8DA"></path><path d="M955.6 1738.22H1102.26V1296.78H955.6V1738.22Z" fill="white"></path><path d="M1102.26 1742.22H955.6C953.39 1742.22 951.6 1740.43 951.6 1738.22V1296.78C951.6 1294.57 953.39 1292.78 955.6 1292.78H1102.26C1104.47 1292.78 1106.26 1294.57 1106.26 1296.78V1738.22C1106.26 1740.43 1104.47 1742.22 1102.26 1742.22ZM959.6 1734.22H1098.26V1300.78H959.6V1734.22Z" fill="#A3C8DA"></path><path d="M808.94 1741.44H955.6L955.6 1154.09H808.94L808.94 1741.44Z" fill="#A3C8DA"></path><path d="M683.737 147.275L618.904 108.196L545.862 229.374L610.695 268.453L683.737 147.275Z" fill="white"></path><path d="M610.731 272.43C609.001 272.43 610.431 272.92 543.831 232.78C541.941 231.64 541.331 229.18 542.471 227.29L615.511 106.11C616.651 104.22 619.111 103.61 621.001 104.75L685.831 143.82C687.711 144.95 688.341 147.4 687.191 149.31L614.151 270.49C613.441 271.66 612.161 272.43 610.721 272.43H610.731ZM551.381 228L609.361 262.95L678.271 148.62L620.291 113.67L551.381 228Z" fill="#0E2531"></path><path d="M631.22 232.94C631.22 232.94 384.41 113.19 320.18 180.74C255.95 248.29 295.82 628.67 295.82 628.67C295.82 628.67 193.94 757.7 147.43 965.33H806.02L657.02 661.34C657.02 661.34 792.42 439.86 806.02 377.85C819.62 315.84 720.49 270.13 631.22 232.93V232.94Z" fill="#1F4B61"></path><path d="M512.791 638.62C524.101 599.82 573.701 585.51 617.121 599.36L1135.17 764.58C1163.48 773.61 1179.36 803.03 1171.35 830.52C1163.37 857.89 1134.26 874.32 1105.41 866.7L579.701 727.78C532.771 715.38 502.111 675.27 512.791 638.62Z" fill="#0E2531"></path><path d="M1088.76 796.71C1145.88 600.69 1351.82 487.69 1547.84 544.81C1743.86 601.93 1856.86 807.87 1799.74 1003.89C1742.62 1199.91 1536.68 1312.91 1340.66 1255.79C1144.64 1198.67 1031.64 992.73 1088.76 796.71ZM1706.06 976.59C1748.13 832.23 1664.9 680.56 1520.54 638.49C1376.18 596.42 1224.51 679.65 1182.44 824.01C1140.37 968.37 1223.6 1120.04 1367.96 1162.11C1512.32 1204.18 1663.99 1120.95 1706.06 976.59Z" fill="#0E2531"></path><path d="M274.83 293.89C271.08 355.83 269.53 447.99 283.27 559.22C293 638.01 298.57 678.04 320.85 710.81C404.49 833.83 651.61 793.03 690.79 786.11C703.15 753.46 715.51 720.81 727.88 688.17C639.45 657 551.02 625.83 462.6 594.66C453.63 489.17 444.66 383.68 435.7 278.19" fill="white"></path><path d="M317.54 713.06C294.96 679.84 289.2 639.85 279.3 559.71C268.36 471.16 265.52 381.64 270.84 293.64C270.97 291.43 272.91 289.75 275.07 289.89C277.28 290.02 278.95 291.92 278.82 294.12C273.53 381.63 276.36 470.65 287.24 558.72C296.98 637.56 302.61 676.86 324.16 708.55C391.01 806.87 570.96 802.79 687.86 782.55L722.69 690.57L461.27 598.42C459.79 597.9 458.75 596.55 458.61 594.98L431.71 278.51C431.52 276.31 433.16 274.37 435.36 274.19C437.56 274.01 439.5 275.64 439.68 277.84L466.36 591.73L729.21 684.38C731.33 685.13 732.41 687.48 731.62 689.57L694.53 787.51C694.03 788.83 692.87 789.79 691.49 790.03C570.09 811.45 386.86 814.98 317.54 713.04V713.06Z" fill="#0E2531"></path><path d="M252.27 504.84C328.29 500.66 404.3 496.47 480.32 492.29C488.23 389.14 496.14 285.99 504.05 182.84C475.73 170.16 451.11 162.91 433.14 158.59C407.32 152.38 392.28 148.9 371.96 150.96C367.88 151.37 336.27 154.88 312.06 172.62C279.33 196.6 271.7 238.12 265.55 285.57C258.39 340.74 251.81 414.84 252.26 504.83L252.27 504.84Z" fill="#1F4B61"></path><path d="M753.93 293.89C753.93 293.89 833.83 345.13 842.04 407.63C850.26 470.14 807.281 640.92 807.281 640.92L656.23 594.11L753.93 293.89Z" fill="#1F4B61"></path><path d="M919.24 865.1L945.94 862.37C945.94 862.37 959.34 888.1 978.72 868.21C978.72 868.21 989.98 895.38 1007.88 877.85C1007.88 877.85 1022.65 903.69 1037.04 880.8C1037.04 880.8 1051.82 894.27 1062.52 882.65C1073.22 871.02 1085 817.5 1073.94 805.13C1062.88 792.76 1050.7 837.24 1050.7 837.24C1050.7 837.24 1061.04 803.65 1049.96 797.74C1038.89 791.83 1020.8 832.81 1020.8 832.81C1020.8 832.81 1030.03 806.91 1021.54 797.16C1013.05 787.41 993.12 823.55 993.12 823.55C993.12 823.55 1002.9 791.47 991.64 787.04C980.38 782.61 956.57 821 956.57 821L921.4 818.08" fill="white"></path><path d="M1007.07 883.78C995.83 891.97 984.82 886.8 977.53 874.64C965.06 884.3 952.32 879.52 943.82 866.61L919.64 869.08C917.4 869.32 915.48 867.7 915.26 865.51C915.04 863.31 916.64 861.35 918.83 861.13L945.53 858.4C947.14 858.22 948.73 859.08 949.48 860.53C949.53 860.62 954.84 870.53 962.63 871.66C966.79 872.28 971.23 870.16 975.85 865.43C977.87 863.35 981.31 864.07 982.41 866.68C983.74 869.86 988.52 878.38 994.55 879.6C997.75 880.25 1001.3 878.7 1005.08 875C1006.97 873.15 1010.06 873.62 1011.35 875.87C1013 878.73 1018.48 886.16 1024 886.27C1027.03 886.34 1030.45 883.78 1033.65 878.68C1034.96 876.59 1037.87 876.15 1039.73 877.85C1040.21 878.28 1051.72 888.47 1059.57 879.95C1070.02 868.59 1079.77 817.67 1070.95 807.81C1070.76 807.6 1070.09 806.92 1069.76 806.99C1065.91 807.9 1059.48 821.89 1055.49 835.08C1055.1 836.53 1054.75 837.68 1054.52 838.44C1053.88 840.53 1051.67 841.71 1049.58 841.11C1047.48 840.5 1046.26 838.32 1046.84 836.21C1047.09 835.29 1047.42 834.14 1047.82 832.8C1051.17 820.26 1052.96 803.89 1048.08 801.29C1047.93 801.21 1047.66 801.07 1046.91 801.33C1040.53 803.53 1029.94 822.02 1024.46 834.45C1023.59 836.42 1021.32 837.33 1019.32 836.55C1017.32 835.76 1016.31 833.52 1017.03 831.49C1020.29 822.32 1023.57 805.61 1018.52 799.81C1018.24 799.49 1018.17 799.5 1017.96 799.52C1013.51 799.99 1003.33 813.34 996.62 825.5C994.31 829.68 987.9 826.97 989.29 822.4C993.4 808.89 994.77 792.59 990.17 790.78C985.93 789.1 971.51 804.52 959.96 823.13C959.17 824.41 957.72 825.16 956.23 825.01L921.06 822.09C918.86 821.91 917.22 819.97 917.4 817.77C917.58 815.56 919.55 813.9 921.72 814.11L954.47 816.83C962.86 803.63 980.82 778.51 993.1 783.33C1000.19 786.12 1001.55 795.19 1000.92 804.24C1005.94 797.81 1011.8 792.13 1017.11 791.56C1025.31 790.67 1028.88 800.46 1029.11 808.88C1034.47 800.72 1043.23 789.65 1051.84 794.23C1056.17 796.54 1058.17 801.37 1058.82 807.06C1061.53 803.01 1064.6 799.98 1067.93 799.2C1069.8 798.76 1073.45 798.6 1076.92 802.48C1090.02 817.12 1076.48 873.39 1065.46 885.37C1056.57 895.03 1045 891.29 1037.89 886.53C1028.35 898.44 1016.34 895.91 1007.07 883.8V883.78Z" fill="#0E2531"></path><path d="M683.38 672.49L727.89 688.18C727.89 688.18 780.38 687.69 799.33 694.82C818.28 701.96 827.63 688.42 831.81 701.71C835.99 715 807.45 732.96 780.13 735.18C780.13 735.18 810.57 788.79 851.75 799.68C851.75 799.68 848.3 812.45 820 811.47C791.7 810.49 685.5 787.04 685.5 787.04L632.08 794.2" fill="white"></path><path d="M823.06 815.52C798.29 815.52 709.51 796.41 685.32 791.09L632.6 798.15C630.44 798.43 628.4 796.91 628.1 794.72C627.81 792.53 629.34 790.52 631.53 790.22L684.95 783.07C686.74 782.84 790.64 806.44 820.12 807.47C834.81 807.99 841.9 804.59 845.21 801.84C805.77 787.81 777.86 739.31 776.64 737.16C775.2 734.62 776.88 731.43 779.8 731.2C805.73 729.1 830.91 712.24 827.99 702.92C826.78 699.07 826.42 699.14 820.51 700.12C815.08 701.02 807.66 702.25 797.91 698.58C779.36 691.59 727.91 692.44 726.55 691.96L682.04 676.27C679.96 675.54 678.86 673.25 679.6 671.17C680.34 669.09 682.62 668 684.7 668.73L728.55 684.19C735.21 684.13 782.3 684.15 800.73 691.09C808.47 694.01 814.42 693.02 819.21 692.23C825.06 691.26 832.33 690.06 835.62 700.52C836.56 703.49 836.84 708.27 832.9 714.13C825.43 725.23 806.01 735.25 786.82 738.39C795.53 751.85 821.12 787.45 852.78 795.82C854.91 796.38 856.2 798.58 855.62 800.73C855.2 802.29 850.79 815.53 823.08 815.53L823.06 815.52Z" fill="#0E2531"></path><path d="M1236.27 913.09C1441.33 877.64 1620.85 763.94 1740.59 600.85C1721.45 588.83 1702.31 576.81 1683.17 564.79C1754.41 535.17 1825.65 505.56 1896.89 475.94C1905.54 549.25 1914.19 622.56 1922.85 695.87C1905.51 686.73 1888.18 677.6 1870.84 668.46C1739.74 873.45 1478.18 964.17 1236.26 913.09H1236.27Z" fill="#1F4B61"></path><path d="M1739.19 476.29C1826.8 476.29 1897.82 405.269 1897.82 317.66C1897.82 230.051 1826.8 159.03 1739.19 159.03C1651.58 159.03 1580.56 230.051 1580.56 317.66C1580.56 405.269 1651.58 476.29 1739.19 476.29Z" fill="#CA0000"></path><path d="M1710.44 476.29C1796.84 476.29 1866.88 406.249 1866.88 319.85C1866.88 233.45 1796.84 163.41 1710.44 163.41C1624.04 163.41 1554 233.45 1554 319.85C1554 406.249 1624.04 476.29 1710.44 476.29Z" fill="white"></path><path d="M1710.43 480.29C1621.97 480.29 1549.99 408.32 1549.99 319.85C1549.99 231.38 1621.96 159.41 1710.43 159.41C1798.9 159.41 1870.87 231.38 1870.87 319.85C1870.87 408.32 1798.9 480.29 1710.43 480.29ZM1710.43 167.42C1626.38 167.42 1557.99 235.8 1557.99 319.86C1557.99 403.92 1626.37 472.3 1710.43 472.3C1794.49 472.3 1862.87 403.92 1862.87 319.86C1862.87 235.8 1794.49 167.42 1710.43 167.42Z" fill="#CA0000"></path><path d="M1720.05 408.83C1669.49 415.11 1644.45 392.3 1640.29 358.81L1672.71 354.79C1674.01 365.27 1680.77 374.58 1692.81 378.91C1706.14 383.71 1733.04 380.49 1744.49 369.54C1750.47 363.83 1753.01 357.34 1752.1 350.08C1751.28 343.5 1747.73 338.41 1741.46 334.81C1730.12 328.32 1713.56 329.87 1700.01 330.31C1666.07 331.57 1640.33 317.71 1636.11 283.73C1633.3 261.14 1642.22 244.11 1660.51 233.77C1678.88 223.39 1709.9 219.2 1730.65 225.96C1752.4 233.06 1764.14 250.25 1766.98 273.14L1734.56 277.16C1732.64 261.71 1720.04 249.13 1697.74 251.9C1666.13 255.82 1662.13 281.88 1677.45 294.54C1686.43 301.96 1700.61 300.01 1713.44 299.59C1749.29 298.25 1780.39 310.7 1784.78 346.02C1789.53 384.27 1758.78 404.02 1720.06 408.83H1720.05ZM1681.83 237.68L1677.24 200.71L1706.87 197.03L1711.46 234L1681.83 237.68ZM1708.31 442.69L1703.72 405.71L1733.35 402.03L1737.94 439.01L1708.31 442.69Z" fill="#CA0000"></path><path d="M690.76 608.82C687.64 608.82 685.68 605.34 687.39 602.67C713.04 562.59 796.51 420.6 780.63 375.23C779.9 373.14 781 370.86 783.08 370.13C785.17 369.4 787.45 370.5 788.18 372.58C807.69 428.33 698.77 599.71 694.13 606.97C693.37 608.16 692.08 608.82 690.75 608.82H690.76Z" fill="#0E2531"></path><path d="M453.65 493.36C451.37 493.36 449.57 491.47 449.65 489.22C449.73 487.03 456.88 269.41 431.69 216.44C430.74 214.44 431.59 212.06 433.58 211.11C435.57 210.16 437.96 211.01 438.91 213C464.94 267.72 457.96 480.46 457.65 489.49C457.58 491.65 455.8 493.35 453.65 493.35V493.36Z" fill="#0E2531"></path><path d="M528.03 193.43L485.15 400.26L560.76 357.53L603.67 432.99L671.09 250.03C541.28 196.84 570.1 207.98 528.03 193.43Z" fill="white"></path><path d="M600.201 434.97L559.261 362.98L487.131 403.75C484.141 405.43 480.551 402.81 481.251 399.46L524.131 192.63C524.621 190.25 527.091 188.88 529.351 189.66C571.821 204.36 542.901 193.19 672.621 246.34C674.611 247.16 675.601 249.4 674.861 251.42L607.441 434.38C606.261 437.57 601.891 437.93 600.211 434.97H600.201ZM560.761 353.54C562.151 353.54 563.501 354.27 564.241 355.56L602.901 423.54L666.011 252.28C540.581 200.89 567.231 211.23 531.031 198.71L490.861 392.46C560.481 353.11 559.131 353.55 560.761 353.55V353.54Z" fill="#0E2531"></path><path d="M573.331 183.84L559.631 204.37C560.011 255.43 560.381 306.48 560.761 357.54C642.351 213.27 627.751 238.31 644.231 212.85" fill="white"></path><path d="M556.759 357.57C555.609 202.16 555.239 203.74 556.299 202.15L569.999 181.62C571.229 179.78 573.709 179.29 575.549 180.51C577.389 181.74 577.879 184.22 576.659 186.06L563.639 205.57L564.649 342.54C637.989 212.86 623.389 237.71 640.869 210.68C642.069 208.83 644.549 208.3 646.399 209.49C648.259 210.69 648.789 213.17 647.589 215.02C630.229 241.84 645.959 215 564.239 359.51C562.229 363.06 556.789 361.65 556.759 357.57Z" fill="#0E2531"></path><path d="M724.099 142C728.859 131.19 729.129 118.94 724.899 107.91C720.799 97.2001 713.499 84.2401 700.609 74.1101C694.729 69.4901 681.689 59.3601 662.199 58.4301C661.209 58.3801 642.049 57.6901 626.469 67.7901C620.449 71.6901 615.349 77.0001 611.209 83.3401C605.349 79.7401 598.609 78.9901 593.119 82.0201C579.149 89.7401 583.159 114.48 599.349 122.88C598.409 142.14 602.149 156.5 609.199 169.06C616.839 182.69 631.529 203.73 652.839 212.31C682.739 224.35 703.189 189.53 724.109 141.99L724.099 142Z" fill="white"></path><path d="M651.34 216.03C629.57 207.26 614.51 186.72 605.71 171.02C598.54 158.23 594.76 144.03 595.26 125.13C577.77 113.86 575.43 87.2201 591.19 78.5201C596.73 75.4601 603.53 75.3701 609.94 78.1601C614.07 72.5501 618.89 67.9401 624.3 64.4301C641.07 53.5601 661.54 54.3901 662.4 54.4301C683.32 55.4201 697.18 66.3101 703.1 70.9601C714.44 79.8701 723.04 91.8101 728.66 106.47C733.3 118.58 732.99 131.77 727.78 143.6C711.4 180.81 688.48 230.97 651.36 216.02L651.34 216.03ZM600.6 84.1501C584.34 84.1501 584.77 110.81 601.19 119.34C602.58 120.06 603.42 121.52 603.34 123.08C602.42 141.82 606.1 155.38 612.68 167.11C619.37 179.04 633.68 200.3 654.33 208.61C679.85 218.89 698.55 190.13 720.44 140.39C724.79 130.5 725.05 119.47 721.17 109.34C716.08 96.0501 708.33 85.2601 698.14 77.2601C692.82 73.0801 680.37 63.3001 662.01 62.4301C661.82 62.4101 643.28 61.6601 628.64 71.1501C623.24 74.6501 618.5 79.4901 614.56 85.5301C613.38 87.3401 610.96 87.8801 609.12 86.7501C606.32 85.0301 603.36 84.1501 600.6 84.1501Z" fill="#0E2531"></path><path d="M609.19 169.07C609.19 169.07 607.94 213.11 635.51 227.66L646.52 209.4C646.52 209.4 618.09 194.93 609.19 169.07Z" fill="#0E2531"></path><path d="M611.21 83.34C611.21 83.34 629.28 135.07 688.34 83.34C688.34 83.34 703.11 112.33 678.5 127.09L727.89 163.02C727.89 163.02 767.83 117.99 764.14 73.44C760.45 28.9 701.63 39.97 701.63 39.97C701.63 39.97 680.51 -4.33001 646.53 0.599985C612.55 5.51999 584.59 87.72 584.59 87.72C584.59 87.72 601.76 72.81 611.22 83.34H611.21Z" fill="#0E2531"></path><path d="M388.93 627.92C385.42 627.92 383.58 623.65 386.08 621.11C415.55 591.17 460.68 590.67 462.58 590.66C463.72 590.66 466.58 591.53 466.59 594.64C466.59 596.85 464.82 598.65 462.61 598.66C462.18 598.66 418.86 599.21 391.77 626.72C390.99 627.51 389.95 627.91 388.92 627.91L388.93 627.92Z" fill="#0E2531"></path></g><defs><clipPath id="clip0_22_491"><rect width="1923" height="1742" fill="white"></rect></clipPath></defs></svg>