<svg xmlns="http://www.w3.org/2000/svg" xmlns:xlink="http://www.w3.org/1999/xlink" width="120" zoomAndPan="magnify" viewBox="0 0 90 40.499999" height="54" preserveAspectRatio="xMidYMid meet" version="1.0"><defs><g/><clipPath id="b193337995"><path d="M 0.546875 0 L 89.449219 0 L 89.449219 40.007812 L 0.546875 40.007812 Z M 0.546875 0 " clip-rule="nonzero"/></clipPath><clipPath id="5f912ff756"><path d="M 68 12 L 79.816406 12 L 79.816406 25 L 68 25 Z M 68 12 " clip-rule="nonzero"/></clipPath><clipPath id="dddbb5da02"><path d="M 10.179688 6.449219 L 28 6.449219 L 28 25 L 10.179688 25 Z M 10.179688 6.449219 " clip-rule="nonzero"/></clipPath></defs><g clip-path="url(#b193337995)"><path fill="#ffffff" d="M 0.546875 0 L 89.453125 0 L 89.453125 40.007812 L 0.546875 40.007812 Z M 0.546875 0 " fill-opacity="1" fill-rule="nonzero"/><path fill="#ffffff" d="M 0.546875 0 L 89.453125 0 L 89.453125 40.007812 L 0.546875 40.007812 Z M 0.546875 0 " fill-opacity="1" fill-rule="nonzero"/></g><path fill="#ea4335" d="M 39.816406 18.605469 C 39.816406 21.898438 37.257812 24.320312 34.121094 24.320312 C 30.984375 24.320312 28.425781 21.898438 28.425781 18.605469 C 28.425781 15.292969 30.984375 12.890625 34.121094 12.890625 C 37.257812 12.890625 39.816406 15.292969 39.816406 18.605469 Z M 37.324219 18.605469 C 37.324219 16.550781 35.839844 15.144531 34.121094 15.144531 C 32.402344 15.144531 30.917969 16.550781 30.917969 18.605469 C 30.917969 20.640625 32.402344 22.070312 34.121094 22.070312 C 35.839844 22.070312 37.324219 20.640625 37.324219 18.605469 Z M 37.324219 18.605469 " fill-opacity="1" fill-rule="nonzero"/><path fill="#fbbc05" d="M 52.101562 18.605469 C 52.101562 21.898438 49.542969 24.320312 46.40625 24.320312 C 43.269531 24.320312 40.710938 21.898438 40.710938 18.605469 C 40.710938 15.296875 43.269531 12.890625 46.40625 12.890625 C 49.542969 12.890625 52.101562 15.292969 52.101562 18.605469 Z M 49.605469 18.605469 C 49.605469 16.550781 48.125 15.144531 46.40625 15.144531 C 44.6875 15.144531 43.203125 16.550781 43.203125 18.605469 C 43.203125 20.640625 44.6875 22.070312 46.40625 22.070312 C 48.125 22.070312 49.605469 20.640625 49.605469 18.605469 Z M 49.605469 18.605469 " fill-opacity="1" fill-rule="nonzero"/><path fill="#4285f4" d="M 63.871094 13.234375 L 63.871094 23.496094 C 63.871094 27.71875 61.398438 29.441406 58.476562 29.441406 C 55.726562 29.441406 54.070312 27.589844 53.445312 26.074219 L 55.617188 25.164062 C 56.003906 26.09375 56.949219 27.191406 58.476562 27.191406 C 60.347656 27.191406 61.503906 26.03125 61.503906 23.84375 L 61.503906 23.019531 L 61.417969 23.019531 C 60.859375 23.714844 59.785156 24.320312 58.429688 24.320312 C 55.589844 24.320312 52.992188 21.832031 52.992188 18.628906 C 52.992188 15.402344 55.589844 12.890625 58.429688 12.890625 C 59.78125 12.890625 60.859375 13.496094 61.417969 14.167969 L 61.503906 14.167969 L 61.503906 13.238281 L 63.871094 13.238281 Z M 61.683594 18.628906 C 61.683594 16.613281 60.347656 15.144531 58.652344 15.144531 C 56.933594 15.144531 55.492188 16.613281 55.492188 18.628906 C 55.492188 20.617188 56.933594 22.070312 58.652344 22.070312 C 60.347656 22.070312 61.683594 20.617188 61.683594 18.628906 Z M 61.683594 18.628906 " fill-opacity="1" fill-rule="nonzero"/><path fill="#34a853" d="M 65.34375 7.222656 L 67.777344 7.222656 L 67.777344 23.972656 L 65.34375 23.972656 Z M 65.34375 7.222656 " fill-opacity="1" fill-rule="nonzero"/><g clip-path="url(#5f912ff756)"><path fill="#ea4335" d="M 77.25 20.488281 L 79.183594 21.785156 C 78.558594 22.714844 77.054688 24.320312 74.457031 24.320312 C 71.230469 24.320312 68.820312 21.808594 68.820312 18.605469 C 68.820312 15.203125 71.25 12.886719 74.175781 12.886719 C 77.121094 12.886719 78.5625 15.25 79.035156 16.523438 L 79.292969 17.171875 L 71.703125 20.339844 C 72.285156 21.484375 73.1875 22.070312 74.457031 22.070312 C 75.722656 22.070312 76.605469 21.441406 77.25 20.488281 Z M 71.292969 18.429688 L 76.367188 16.308594 C 76.089844 15.597656 75.25 15.097656 74.261719 15.097656 C 72.992188 15.097656 71.230469 16.226562 71.292969 18.429688 Z M 71.292969 18.429688 " fill-opacity="1" fill-rule="nonzero"/></g><g clip-path="url(#dddbb5da02)"><path fill="#4285f4" d="M 19.222656 17.121094 L 19.222656 14.695312 L 27.339844 14.695312 C 27.417969 15.117188 27.460938 15.617188 27.460938 16.160156 C 27.460938 17.976562 26.964844 20.226562 25.375 21.832031 C 23.824219 23.453125 21.847656 24.320312 19.226562 24.320312 C 14.367188 24.320312 10.285156 20.335938 10.285156 15.445312 C 10.285156 10.554688 14.367188 6.570312 19.226562 6.570312 C 21.914062 6.570312 23.828125 7.632812 25.265625 9.015625 L 23.566406 10.726562 C 22.535156 9.753906 21.136719 8.996094 19.222656 8.996094 C 15.675781 8.996094 12.902344 11.875 12.902344 15.445312 C 12.902344 19.015625 15.675781 21.894531 19.222656 21.894531 C 21.523438 21.894531 22.835938 20.964844 23.675781 20.121094 C 24.355469 19.433594 24.804688 18.453125 24.980469 17.117188 Z M 19.222656 17.121094 " fill-opacity="1" fill-rule="nonzero"/></g><g fill="#545454" fill-opacity="1"><g transform="translate(17.93106, 37.931724)"><g><path d="M 4.421875 -5.265625 C 4.273438 -5.429688 4.085938 -5.578125 3.859375 -5.703125 C 3.628906 -5.828125 3.335938 -5.890625 2.984375 -5.890625 C 2.554688 -5.890625 2.222656 -5.800781 1.984375 -5.625 C 1.753906 -5.457031 1.640625 -5.21875 1.640625 -4.90625 C 1.640625 -4.820312 1.660156 -4.722656 1.703125 -4.609375 C 1.742188 -4.503906 1.828125 -4.398438 1.953125 -4.296875 C 2.085938 -4.191406 2.273438 -4.09375 2.515625 -4 L 3.84375 -3.578125 C 4.382812 -3.410156 4.769531 -3.175781 5 -2.875 C 5.238281 -2.570312 5.359375 -2.21875 5.359375 -1.8125 C 5.359375 -1.414062 5.257812 -1.070312 5.0625 -0.78125 C 4.863281 -0.5 4.582031 -0.28125 4.21875 -0.125 C 3.851562 0.0195312 3.421875 0.09375 2.921875 0.09375 C 2.546875 0.09375 2.195312 0.0507812 1.875 -0.03125 C 1.5625 -0.125 1.28125 -0.253906 1.03125 -0.421875 C 0.789062 -0.585938 0.585938 -0.796875 0.421875 -1.046875 C 0.390625 -1.085938 0.378906 -1.125 0.390625 -1.15625 C 0.398438 -1.1875 0.425781 -1.222656 0.46875 -1.265625 L 0.90625 -1.5625 C 0.96875 -1.601562 1.015625 -1.617188 1.046875 -1.609375 C 1.085938 -1.609375 1.125 -1.59375 1.15625 -1.5625 C 1.300781 -1.363281 1.445312 -1.195312 1.59375 -1.0625 C 1.75 -0.9375 1.925781 -0.84375 2.125 -0.78125 C 2.320312 -0.71875 2.566406 -0.6875 2.859375 -0.6875 C 3.296875 -0.6875 3.648438 -0.765625 3.921875 -0.921875 C 4.191406 -1.085938 4.328125 -1.34375 4.328125 -1.6875 C 4.328125 -1.820312 4.300781 -1.941406 4.25 -2.046875 C 4.195312 -2.160156 4.101562 -2.257812 3.96875 -2.34375 C 3.84375 -2.4375 3.65625 -2.53125 3.40625 -2.625 L 2.0625 -3.0625 C 1.726562 -3.175781 1.453125 -3.320312 1.234375 -3.5 C 1.023438 -3.675781 0.867188 -3.875 0.765625 -4.09375 C 0.671875 -4.320312 0.625 -4.554688 0.625 -4.796875 C 0.625 -5.171875 0.71875 -5.5 0.90625 -5.78125 C 1.101562 -6.070312 1.378906 -6.296875 1.734375 -6.453125 C 2.085938 -6.609375 2.492188 -6.6875 2.953125 -6.6875 C 3.273438 -6.6875 3.566406 -6.648438 3.828125 -6.578125 C 4.085938 -6.503906 4.328125 -6.398438 4.546875 -6.265625 C 4.765625 -6.128906 4.953125 -5.96875 5.109375 -5.78125 C 5.128906 -5.757812 5.144531 -5.734375 5.15625 -5.703125 C 5.164062 -5.671875 5.148438 -5.632812 5.109375 -5.59375 L 4.609375 -5.203125 C 4.566406 -5.179688 4.535156 -5.175781 4.515625 -5.1875 C 4.492188 -5.195312 4.460938 -5.222656 4.421875 -5.265625 Z M 4.421875 -5.265625 "/></g></g></g><g fill="#545454" fill-opacity="1"><g transform="translate(23.727536, 37.931724)"><g><path d="M 1.5625 -0.171875 C 1.5625 -0.109375 1.546875 -0.0625 1.515625 -0.03125 C 1.492188 -0.0078125 1.453125 0 1.390625 0 L 0.78125 0 C 0.71875 0 0.675781 -0.0078125 0.65625 -0.03125 C 0.632812 -0.0507812 0.625 -0.0859375 0.625 -0.140625 L 0.625 -4.578125 C 0.625 -4.671875 0.664062 -4.71875 0.75 -4.71875 L 1.453125 -4.71875 C 1.523438 -4.71875 1.5625 -4.675781 1.5625 -4.59375 Z M 1.59375 -5.65625 C 1.59375 -5.53125 1.53125 -5.46875 1.40625 -5.46875 L 0.75 -5.46875 C 0.6875 -5.46875 0.644531 -5.484375 0.625 -5.515625 C 0.601562 -5.546875 0.59375 -5.585938 0.59375 -5.640625 L 0.59375 -6.453125 C 0.59375 -6.546875 0.640625 -6.59375 0.734375 -6.59375 L 1.46875 -6.59375 C 1.550781 -6.59375 1.59375 -6.546875 1.59375 -6.453125 Z M 1.59375 -5.65625 "/></g></g></g><g fill="#545454" fill-opacity="1"><g transform="translate(25.923441, 37.931724)"><g><path d="M 2.09375 -4.03125 C 2.039062 -4.03125 2.015625 -4.003906 2.015625 -3.953125 L 2.015625 -1.34375 C 2.015625 -1.082031 2.0625 -0.90625 2.15625 -0.8125 C 2.25 -0.726562 2.394531 -0.6875 2.59375 -0.6875 L 3.171875 -0.6875 C 3.203125 -0.6875 3.222656 -0.675781 3.234375 -0.65625 C 3.253906 -0.632812 3.265625 -0.609375 3.265625 -0.578125 L 3.265625 -0.203125 C 3.265625 -0.117188 3.222656 -0.0664062 3.140625 -0.046875 C 3.054688 -0.0351562 2.957031 -0.0234375 2.84375 -0.015625 C 2.738281 -0.015625 2.628906 -0.0078125 2.515625 0 C 2.410156 0 2.316406 0 2.234375 0 C 1.847656 0 1.554688 -0.0859375 1.359375 -0.265625 C 1.171875 -0.453125 1.078125 -0.734375 1.078125 -1.109375 L 1.078125 -3.921875 C 1.078125 -3.992188 1.046875 -4.03125 0.984375 -4.03125 L 0.3125 -4.03125 C 0.238281 -4.03125 0.203125 -4.066406 0.203125 -4.140625 L 0.203125 -4.609375 C 0.203125 -4.679688 0.238281 -4.71875 0.3125 -4.71875 L 1.015625 -4.71875 C 1.066406 -4.71875 1.09375 -4.742188 1.09375 -4.796875 L 1.203125 -6.1875 C 1.203125 -6.269531 1.238281 -6.3125 1.3125 -6.3125 L 1.921875 -6.3125 C 1.992188 -6.3125 2.03125 -6.265625 2.03125 -6.171875 L 2.03125 -4.796875 C 2.03125 -4.742188 2.054688 -4.71875 2.109375 -4.71875 L 3.1875 -4.71875 C 3.257812 -4.71875 3.296875 -4.679688 3.296875 -4.609375 L 3.296875 -4.140625 C 3.296875 -4.066406 3.253906 -4.03125 3.171875 -4.03125 Z M 2.09375 -4.03125 "/></g></g></g><g fill="#545454" fill-opacity="1"><g transform="translate(29.363985, 37.931724)"><g><path d="M 1.34375 -2.03125 C 1.34375 -1.757812 1.40625 -1.515625 1.53125 -1.296875 C 1.65625 -1.085938 1.828125 -0.914062 2.046875 -0.78125 C 2.265625 -0.65625 2.507812 -0.59375 2.78125 -0.59375 C 3.050781 -0.59375 3.289062 -0.648438 3.5 -0.765625 C 3.71875 -0.878906 3.914062 -1.054688 4.09375 -1.296875 C 4.101562 -1.316406 4.117188 -1.328125 4.140625 -1.328125 C 4.160156 -1.328125 4.1875 -1.320312 4.21875 -1.3125 L 4.671875 -1.09375 C 4.742188 -1.0625 4.75 -1.015625 4.6875 -0.953125 C 4.53125 -0.710938 4.347656 -0.515625 4.140625 -0.359375 C 3.941406 -0.203125 3.722656 -0.0859375 3.484375 -0.015625 C 3.242188 0.0546875 2.972656 0.09375 2.671875 0.09375 C 2.222656 0.09375 1.828125 -0.00390625 1.484375 -0.203125 C 1.140625 -0.410156 0.867188 -0.691406 0.671875 -1.046875 C 0.472656 -1.410156 0.375 -1.828125 0.375 -2.296875 C 0.375 -2.816406 0.472656 -3.257812 0.671875 -3.625 C 0.878906 -4 1.15625 -4.285156 1.5 -4.484375 C 1.84375 -4.691406 2.226562 -4.796875 2.65625 -4.796875 C 3.09375 -4.796875 3.472656 -4.695312 3.796875 -4.5 C 4.128906 -4.3125 4.390625 -4.035156 4.578125 -3.671875 C 4.765625 -3.316406 4.859375 -2.878906 4.859375 -2.359375 C 4.859375 -2.304688 4.847656 -2.257812 4.828125 -2.21875 C 4.816406 -2.1875 4.78125 -2.171875 4.71875 -2.171875 L 1.4375 -2.171875 C 1.40625 -2.171875 1.378906 -2.15625 1.359375 -2.125 C 1.347656 -2.101562 1.34375 -2.070312 1.34375 -2.03125 Z M 3.765625 -2.734375 C 3.835938 -2.734375 3.878906 -2.738281 3.890625 -2.75 C 3.910156 -2.769531 3.921875 -2.804688 3.921875 -2.859375 C 3.921875 -3.078125 3.867188 -3.285156 3.765625 -3.484375 C 3.671875 -3.691406 3.53125 -3.859375 3.34375 -3.984375 C 3.164062 -4.109375 2.945312 -4.171875 2.6875 -4.171875 C 2.40625 -4.171875 2.164062 -4.101562 1.96875 -3.96875 C 1.769531 -3.832031 1.617188 -3.65625 1.515625 -3.4375 C 1.410156 -3.21875 1.359375 -2.984375 1.359375 -2.734375 Z M 3.765625 -2.734375 "/></g></g></g><g fill="#545454" fill-opacity="1"><g transform="translate(34.538147, 37.931724)"><g/></g></g><g fill="#545454" fill-opacity="1"><g transform="translate(36.422895, 37.931724)"><g><path d="M 4.421875 -5.265625 C 4.273438 -5.429688 4.085938 -5.578125 3.859375 -5.703125 C 3.628906 -5.828125 3.335938 -5.890625 2.984375 -5.890625 C 2.554688 -5.890625 2.222656 -5.800781 1.984375 -5.625 C 1.753906 -5.457031 1.640625 -5.21875 1.640625 -4.90625 C 1.640625 -4.820312 1.660156 -4.722656 1.703125 -4.609375 C 1.742188 -4.503906 1.828125 -4.398438 1.953125 -4.296875 C 2.085938 -4.191406 2.273438 -4.09375 2.515625 -4 L 3.84375 -3.578125 C 4.382812 -3.410156 4.769531 -3.175781 5 -2.875 C 5.238281 -2.570312 5.359375 -2.21875 5.359375 -1.8125 C 5.359375 -1.414062 5.257812 -1.070312 5.0625 -0.78125 C 4.863281 -0.5 4.582031 -0.28125 4.21875 -0.125 C 3.851562 0.0195312 3.421875 0.09375 2.921875 0.09375 C 2.546875 0.09375 2.195312 0.0507812 1.875 -0.03125 C 1.5625 -0.125 1.28125 -0.253906 1.03125 -0.421875 C 0.789062 -0.585938 0.585938 -0.796875 0.421875 -1.046875 C 0.390625 -1.085938 0.378906 -1.125 0.390625 -1.15625 C 0.398438 -1.1875 0.425781 -1.222656 0.46875 -1.265625 L 0.90625 -1.5625 C 0.96875 -1.601562 1.015625 -1.617188 1.046875 -1.609375 C 1.085938 -1.609375 1.125 -1.59375 1.15625 -1.5625 C 1.300781 -1.363281 1.445312 -1.195312 1.59375 -1.0625 C 1.75 -0.9375 1.925781 -0.84375 2.125 -0.78125 C 2.320312 -0.71875 2.566406 -0.6875 2.859375 -0.6875 C 3.296875 -0.6875 3.648438 -0.765625 3.921875 -0.921875 C 4.191406 -1.085938 4.328125 -1.34375 4.328125 -1.6875 C 4.328125 -1.820312 4.300781 -1.941406 4.25 -2.046875 C 4.195312 -2.160156 4.101562 -2.257812 3.96875 -2.34375 C 3.84375 -2.4375 3.65625 -2.53125 3.40625 -2.625 L 2.0625 -3.0625 C 1.726562 -3.175781 1.453125 -3.320312 1.234375 -3.5 C 1.023438 -3.675781 0.867188 -3.875 0.765625 -4.09375 C 0.671875 -4.320312 0.625 -4.554688 0.625 -4.796875 C 0.625 -5.171875 0.71875 -5.5 0.90625 -5.78125 C 1.101562 -6.070312 1.378906 -6.296875 1.734375 -6.453125 C 2.085938 -6.609375 2.492188 -6.6875 2.953125 -6.6875 C 3.273438 -6.6875 3.566406 -6.648438 3.828125 -6.578125 C 4.085938 -6.503906 4.328125 -6.398438 4.546875 -6.265625 C 4.765625 -6.128906 4.953125 -5.96875 5.109375 -5.78125 C 5.128906 -5.757812 5.144531 -5.734375 5.15625 -5.703125 C 5.164062 -5.671875 5.148438 -5.632812 5.109375 -5.59375 L 4.609375 -5.203125 C 4.566406 -5.179688 4.535156 -5.175781 4.515625 -5.1875 C 4.492188 -5.195312 4.460938 -5.222656 4.421875 -5.265625 Z M 4.421875 -5.265625 "/></g></g></g><g fill="#545454" fill-opacity="1"><g transform="translate(42.219371, 37.931724)"><g><path d="M 1.34375 -2.03125 C 1.34375 -1.757812 1.40625 -1.515625 1.53125 -1.296875 C 1.65625 -1.085938 1.828125 -0.914062 2.046875 -0.78125 C 2.265625 -0.65625 2.507812 -0.59375 2.78125 -0.59375 C 3.050781 -0.59375 3.289062 -0.648438 3.5 -0.765625 C 3.71875 -0.878906 3.914062 -1.054688 4.09375 -1.296875 C 4.101562 -1.316406 4.117188 -1.328125 4.140625 -1.328125 C 4.160156 -1.328125 4.1875 -1.320312 4.21875 -1.3125 L 4.671875 -1.09375 C 4.742188 -1.0625 4.75 -1.015625 4.6875 -0.953125 C 4.53125 -0.710938 4.347656 -0.515625 4.140625 -0.359375 C 3.941406 -0.203125 3.722656 -0.0859375 3.484375 -0.015625 C 3.242188 0.0546875 2.972656 0.09375 2.671875 0.09375 C 2.222656 0.09375 1.828125 -0.00390625 1.484375 -0.203125 C 1.140625 -0.410156 0.867188 -0.691406 0.671875 -1.046875 C 0.472656 -1.410156 0.375 -1.828125 0.375 -2.296875 C 0.375 -2.816406 0.472656 -3.257812 0.671875 -3.625 C 0.878906 -4 1.15625 -4.285156 1.5 -4.484375 C 1.84375 -4.691406 2.226562 -4.796875 2.65625 -4.796875 C 3.09375 -4.796875 3.472656 -4.695312 3.796875 -4.5 C 4.128906 -4.3125 4.390625 -4.035156 4.578125 -3.671875 C 4.765625 -3.316406 4.859375 -2.878906 4.859375 -2.359375 C 4.859375 -2.304688 4.847656 -2.257812 4.828125 -2.21875 C 4.816406 -2.1875 4.78125 -2.171875 4.71875 -2.171875 L 1.4375 -2.171875 C 1.40625 -2.171875 1.378906 -2.15625 1.359375 -2.125 C 1.347656 -2.101562 1.34375 -2.070312 1.34375 -2.03125 Z M 3.765625 -2.734375 C 3.835938 -2.734375 3.878906 -2.738281 3.890625 -2.75 C 3.910156 -2.769531 3.921875 -2.804688 3.921875 -2.859375 C 3.921875 -3.078125 3.867188 -3.285156 3.765625 -3.484375 C 3.671875 -3.691406 3.53125 -3.859375 3.34375 -3.984375 C 3.164062 -4.109375 2.945312 -4.171875 2.6875 -4.171875 C 2.40625 -4.171875 2.164062 -4.101562 1.96875 -3.96875 C 1.769531 -3.832031 1.617188 -3.65625 1.515625 -3.4375 C 1.410156 -3.21875 1.359375 -2.984375 1.359375 -2.734375 Z M 3.765625 -2.734375 "/></g></g></g><g fill="#545454" fill-opacity="1"><g transform="translate(47.393533, 37.931724)"><g><path d="M 5.046875 -4.828125 C 5.097656 -4.828125 5.132812 -4.8125 5.15625 -4.78125 C 5.1875 -4.757812 5.203125 -4.722656 5.203125 -4.671875 L 5.203125 -4.265625 C 5.203125 -4.203125 5.1875 -4.15625 5.15625 -4.125 C 5.132812 -4.09375 5.09375 -4.082031 5.03125 -4.09375 C 4.9375 -4.09375 4.851562 -4.085938 4.78125 -4.078125 C 4.707031 -4.078125 4.640625 -4.066406 4.578125 -4.046875 C 4.429688 -3.992188 4.375 -3.925781 4.40625 -3.84375 C 4.425781 -3.78125 4.453125 -3.707031 4.484375 -3.625 C 4.515625 -3.539062 4.53125 -3.429688 4.53125 -3.296875 C 4.53125 -3.035156 4.457031 -2.796875 4.3125 -2.578125 C 4.164062 -2.359375 3.941406 -2.179688 3.640625 -2.046875 C 3.347656 -1.921875 2.976562 -1.859375 2.53125 -1.859375 C 2.25 -1.859375 2.023438 -1.84375 1.859375 -1.8125 C 1.703125 -1.78125 1.585938 -1.734375 1.515625 -1.671875 C 1.441406 -1.617188 1.40625 -1.5625 1.40625 -1.5 C 1.40625 -1.414062 1.460938 -1.351562 1.578125 -1.3125 C 1.703125 -1.269531 1.894531 -1.242188 2.15625 -1.234375 L 3.328125 -1.171875 C 3.878906 -1.140625 4.28125 -1.007812 4.53125 -0.78125 C 4.789062 -0.550781 4.921875 -0.257812 4.921875 0.09375 C 4.921875 0.53125 4.71875 0.882812 4.3125 1.15625 C 3.90625 1.425781 3.320312 1.5625 2.5625 1.5625 C 1.78125 1.5625 1.1875 1.457031 0.78125 1.25 C 0.375 1.039062 0.171875 0.738281 0.171875 0.34375 C 0.171875 0.132812 0.242188 -0.046875 0.390625 -0.203125 C 0.535156 -0.359375 0.738281 -0.492188 1 -0.609375 C 1.070312 -0.640625 1.070312 -0.675781 1 -0.71875 C 0.875 -0.78125 0.769531 -0.851562 0.6875 -0.9375 C 0.601562 -1.03125 0.5625 -1.144531 0.5625 -1.28125 C 0.5625 -1.375 0.59375 -1.460938 0.65625 -1.546875 C 0.71875 -1.640625 0.800781 -1.722656 0.90625 -1.796875 C 1.019531 -1.867188 1.15625 -1.929688 1.3125 -1.984375 C 1.34375 -2.003906 1.359375 -2.019531 1.359375 -2.03125 C 1.367188 -2.050781 1.351562 -2.070312 1.3125 -2.09375 C 1.050781 -2.226562 0.851562 -2.394531 0.71875 -2.59375 C 0.59375 -2.789062 0.53125 -3.023438 0.53125 -3.296875 C 0.53125 -3.742188 0.707031 -4.101562 1.0625 -4.375 C 1.414062 -4.644531 1.929688 -4.78125 2.609375 -4.78125 C 2.921875 -4.78125 3.1875 -4.742188 3.40625 -4.671875 C 3.632812 -4.597656 3.820312 -4.503906 3.96875 -4.390625 C 4.007812 -4.359375 4.046875 -4.34375 4.078125 -4.34375 C 4.117188 -4.34375 4.148438 -4.359375 4.171875 -4.390625 C 4.242188 -4.460938 4.328125 -4.53125 4.421875 -4.59375 C 4.515625 -4.664062 4.613281 -4.722656 4.71875 -4.765625 C 4.832031 -4.804688 4.941406 -4.828125 5.046875 -4.828125 Z M 2.53125 -2.390625 C 2.914062 -2.390625 3.195312 -2.46875 3.375 -2.625 C 3.5625 -2.789062 3.65625 -3.015625 3.65625 -3.296875 C 3.65625 -3.585938 3.5625 -3.816406 3.375 -3.984375 C 3.195312 -4.148438 2.914062 -4.234375 2.53125 -4.234375 C 2.164062 -4.234375 1.882812 -4.148438 1.6875 -3.984375 C 1.488281 -3.816406 1.390625 -3.585938 1.390625 -3.296875 C 1.390625 -3.015625 1.488281 -2.789062 1.6875 -2.625 C 1.882812 -2.46875 2.164062 -2.390625 2.53125 -2.390625 Z M 1.78125 -0.484375 C 1.675781 -0.484375 1.5625 -0.453125 1.4375 -0.390625 C 1.3125 -0.335938 1.203125 -0.253906 1.109375 -0.140625 C 1.023438 -0.0351562 0.984375 0.0820312 0.984375 0.21875 C 0.984375 0.382812 1.039062 0.523438 1.15625 0.640625 C 1.269531 0.765625 1.453125 0.859375 1.703125 0.921875 C 1.953125 0.992188 2.269531 1.03125 2.65625 1.03125 C 3.113281 1.03125 3.460938 0.960938 3.703125 0.828125 C 3.953125 0.691406 4.078125 0.492188 4.078125 0.234375 C 4.078125 0.0546875 4.007812 -0.0859375 3.875 -0.203125 C 3.75 -0.316406 3.535156 -0.382812 3.234375 -0.40625 Z M 1.78125 -0.484375 "/></g></g></g><g fill="#545454" fill-opacity="1"><g transform="translate(52.825506, 37.931724)"><g><path d="M 2.328125 -0.625 C 2.566406 -0.625 2.789062 -0.6875 3 -0.8125 C 3.207031 -0.9375 3.414062 -1.109375 3.625 -1.328125 L 3.625 -4.5625 C 3.625 -4.664062 3.675781 -4.71875 3.78125 -4.71875 L 4.421875 -4.71875 C 4.515625 -4.71875 4.5625 -4.664062 4.5625 -4.5625 L 4.546875 -0.125 C 4.546875 -0.0390625 4.515625 0 4.453125 0 L 3.75 0 C 3.675781 0 3.640625 -0.0351562 3.640625 -0.109375 L 3.640625 -0.609375 C 3.640625 -0.640625 3.628906 -0.660156 3.609375 -0.671875 C 3.597656 -0.679688 3.582031 -0.671875 3.5625 -0.640625 C 3.257812 -0.367188 2.984375 -0.175781 2.734375 -0.0625 C 2.484375 0.0390625 2.226562 0.09375 1.96875 0.09375 C 1.695312 0.09375 1.457031 0.0351562 1.25 -0.078125 C 1.039062 -0.191406 0.875 -0.351562 0.75 -0.5625 C 0.625 -0.769531 0.5625 -1.015625 0.5625 -1.296875 L 0.5625 -4.546875 C 0.5625 -4.660156 0.617188 -4.71875 0.734375 -4.71875 L 1.375 -4.71875 C 1.46875 -4.71875 1.515625 -4.664062 1.515625 -4.5625 L 1.515625 -1.484375 C 1.515625 -1.234375 1.585938 -1.023438 1.734375 -0.859375 C 1.878906 -0.703125 2.078125 -0.625 2.328125 -0.625 Z M 2.328125 -0.625 "/></g></g></g><g fill="#545454" fill-opacity="1"><g transform="translate(58.008554, 37.931724)"><g><path d="M 0.765625 0 C 0.710938 0 0.675781 -0.0078125 0.65625 -0.03125 C 0.632812 -0.0625 0.625 -0.0976562 0.625 -0.140625 L 0.625 -4.578125 C 0.625 -4.671875 0.660156 -4.71875 0.734375 -4.71875 L 1.421875 -4.71875 C 1.492188 -4.71875 1.53125 -4.675781 1.53125 -4.59375 L 1.53125 -4.03125 C 1.53125 -4 1.539062 -3.976562 1.5625 -3.96875 C 1.582031 -3.96875 1.601562 -3.984375 1.625 -4.015625 C 1.769531 -4.191406 1.914062 -4.335938 2.0625 -4.453125 C 2.21875 -4.566406 2.375 -4.648438 2.53125 -4.703125 C 2.6875 -4.765625 2.84375 -4.796875 3 -4.796875 C 3.207031 -4.796875 3.3125 -4.753906 3.3125 -4.671875 L 3.3125 -3.984375 C 3.3125 -3.910156 3.273438 -3.878906 3.203125 -3.890625 C 3.140625 -3.910156 3.066406 -3.921875 2.984375 -3.921875 C 2.898438 -3.929688 2.816406 -3.9375 2.734375 -3.9375 C 2.609375 -3.9375 2.476562 -3.910156 2.34375 -3.859375 C 2.207031 -3.804688 2.082031 -3.734375 1.96875 -3.640625 C 1.851562 -3.546875 1.753906 -3.441406 1.671875 -3.328125 C 1.597656 -3.222656 1.5625 -3.109375 1.5625 -2.984375 L 1.5625 -0.15625 C 1.5625 -0.0507812 1.503906 0 1.390625 0 Z M 0.765625 0 "/></g></g></g><g fill="#545454" fill-opacity="1"><g transform="translate(61.404649, 37.931724)"><g><path d="M 2.65625 0.09375 C 2.195312 0.09375 1.796875 -0.0078125 1.453125 -0.21875 C 1.109375 -0.425781 0.84375 -0.710938 0.65625 -1.078125 C 0.46875 -1.441406 0.375 -1.859375 0.375 -2.328125 C 0.375 -2.816406 0.46875 -3.242188 0.65625 -3.609375 C 0.851562 -3.984375 1.125 -4.273438 1.46875 -4.484375 C 1.820312 -4.691406 2.222656 -4.796875 2.671875 -4.796875 C 3.128906 -4.796875 3.53125 -4.691406 3.875 -4.484375 C 4.21875 -4.273438 4.484375 -3.984375 4.671875 -3.609375 C 4.859375 -3.242188 4.953125 -2.820312 4.953125 -2.34375 C 4.953125 -1.863281 4.851562 -1.441406 4.65625 -1.078125 C 4.46875 -0.710938 4.203125 -0.425781 3.859375 -0.21875 C 3.515625 -0.0078125 3.113281 0.09375 2.65625 0.09375 Z M 2.671875 -0.578125 C 2.953125 -0.578125 3.191406 -0.644531 3.390625 -0.78125 C 3.585938 -0.925781 3.734375 -1.128906 3.828125 -1.390625 C 3.929688 -1.660156 3.984375 -1.984375 3.984375 -2.359375 C 3.984375 -2.734375 3.929688 -3.050781 3.828125 -3.3125 C 3.734375 -3.582031 3.582031 -3.789062 3.375 -3.9375 C 3.175781 -4.082031 2.941406 -4.15625 2.671875 -4.15625 C 2.390625 -4.15625 2.148438 -4.082031 1.953125 -3.9375 C 1.753906 -3.789062 1.597656 -3.582031 1.484375 -3.3125 C 1.378906 -3.050781 1.328125 -2.734375 1.328125 -2.359375 C 1.328125 -1.984375 1.378906 -1.660156 1.484375 -1.390625 C 1.597656 -1.128906 1.753906 -0.925781 1.953125 -0.78125 C 2.148438 -0.644531 2.390625 -0.578125 2.671875 -0.578125 Z M 2.671875 -0.578125 "/></g></g></g></svg>