<svg width="589" height="447" viewBox="0 0 589 447" fill="none" xmlns="http://www.w3.org/2000/svg">
<path opacity="0.2" d="M581.76 128.3C581.658 128.78 581.561 129.26 581.448 129.735C577.912 146.06 572.135 161.792 563.544 176.239C563.258 176.719 562.972 177.2 562.681 177.68C557.017 186.975 550.238 195.542 542.498 203.19C538.218 207.421 533.551 211.442 528 214.34C520.223 218.409 511.131 220.06 502.195 221.409C492.914 222.818 483.504 223.994 474.121 225.263C470.786 225.705 467.472 226.175 464.177 226.671C455.112 228.015 446.111 229.569 437.326 231.631C426.466 234.173 415.941 237.502 405.997 242.187C405.203 242.547 404.418 242.928 403.642 243.331C402.866 243.719 402.084 244.113 401.319 244.513C400.554 244.912 399.799 245.312 399.05 245.722C398.662 245.932 398.274 246.143 397.891 246.364C397.508 246.585 397.131 246.779 396.759 246.995C395.638 247.621 394.539 248.264 393.439 248.911L393.396 248.938C392.669 249.364 391.952 249.802 391.24 250.239C387.177 252.71 383.199 255.29 379.222 257.886L376.721 259.505L372.846 262.014C372.091 262.505 371.321 262.997 370.561 263.482C370.022 263.838 369.483 264.195 368.895 264.562C366.071 266.343 363.21 268.091 360.272 269.759C359.577 270.158 358.876 270.557 358.17 270.946C352.236 274.261 346.03 277.063 339.62 279.322L339.533 279.354C336.308 280.481 333.018 281.41 329.681 282.139C327.757 282.56 325.828 282.905 323.877 283.17C318.661 283.91 313.373 283.984 308.139 283.391C297.861 282.198 288.23 278.248 277.958 276.915C256.809 274.216 236.27 282.91 216.383 289.721C211.492 291.394 206.566 292.961 201.604 294.422C198.306 295.398 194.997 296.321 191.661 297.212C171.221 302.619 150.361 306.282 129.304 308.162C120.501 309.025 111.646 309.222 102.814 308.75C99.4567 308.545 96.1367 308.21 92.8761 307.671C81.7198 305.944 71.318 302.322 62.9211 295.69C56.044 290.245 51.1234 283.148 47.3777 275.722C43.5433 268.145 40.8361 260.047 39.3419 251.685C39.1371 250.546 38.9538 249.402 38.8029 248.258C38.5335 246.301 38.3322 244.333 38.1993 242.354C37.4741 231.807 38.7319 221.217 41.9073 211.134C45.4644 199.844 51.3929 189.008 54.0014 177.631C54.1092 177.149 54.2116 176.669 54.3086 176.19C54.6649 174.462 54.9293 172.717 55.1009 170.961C56.4321 156.983 51.3282 143.357 47.3238 129.687C47.1836 129.212 47.0435 128.732 46.9088 128.251C46.4776 126.733 46.0644 125.217 45.6692 123.702C41.9612 109.249 40.9318 93.7771 44.2356 79.3516C44.338 78.8713 44.4619 78.391 44.5805 77.9161C46.7923 68.7976 50.9515 60.2675 56.7716 52.9131C62.9588 45.1418 71.0808 38.6712 79.758 32.9884C83.9869 30.2181 88.3597 27.6295 92.8761 25.2226C96.1098 23.4956 99.4226 21.8604 102.814 20.3169C130.005 7.90449 161.021 1.84397 191.693 3.18236C193.31 3.25251 194.927 3.33886 196.544 3.45759C198.161 3.57632 199.928 3.71663 201.621 3.87314C221.379 5.79437 240.603 10.4302 259.693 15.4977C266.09 17.1976 272.477 18.9408 278.858 20.6515C281.698 21.4071 284.533 22.1626 287.373 22.8966C301.284 26.4962 315.399 29.7558 329.692 32.1897C333.001 32.7618 336.314 33.2835 339.63 33.7548C351.145 35.4493 362.752 36.4351 374.387 36.7068C378.911 36.7967 383.436 36.7571 387.964 36.588C390.249 36.5053 392.536 36.3812 394.824 36.2157C418.458 34.5481 441.298 28.9679 464.177 23.7546C467.486 22.9991 470.801 22.2544 474.121 21.5204C478.475 20.5598 482.83 19.6316 487.206 18.7735C514.44 13.4145 538.714 16.4961 564.034 27.5539C569.79 30.0634 575.541 33.0964 579.066 37.8077C582.59 42.519 583.474 48.3043 584.132 53.8899C585.064 61.8447 585.673 69.902 585.905 78.0025C585.905 78.4774 585.905 78.9577 585.937 79.438C586.304 95.8008 585.086 112.32 581.76 128.3Z" fill="#E05D51"/>
<path opacity="0.1" fill-rule="evenodd" clip-rule="evenodd" d="M473.915 80.0318H586C586 79.5524 586 79.0729 585.968 78.5989H473.915V22.2403C470.588 22.9586 467.265 23.702 463.948 24.4705V78.5989H342.047L341.739 78.3242L342.204 77.9147L387.546 37.2861C383.008 37.4585 378.472 37.498 373.938 37.4047L339.097 68.6168V34.4688C335.769 33.9983 332.449 33.4776 329.135 32.9065V67.0438L278.196 21.3892C275.628 20.7037 273.06 20.0131 270.49 19.3221L270.486 19.3211C266.656 18.2909 262.822 17.2601 258.984 16.2446L328.26 78.3242L327.952 78.5989H200.778V4.68953C199.082 4.53152 197.386 4.39325 195.689 4.27474C194.069 4.15622 192.448 4.07003 190.827 4V78.5989H101.719V21.1037C98.3553 22.6407 95.0346 24.273 91.7571 26.0004V78.5989H43.3458L43.2893 78.8234C43.1883 79.2241 43.0865 79.628 43 80.0318H91.7571V128.843H45.6796C45.8147 129.323 45.9551 129.802 46.0956 130.276H91.7571V176.696H53.0972C52.9999 177.173 52.8973 177.653 52.7892 178.134H91.7571V307.923C94.9986 308.424 98.3535 308.774 101.719 309V178.134H190.811V297.472C194.155 296.583 197.472 295.662 200.778 294.687V178.134H329.141V178.123H302.944L302.915 178.033L302.887 177.95L302.841 177.812C302.767 177.592 302.691 177.372 302.616 177.153L302.615 177.153L302.615 177.152L302.615 177.151C302.579 177.046 302.543 176.941 302.507 176.836C302.505 176.831 302.503 176.826 302.501 176.821L302.503 176.825L302.503 176.825C302.497 176.808 302.489 176.793 302.482 176.777C302.469 176.751 302.456 176.725 302.453 176.696H329.141V131.298C329.788 131.182 330.426 131.014 331.048 130.799L331.318 130.707L331.61 130.594C331.809 130.524 331.977 130.449 332.15 130.362C332.555 130.168 332.949 129.953 333.333 129.727C333.516 129.624 333.694 129.512 333.872 129.399L333.873 129.398C334.311 129.118 334.741 128.825 335.171 128.533C335.435 128.353 335.699 128.174 335.964 127.997L336.504 127.653L336.763 127.48C337.034 127.313 337.304 127.152 337.574 127.006L337.849 126.861L338.125 126.715L338.217 126.667H338.249L338.687 126.462L339.103 126.301V81.3409L340.853 80.0318H463.948V128.843H339.103V128.859H354.457H354.484L354.602 128.924C354.775 129.016 354.9 129.091 355.105 129.199C355.31 129.306 355.504 129.42 355.699 129.533L355.699 129.533L356.034 129.737L356.293 129.904C356.493 130.023 356.688 130.152 356.877 130.276H463.948V176.696H400.734L400.972 178.134H463.948V227.037C467.261 226.552 470.584 226.087 473.915 225.642V178.134H562.688C562.98 177.655 563.267 177.175 563.553 176.696H473.915V130.276H581.5C581.613 129.802 581.71 129.323 581.813 128.843H473.915V80.0318ZM379.4 176.696C379.367 176.936 379.336 177.175 379.305 177.415C379.274 177.655 379.243 177.894 379.211 178.134H379.221C379.254 177.894 379.285 177.653 379.316 177.413C379.347 177.174 379.378 176.935 379.41 176.696H379.4ZM380.357 177.511C380.345 177.597 380.334 177.684 380.322 177.772L380.322 177.771C380.334 177.684 380.345 177.597 380.357 177.511ZM339.103 178.134H339.06V228.637C339.03 228.632 339.001 228.625 338.972 228.619C338.888 228.601 338.805 228.583 338.725 228.583L338.454 228.535L336.472 228.621L335.645 228.502L335.067 228.422L334.813 228.389L333.619 228.244H333.517L332.841 228.174L332.22 228.115L330.864 227.948L330.016 227.899L329.546 227.872H329.141V227.877V282.399C332.486 281.672 335.784 280.744 339.016 279.619L339.103 279.587V178.134ZM329.141 131.298V130.276H200.778V176.696H302.453C302.453 176.692 302.453 176.689 302.453 176.685H329.103V131.305C329.115 131.303 329.128 131.301 329.141 131.298ZM397.611 176.696H398.951V177.331V178.134H396.439L397.611 176.696ZM190.811 80.0318H101.719V128.843H190.811V80.0318ZM101.719 176.696V130.276H190.811V176.696H101.719ZM329.141 80.0318H200.778V128.843H329.141V80.0318Z" fill="#E05D51"/>
<path opacity="0.1" d="M144.374 46.9968H145.164C144.634 46.7823 144.264 46.3122 144.197 45.7653C144.197 44.7928 145.718 44 147.576 44H171.224C173.082 44 174.598 44.7928 174.598 45.7653C174.598 46.7326 173.082 47.5307 171.224 47.5307H170.433C170.965 47.7416 171.335 48.2107 171.401 48.7569C171.401 49.5867 170.295 50.2844 168.818 50.4693H175.626C177.479 50.4693 179 51.2622 179 52.2347C179 53.2072 177.479 54 175.626 54H151.972C150.12 54 148.599 53.2019 148.599 52.2347C148.599 51.4049 149.705 50.7125 151.182 50.5222H144.374C142.515 50.5222 141 49.7294 141 48.7569C141 47.7844 142.515 46.9968 144.374 46.9968Z" fill="#E05D51"/>
<path opacity="0.1" d="M395.374 63.9968H396.164C395.636 63.7808 395.269 63.311 395.202 62.7653C395.202 61.7928 396.718 61 398.576 61H422.224C424.082 61 425.603 61.7928 425.603 62.7653C425.603 63.7326 424.082 64.5254 422.224 64.5254H421.439C421.967 64.7414 422.334 65.2112 422.401 65.7569C422.401 66.5867 421.295 67.2844 419.818 67.4693H426.626C428.485 67.4693 430 68.2622 430 69.2347C430 70.2072 428.485 71 426.626 71H402.978C401.12 71 399.599 70.2019 399.599 69.2347C399.599 68.4049 400.705 67.7072 402.182 67.5222H395.374C393.521 67.5222 392 66.7294 392 65.7569C392 64.7844 393.521 63.9968 395.374 63.9968Z" fill="#E05D51"/>
<path opacity="0.1" d="M109.379 136.997H110.164C109.635 136.782 109.267 136.311 109.202 135.765C109.202 134.798 110.722 134 112.575 134H136.225C138.078 134 139.598 134.798 139.598 135.765C139.598 136.738 138.078 137.531 136.225 137.531H135.435C135.964 137.742 136.333 138.211 136.397 138.757C136.397 139.587 135.291 140.284 133.814 140.469H140.621C142.479 140.469 144 141.267 144 142.235C144 143.202 142.479 144 140.621 144H116.999C115.141 144 113.625 143.207 113.625 142.235C113.625 141.41 114.731 140.712 116.208 140.522H109.379C107.521 140.522 106 139.729 106 138.757C106 137.784 107.543 136.997 109.379 136.997Z" fill="#E05D51"/>
<path opacity="0.1" d="M543.715 328.97C547.589 310.017 500.153 284.32 437.762 271.574C375.372 258.828 321.653 263.86 317.779 282.813C313.904 301.766 361.341 327.463 423.731 340.209C486.122 352.955 539.84 347.923 543.715 328.97Z" fill="#E05D51"/>
<path d="M418 207.262C418 207.262 424.126 177.416 447.513 180.181C447.513 180.181 463.676 181.283 467 191.785V215L418 207.262Z" fill="#3A3768"/>
<path d="M545 219.283L336.728 202L310 207.576L311.67 244.919L313.491 245.14L315.565 301.217L519.936 338L541.66 319.606V258.816L544.44 257.182L545 219.283Z" fill="#D48A9B"/>
<path opacity="0.05" d="M545 219L544.449 256.516L522.275 267L522 227.824L545 219Z" fill="black"/>
<path opacity="0.05" d="M542.722 259L543 318.614L521 337L522.414 267.915L542.722 259Z" fill="black"/>
<path opacity="0.05" d="M315.157 246.947L523.892 273L524 268.056L315 245L315.157 246.947Z" fill="black"/>
<path opacity="0.05" d="M542 260.357V258L522 267.799V273L542 260.357Z" fill="black"/>
<path d="M310 207.534L336.728 202L545 219.153L521.612 228L310 207.534Z" fill="#EFC6CD"/>
<path opacity="0.1" d="M523.605 219L534 219.699L516.773 225L508 224.352L523.605 219Z" fill="black"/>
<path d="M523.605 219L534 219.698L516.773 225L508 224.347L523.605 219Z" fill="white"/>
<path d="M522 220.08C522.348 219.799 522.714 220.335 523.085 220.467C523.298 220.546 523.516 220.467 523.73 220.546C524.161 220.652 524.587 221.197 525 220.925" fill="#D3DAE1"/>
<path d="M522 220.081C522.343 219.8 522.714 220.327 523.085 220.468C523.298 220.538 523.516 220.468 523.73 220.538C524.161 220.652 524.587 221.197 525 220.925" fill="#D3DAE1"/>
<path d="M521 222.082C521.348 221.799 521.719 222.329 522.09 222.461C522.298 222.541 522.521 222.461 522.73 222.541C523.165 222.655 523.592 223.202 524 222.92" fill="#D3DAE1"/>
<path opacity="0.1" d="M479.605 215L490 215.704L472.773 221L464 220.347L479.605 215Z" fill="black"/>
<path d="M479.605 215L490 215.699L472.773 221L464 220.352L479.605 215Z" fill="white"/>
<path d="M479 216.081C479.348 215.8 479.714 216.327 480.085 216.468C480.298 216.538 480.516 216.468 480.73 216.538C481.161 216.652 481.587 217.197 482 216.925" fill="#D3DAE1"/>
<path d="M477 216.082C477.343 215.799 477.714 216.329 478.085 216.461C478.298 216.541 478.516 216.461 478.73 216.541C479.161 216.655 479.587 217.202 480 216.92" fill="#D3DAE1"/>
<path d="M476 216.08C476.348 215.8 476.719 216.334 477.09 216.466C477.298 216.545 477.521 216.466 477.73 216.545C478.165 216.65 478.592 217.202 479 216.921" fill="#D3DAE1"/>
<path opacity="0.1" d="M500.602 218L511 218.698L493.776 224L485 223.347L500.602 218Z" fill="black"/>
<path d="M500.602 216L511 216.699L493.776 222L485 221.346L500.602 216Z" fill="white"/>
<path d="M499 217.082C499.348 216.799 499.719 217.329 500.09 217.462C500.298 217.541 500.516 217.462 500.73 217.541C501.161 217.647 501.592 218.203 502 217.921" fill="#D3DAE1"/>
<path d="M499 219.08C499.348 218.8 499.719 219.334 500.09 219.466C500.298 219.545 500.516 219.466 500.73 219.545C501.161 219.65 501.592 220.202 502 219.921" fill="#D3DAE1"/>
<path d="M498 219.081C498.343 218.8 498.714 219.327 499.085 219.468C499.298 219.538 499.516 219.468 499.73 219.538C500.161 219.652 500.587 220.197 501 219.925" fill="#D3DAE1"/>
<path opacity="0.1" d="M269.5 427C329.975 427 379 416.926 379 404.5C379 392.074 329.975 382 269.5 382C209.025 382 160 392.074 160 404.5C160 416.926 209.025 427 269.5 427Z" fill="#E05D51"/>
<path fill-rule="evenodd" clip-rule="evenodd" d="M382.891 199.649C382.891 199.649 387.508 209.423 388.674 219.667C389.856 229.917 387.443 235.336 387.443 235.336L377.4 245.591L373.502 250.632L371.342 261.669L370.705 264.908L370.165 267.752C370.047 268.546 369.949 269.156 369.879 269.533C369.172 273.56 367.99 291.295 367.99 291.295C365.865 292.317 363.662 293.167 361.403 293.837C361.345 294.15 361.286 294.474 361.224 294.809C359.875 302.657 359.372 316.738 359.372 316.738C359.372 316.738 363.983 323.766 362.207 328.715C360.431 333.664 363.859 341.836 363.859 341.836C363.859 341.836 364.923 374.079 362.914 377.302C360.906 380.524 363.384 393.418 363.384 393.418C363.249 393.763 363.103 394.098 362.957 394.422C362.979 394.49 363 394.56 363.022 394.63C363.054 394.738 363.087 394.849 363.119 394.962C363.471 396.124 363.885 397.499 364.294 398.857L364.319 398.942L364.329 398.975C365.001 401.207 365.654 403.375 365.986 404.461C366.813 407.224 362.677 409.529 357.834 410.565C352.991 411.602 346.614 416.319 346.614 416.319C346.614 416.319 334.331 418.85 325.946 417.701C317.561 416.551 318.997 407.683 325.476 405.497C329.979 403.981 334.59 400.267 336.998 398.108L337.047 398.07C337.02 397.66 336.852 394.562 336.912 391.184C332.884 389.737 327.733 392.948 327.733 392.948C327.733 392.948 310.726 392.603 305.056 390.876C299.387 389.149 305.882 380.626 315.099 381.436C318.479 381.727 320.725 381.015 322.258 379.989C322.48 379.838 322.679 379.682 322.874 379.525C322.258 379.158 321.918 378.791 321.945 378.446C322.183 375.45 325.492 370.96 325.492 370.96C325.492 370.96 320.293 367.727 321.357 366.242C322.42 364.758 319.937 360.845 319.937 360.845C319.937 360.845 319.105 346.683 318.047 343.574C316.989 340.465 315.212 331.025 315.212 331.025C315.212 331.025 315.099 323.312 315.099 319.858C315.099 316.404 314.267 291.074 314.267 291.074L314.159 275.055C312.392 275.994 310.949 277.444 310.018 279.216C310.018 279.216 310.65 271.039 311.438 260.245L311.319 260.218L311.552 258.685L311.575 258.366C312.077 251.432 312.644 243.588 313.139 236.194L312.146 234.429L313.571 225.529L296.963 228.816C296.463 229.034 295.921 229.14 295.376 229.129C293.194 229.07 292.568 226.517 292.46 224.158C291.919 224.646 291.266 224.994 290.56 225.173C289.841 227.17 286.397 229.053 286.397 229.053L276.241 222.22C276.241 222.22 276.894 221.589 277.709 220.952C275.215 220.941 268.871 220.887 267.737 220.612C266.94 220.415 263.123 221.094 258.654 221.888C257.733 222.052 256.783 222.221 255.826 222.388C255.976 223.966 256.008 225.554 255.924 227.137C255.621 229.844 255.676 232.579 256.086 235.271L260.356 249.067L259.217 249.455L263.034 256.893C263.034 256.893 270.28 266.872 261.776 270.71C255.022 273.759 253.732 258.032 253.483 251.425L253.224 251.512L254.687 287.447L256.577 321.688L255.945 347.481C255.945 347.481 256.102 353.953 252.322 361.606C248.543 369.26 253.111 373.577 253.111 373.577C253.058 373.695 252.999 373.807 252.941 373.917L252.94 373.918C252.921 373.954 252.902 373.99 252.884 374.025C256.177 376.238 261.215 378.306 269.017 381.409C280.198 385.856 274.529 387.395 274.529 387.395C274.529 387.395 256.113 394.303 250.125 388.927C244.137 383.552 239.731 385.09 239.731 385.09C239.731 385.09 229.338 385.246 227.286 384.475C226.082 384.027 226.73 380.238 227.47 377.188C227.513 374.317 227.54 366.728 226.66 362.675C225.558 357.612 225.71 336.277 226.341 333.664C226.973 331.052 227.286 325.984 227.286 325.984C227.286 325.984 226.811 319.998 227.605 317.084C228.078 315.473 227.626 313.732 226.428 312.555L226.341 312.48C226.341 312.48 222.875 323.971 221.617 325.973C220.497 327.756 219.981 335.851 219.785 338.91L219.785 338.91C219.761 339.287 219.742 339.588 219.727 339.79C219.592 341.636 213.113 356.986 213.113 356.986C213.113 356.986 210.549 364.062 210.079 366.059C209.609 368.056 207.72 373.734 207.72 373.734L200.863 386.688L201.073 387.227L207.244 403.225C207.244 403.225 208.664 410.603 201.419 410.905C194.173 411.208 184.724 403.225 184.724 403.225L184.255 394.935C184.255 394.935 183.623 395.248 182.365 393.402C181.517 392.166 182.737 387.055 183.628 383.816L183.672 383.659L183.672 383.658L183.673 383.655C183.721 383.483 183.766 383.32 183.812 383.163L183.466 382.656C181.107 379.104 180 366.69 180 366.69C180 366.69 188.682 366.534 186.479 358.4C184.972 352.837 186.411 348.133 187.42 344.83C187.887 343.304 188.262 342.078 188.212 341.204C188.056 338.441 190.102 329.39 191.203 328.008C192.305 326.626 192.148 320.775 191.835 317.564C191.522 314.353 191.678 302.991 191.678 302.991C191.678 302.991 191.997 297.929 193.568 295.624C195.139 293.319 194.513 286.718 194.513 286.718C194.513 286.718 197.504 285.186 195.458 270.294C193.412 255.403 198.762 236.059 198.762 236.059L198.94 233.36L199 232.465C197.133 231.7 195.194 231.125 193.212 230.748C193.212 230.748 190.258 210.255 191.441 205.764C192.376 202.213 190.728 193.775 189.645 188.23L189.645 188.23C189.359 186.762 189.112 185.498 188.963 184.579C188.25 180.191 190.971 168.118 194.275 166.158C196.08 165.088 198.308 162.645 200.421 160.328C202.177 158.403 203.852 156.566 205.139 155.677C207.525 154.031 210.165 151.893 210.937 151.256L211.164 151.073C211.164 151.073 211.634 147.516 213.524 145.676C213.552 145.654 213.583 145.635 213.615 145.622C213.545 145.114 213.459 144.612 213.362 144.116C212.151 143.912 210.973 143.549 209.858 143.036C209.091 140.403 206.792 138.714 204.474 137.011C202.383 135.475 200.276 133.927 199.264 131.664C198.635 130.249 198.5 128.664 198.881 127.163C198.96 126.855 199.061 126.546 199.162 126.237L199.162 126.237L199.162 126.237C199.448 125.367 199.734 124.493 199.534 123.617C199.483 123.385 199.397 123.164 199.311 122.941C199.252 122.79 199.194 122.638 199.146 122.483C198.967 121.843 198.903 121.176 198.957 120.513C199.087 117.906 199.997 115.397 201.57 113.313C201.969 112.784 202.412 112.278 202.855 111.771C203.939 110.532 205.021 109.295 205.446 107.743C205.524 107.254 205.692 106.783 205.943 106.356C206.215 106.037 206.557 105.786 206.942 105.622C208.417 104.891 210.012 104.43 211.65 104.262C212.45 104.181 213.255 104.17 214.059 104.159C215.029 104.146 215.998 104.133 216.958 103.997C218.211 103.818 219.418 103.432 220.625 103.047C221.772 102.68 222.919 102.314 224.106 102.125C227.383 101.596 231.022 102.778 233.139 105.158L233.058 104.942C233.857 105.777 234.441 106.794 234.759 107.905C234.908 108.687 235.108 109.459 235.358 110.215C235.53 110.622 235.77 111 236.009 111.378L236.009 111.378C236.348 111.911 236.684 112.442 236.827 113.049C237.025 114.094 236.633 115.164 235.806 115.834C235.762 115.874 235.715 115.912 235.666 115.947L235.849 116.152C238.439 119.216 239.86 123.098 239.861 127.109V127.341V127.568C239.851 132.66 237.566 137.482 233.63 140.715C232.21 145.762 232.75 151.553 233.679 156.173C233.779 156.13 233.889 156.113 233.997 156.125C234.03 156.125 234.089 156.19 234.17 156.319C234.678 156.389 236.665 159.234 237.026 160.497C237.026 160.497 237.577 161.436 238.414 162.893C240.293 164.367 243.478 167.751 245.692 174.621C248.996 184.909 253.408 202.407 253.408 202.407C253.408 202.407 253.526 203.2 253.715 204.506C254.363 204.817 254.975 205.197 255.54 205.64C255.54 205.64 258.019 207.259 259.201 207.022C260.383 206.784 262.392 208.403 262.392 208.403L268.061 209.553L279.162 210.125L279.129 210.832C279.281 210.762 279.437 210.692 279.61 210.622C281.056 209.99 282.582 209.561 284.145 209.348L284.226 209.31L284.329 209.261C285.693 208.695 287.183 208.496 288.648 208.684C291.332 208.805 293.999 209.166 296.617 209.763L296.531 209.191C299.501 209.882 309.759 208.959 309.759 208.959L314.732 204.593C315.241 202.408 315.894 200.258 316.686 198.159C316.686 198.159 320.585 177.32 320.703 175.938C320.822 174.557 323.306 169.489 325.779 167.994C328.251 166.498 336.577 160.853 336.577 160.853L336.653 161.139L336.777 160.869C337.097 156.943 336.713 152.991 335.643 149.2C335.546 148.833 335.443 148.471 335.341 148.121C329.374 145.077 325.605 138.959 325.573 132.263C325.571 128.42 326.828 124.681 329.153 121.62H328.991C328.068 121.631 327.004 121.56 326.394 120.929C326.285 120.838 326.189 120.732 326.108 120.616C325.53 119.774 325.968 118.651 326.545 117.793C326.652 117.634 326.764 117.477 326.877 117.32C327.373 116.625 327.872 115.926 327.911 115.094C327.956 114.147 327.387 113.302 326.843 112.495L326.77 112.387L326.718 112.309C326.14 111.446 325.676 110.35 326.14 109.427L327.317 109.497L327.35 109.605L334.417 110.015C335.784 110.123 337.156 110.146 338.526 110.086C339.246 110.039 339.966 109.944 340.686 109.849C341.046 109.802 341.406 109.755 341.766 109.713C345.908 109.241 350.103 109.554 354.13 110.636C357.704 111.597 361.181 113.221 363.703 115.877C365.121 117.459 366.32 119.226 367.266 121.129C367.802 122.056 368.226 123.043 368.529 124.07C368.827 125.391 368.891 126.754 368.718 128.097C368.076 134.676 364.923 140.775 361.262 146.334C360.528 147.446 359.653 148.628 358.336 148.925C357.745 149.032 357.139 149.017 356.554 148.882C356.414 148.855 356.268 148.817 356.127 148.779C356.27 149.705 356.479 150.62 356.754 151.515C357.429 151.256 358.266 151.785 359.135 152.714C360.406 154.017 361.495 155.486 362.374 157.08L362.277 157.269C363.352 159.131 364.113 160.723 364.113 160.723C364.113 160.723 378.28 166.714 380.408 169.937C382.001 172.35 382.201 176.642 382.301 178.787V178.787V178.787C382.334 179.505 382.357 179.982 382.416 180.067C382.654 180.407 384.781 184.088 383.836 187.084C383.429 188.649 383.217 190.259 383.204 191.877C383.318 194.467 383.242 196.195 383.242 196.195L382.891 199.649ZM233.727 156.395L233.803 156.341C233.766 156.323 233.732 156.302 233.7 156.276C233.707 156.316 233.716 156.356 233.727 156.395ZM333.024 168.911L332.636 169.758L334.056 168.344L332.128 170.503L332.776 169.143L333.024 168.911ZM322.247 191.887C322.663 190.776 323.063 189.707 323.435 188.719L323.009 189.615L322.247 191.887Z" fill="url(#paint0_linear)"/>
<path d="M292.223 222.309C292.223 222.309 290.827 230.888 295.015 230.999C299.203 231.109 302 224.381 302 224.381L300.291 219L292.223 222.309Z" fill="#585B8A"/>
<path opacity="0.2" d="M292.223 222.309C292.223 222.309 290.827 230.888 295.015 230.999C299.203 231.109 302 224.381 302 224.381L300.291 219L292.223 222.309Z" fill="black"/>
<path d="M203.131 411.992C195.964 412.291 186.617 404.522 186.617 404.522L186.151 396.452C186.151 396.452 185.532 396.752 184.283 394.959C183.445 393.756 184.65 388.767 185.532 385.628C185.96 384.093 186.31 383 186.31 383L202.035 387.037L202.785 388.946L208.889 404.516C208.889 404.516 210.291 411.692 203.131 411.992Z" fill="#636992"/>
<path d="M274.598 388.286C274.598 388.286 256.671 395.452 250.875 389.877C245.079 384.302 240.76 385.893 240.76 385.893C240.76 385.893 230.646 386.056 228.651 385.255C227.475 384.79 228.111 380.806 228.845 377.635C229.341 375.444 229.88 373.635 229.88 373.635C229.88 373.635 247.5 367.421 250.26 371.242C251.089 372.365 252.081 373.348 253.199 374.156C256.39 376.554 261.378 378.727 269.266 382.072C280.114 386.689 274.598 388.286 274.598 388.286Z" fill="#636992"/>
<path d="M258.39 248L263.232 258.222C263.232 258.222 270.201 268.607 262.023 272.597C253.846 276.587 254 249.602 254 249.602L258.39 248Z" fill="#FFD6D6"/>
<path d="M238 164C238 164 243.404 166.454 246.646 176.725C249.888 186.996 254.211 204.479 254.211 204.479C254.211 204.479 257.144 224.255 256.677 229.164C256.38 231.868 256.433 234.598 256.834 237.288L261 251.087L252.664 254L239.852 205.246L238 164Z" fill="#DCE6F2"/>
<path opacity="0.05" d="M238 164C238 164 243.404 166.454 246.646 176.725C249.888 186.996 254.211 204.479 254.211 204.479C254.211 204.479 257.144 224.255 256.677 229.164C256.38 231.868 256.433 234.598 256.834 237.288L261 251.087L252.664 254L239.852 205.246L238 164Z" fill="black"/>
<path opacity="0.1" d="M202.261 386.331L203 388.381L202.094 390.193C198.567 391.797 189.829 390.515 189.829 390.515C189.829 390.515 188.211 388.364 186 384.823C186.421 383.174 186.766 382 186.766 382L202.261 386.331Z" fill="black"/>
<path opacity="0.1" d="M254 375.902C249.524 386.413 234.308 382.512 230.08 381.197C229.383 380.978 229 380.833 229 380.833C229 380.833 229.027 379.976 229.038 378.627C229.535 376.439 230.075 374.631 230.075 374.631C230.075 374.631 247.72 368.424 250.485 372.241C251.315 373.363 252.308 374.344 253.428 375.152C253.597 375.419 253.788 375.67 254 375.902Z" fill="black"/>
<path d="M252.866 362.809C249.214 370.484 253.632 374.791 253.632 374.791C249.193 384.936 234.104 381.174 229.911 379.899C229.221 379.694 228.84 379.553 228.84 379.553C228.84 379.553 229.146 368.949 228.08 363.879C227.014 358.809 227.164 337.46 227.775 334.85C228.385 332.239 228.685 327.164 228.685 327.164C228.685 327.164 228.23 321.176 228.99 318.257C229.456 316.651 229.022 314.917 227.855 313.728L227.775 313.647C227.775 313.647 224.428 325.17 223.207 327.159C221.987 329.148 221.537 339.141 221.381 340.984C221.226 342.827 214.988 358.193 214.988 358.193C214.988 358.193 212.557 365.257 212.102 367.252C211.647 369.246 209.816 374.937 209.816 374.937L202.48 389.228C198.978 390.763 190.304 389.536 190.304 389.536C190.304 389.536 188.633 387.374 186.347 383.85C184.06 380.326 183 367.879 183 367.879C183 367.879 191.369 367.722 189.238 359.582C187.107 351.443 191.064 345.141 190.914 342.373C190.764 339.606 192.74 330.548 193.805 329.164C194.871 327.78 194.716 321.943 194.411 318.717C194.105 315.49 194.261 304.124 194.261 304.124C194.261 304.124 194.566 299.054 196.087 296.752C197.607 294.449 197.002 287.839 197.002 287.839C197.002 287.839 199.888 286.304 197.912 271.403C195.937 256.502 201.125 237.147 201.125 237.147L201.302 234.445L201.58 230.067C201.58 230.067 245.108 227.3 248.609 230.678C249.525 231.615 250.276 232.703 250.832 233.894C252.03 236.493 252.876 239.244 253.348 242.071L255.174 288.617L257 322.873L256.39 348.681C256.39 348.681 256.523 355.123 252.866 362.809Z" fill="#565988"/>
<path opacity="0.1" d="M241 271L236.311 370.894L230.683 380C229.974 379.795 229.584 379.654 229.584 379.654C229.584 379.654 229.897 369.045 228.803 363.973C227.709 358.901 227.863 337.542 228.49 334.93C229.117 332.319 229.424 327.241 229.424 327.241C229.424 327.241 228.957 321.25 229.738 318.33C230.216 316.723 229.77 314.988 228.572 313.799L228.649 313.258L241 271Z" fill="black"/>
<path opacity="0.1" d="M190.318 378.425C190.318 378.425 202.908 373.82 204.844 375.289C206.781 376.758 190 379 190 379L190.318 378.425Z" fill="black"/>
<path opacity="0.1" d="M250 366C249.505 366.162 236.916 370.473 238.075 375.058C239.235 379.643 250 366 250 366Z" fill="black"/>
<path d="M213 139.646C213 139.646 216.917 149.069 214.845 153.9C212.773 158.73 237.217 167 237.217 167C237.217 167 230.07 148.611 236.99 138.266C243.91 127.92 213 139.646 213 139.646Z" fill="#FFD6D6"/>
<path d="M355.918 411.593C351.178 412.626 344.935 417.325 344.935 417.325C344.935 417.325 332.911 419.847 324.699 418.702C316.488 417.556 317.882 408.728 324.238 406.55C328.648 405.044 333.166 401.329 335.525 399.2C336.566 398.248 337.185 397.587 337.185 397.587L360.198 393C360.198 393 360.572 394.274 361.092 396.033C362.015 399.135 363.376 403.738 363.897 405.491C364.705 408.27 360.659 410.561 355.918 411.593Z" fill="#505484"/>
<path d="M350 394.775C350 394.775 340.258 395.775 336.201 393.557C332.143 391.339 326.345 394.89 326.345 394.89C326.345 394.89 309.646 394.557 304.082 392.891C298.518 391.225 304.892 382.998 313.938 383.79C317.234 384.076 319.464 383.384 320.971 382.394C322.545 381.362 323.642 379.788 324.033 378L343.614 379.109L346.334 385.752L350 394.775Z" fill="#505484"/>
<path opacity="0.1" d="M347 388C347 388 323.943 384.037 321 380.89C322.595 379.741 323.706 377.989 324.103 376L343.941 377.234L346.697 384.628L347 388Z" fill="black"/>
<path d="M314 258.486L314.229 291.992C314.229 291.992 315.021 317.154 315.021 320.588C315.021 324.022 315.133 331.678 315.133 331.678C315.133 331.678 316.836 341.056 317.857 344.146C318.878 347.237 319.671 361.315 319.671 361.315C319.671 361.315 322.054 365.205 321.033 366.68C320.012 368.155 325.002 371.369 325.002 371.369C325.002 371.369 321.81 375.833 321.602 378.805C321.395 381.778 347 386 347 386L337.025 282.844L329.082 257L314 258.486Z" fill="#575988"/>
<path opacity="0.1" d="M314 258.486L314.229 291.992C314.229 291.992 315.021 317.154 315.021 320.588C315.021 324.022 315.133 331.678 315.133 331.678C315.133 331.678 316.836 341.056 317.857 344.146C318.878 347.237 319.671 361.315 319.671 361.315C319.671 361.315 322.054 365.205 321.033 366.68C320.012 368.155 325.002 371.369 325.002 371.369C325.002 371.369 321.81 375.833 321.602 378.805C321.395 381.778 347 386 347 386L337.025 282.844L329.082 257L314 258.486Z" fill="black"/>
<path opacity="0.1" d="M361 396.007C353.317 413.556 335.044 400.012 335.044 400.012C335.044 400.012 335.044 399.674 335 399.093C336.059 398.158 336.688 397.508 336.688 397.508L360.09 393C360.09 393 360.471 394.279 361 396.007Z" fill="black"/>
<path d="M360.269 395.184C352.922 414.064 334.681 399.899 334.681 399.899C334.681 399.899 334.105 390.124 335.257 385.642C336.409 381.159 333.992 367.701 333.992 367.701C333.992 367.701 332.614 355.741 331.355 352.985C330.095 350.228 330.208 344.705 330.208 344.246C330.208 343.788 330.666 340.103 329.633 337.573C328.599 335.044 328.018 328.835 328.018 328.835C328.018 328.835 328.018 320.096 326.984 314.923L323.427 297.122L317 260.667L319.008 260.322L354.978 254C354.978 254 361.75 288.523 359.451 292.062C358.956 292.839 358.52 294.538 358.159 296.728C356.846 304.561 356.356 318.623 356.356 318.623C356.356 318.623 360.829 325.636 359.112 330.583C357.395 335.529 360.727 343.691 360.727 343.691C360.727 343.691 361.76 375.889 359.807 379.109C357.853 382.33 360.269 395.184 360.269 395.184Z" fill="#575988"/>
<path d="M359 159.155C359 159.155 324.948 182.352 332.62 170.751C336.754 164.504 335.995 156.549 334.375 150.542C333.556 147.486 332.425 144.517 331 141.677C331 141.677 359.934 129.771 356.098 140.442C355.199 142.928 354.816 145.561 354.973 148.191C355.203 152.143 356.6 155.949 359 159.155Z" fill="#D28690"/>
<path d="M299.567 211.817C299.567 211.817 286.036 207.78 283.782 211.741C281.529 215.702 284.459 224.394 288.543 225.793C292.627 227.191 302 221.056 302 221.056L299.567 211.817Z" fill="#D28690"/>
<path d="M314.587 205L308.893 210.414C308.893 210.414 298.985 211.352 296.138 210.646C296.138 210.646 298.76 228.765 295 231L318 226.176L314.587 205Z" fill="#585B8A"/>
<path opacity="0.1" d="M314.587 205L308.893 210.414C308.893 210.414 298.985 211.352 296.138 210.646C296.138 210.646 298.76 228.765 295 231L318 226.176L314.587 205Z" fill="black"/>
<path opacity="0.1" d="M241 129.839C241 139.317 233.168 147 223.507 147C214.531 142.769 206.014 139.326 206.014 129.839C205.76 123.551 209.035 117.631 214.548 114.413C220.06 111.196 226.926 111.196 232.439 114.413C237.951 117.631 241.226 123.551 240.973 129.839H241Z" fill="black"/>
<path d="M241 129.489C241.005 138 234.885 145.282 226.499 146.74C218.113 148.198 209.894 143.41 207.026 135.396C204.157 127.382 207.472 118.466 214.879 114.272C222.286 110.079 231.637 111.823 237.033 118.405C239.594 121.532 240.995 125.447 241 129.489Z" fill="#FFD6D6"/>
<path opacity="0.1" d="M251 233.906C249.323 234.972 247.567 235.903 245.749 236.692C245.749 236.692 237.166 235.418 235.926 236.919C234.686 238.42 223.74 239 223.74 239C223.74 239 207.023 238.193 204.538 235.998C203.77 235.362 202.915 234.843 202 234.459L202.276 230.07C202.276 230.07 245.347 227.295 248.812 230.682C249.714 231.623 250.454 232.713 251 233.906Z" fill="black"/>
<path d="M253.951 230.785C253.605 232.729 246.462 235.706 246.462 235.706C246.462 235.706 237.708 234.449 236.444 235.937C235.18 237.425 224.017 238 224.017 238C224.017 238 206.97 237.194 204.435 235.018C201.901 232.842 196.255 231.795 196.255 231.795C196.255 231.795 193.375 211.411 194.531 206.946C195.688 202.482 192.802 190.221 192.111 185.869C191.419 181.518 194.067 169.494 197.292 167.549C200.518 165.604 205.127 159.071 207.888 157.126C210.217 155.487 212.789 153.365 213.54 152.726L213.761 152.543C213.761 152.543 214.226 148.992 216.069 147.17C217.911 145.349 234.839 158.738 234.839 158.738C234.839 158.738 234.958 159.769 236.109 157.824C236.368 157.389 238.6 160.591 238.989 161.945C238.989 161.945 248.202 177.982 248.78 181.287C249.358 184.591 251.773 195.374 252.232 198.006C252.351 198.683 252.546 201.058 252.773 204.238C252.816 204.862 252.854 205.522 252.902 206.21C253.243 211.486 253.61 218.223 253.832 223.317C253.832 223.897 253.88 224.456 253.897 224.993C254.013 226.921 254.031 228.854 253.951 230.785Z" fill="#DCE6F2"/>
<path opacity="0.1" d="M194 190C194 190 200.567 197 202.718 197C204.87 197 194 190 194 190Z" fill="black"/>
<path opacity="0.1" d="M208 206C208 206 197.759 216.826 199.125 218.816C200.492 220.806 208 206 208 206Z" fill="black"/>
<path opacity="0.1" d="M200 228C200 228 212.435 215.36 213 211L200 228Z" fill="black"/>
<path opacity="0.1" d="M216 230C216 230 229.783 222.288 230.94 216.167C232.098 210.046 216 230 216 230Z" fill="black"/>
<path opacity="0.1" d="M232.81 159.508L231 164.131L234.013 165.634L236.974 174.369C236.974 174.369 245.139 191.601 244.81 200.565C244.481 209.528 246.29 223 246.29 223L251 222.078L248.779 195.714C248.433 191.632 247.464 187.636 245.91 183.881C242.147 174.787 235.144 158 234.702 158C234.1 158 234.522 158.233 234.522 158.233L232.81 159.508Z" fill="black"/>
<path d="M233.809 158.503L232 163.131L235.017 164.634L237.973 173.369C237.973 173.369 246.135 190.601 245.806 199.565C245.477 208.528 247.287 222 247.287 222L252 221.078L249.774 194.714C249.433 190.632 248.466 186.636 246.911 182.881C243.149 173.782 236.148 157 235.711 157C235.105 157 235.526 157.233 235.526 157.233L233.809 158.503Z" fill="#575989"/>
<path d="M290.305 225.993C287.928 225.81 282.225 222.894 279.959 221.682L279 221.143L279.117 212.246C279.677 211.913 280.258 211.616 280.855 211.357C283.882 210.02 290.092 208.204 293.204 214.051C297.404 221.892 293.316 226.198 290.305 225.993Z" fill="#FFD6D6"/>
<path opacity="0.1" d="M236 118.226C235.758 118.378 235.492 118.486 235.213 118.548C233.254 118.975 231.026 117.292 229.347 118.374C228.323 119.039 228.085 120.416 227.948 121.63C227.708 123.74 227.469 125.837 227.23 127.919C227.179 128.661 227.023 129.391 226.765 130.088C225.936 131.982 223.66 132.874 221.585 132.843C220.772 132.9 219.97 132.635 219.352 132.104C218.987 131.734 218.792 131.217 218.391 130.88C215.751 128.669 214.948 134.088 215.645 135.629C216.764 138.146 220.74 140.573 219.072 143.771C218.791 144.29 218.366 144.717 217.847 145C210.949 142.841 206.189 136.537 206.006 129.316C205.822 122.094 210.255 115.556 217.034 113.05C223.813 110.544 231.437 112.624 236 118.226Z" fill="black"/>
<path d="M218.16 130.044C218.574 130.383 218.784 130.911 219.164 131.288C219.81 131.83 220.649 132.101 221.499 132.042C223.667 132.075 226.046 131.17 226.907 129.225C227.181 128.516 227.347 127.772 227.398 127.016L228.148 120.594C228.292 119.355 228.534 117.949 229.61 117.27C231.365 116.192 233.694 117.884 235.741 117.448C237.273 117.068 238.239 115.592 237.949 114.075C237.711 113.046 236.906 112.233 236.492 111.252C236.241 110.499 236.04 109.73 235.89 108.952C234.748 104.771 229.721 102.422 225.35 103.123C222.922 103.516 220.665 104.647 218.232 104.992C216.488 105.24 214.706 105.078 212.945 105.261C211.31 105.426 209.72 105.885 208.255 106.614C207.87 106.78 207.53 107.031 207.261 107.346C207.011 107.773 206.843 108.24 206.765 108.725C206.174 110.88 204.276 112.47 202.902 114.285C201.33 116.374 200.421 118.867 200.286 121.456C200.232 122.117 200.296 122.782 200.474 123.422C200.59 123.8 200.772 124.166 200.86 124.554C201.131 125.734 200.513 126.913 200.209 128.088C199.832 129.587 199.968 131.165 200.595 132.581C202.714 137.338 209.695 138.927 211.146 143.922C212.435 144.525 213.827 144.89 215.252 144.999C216.676 145.026 218.21 144.428 218.872 143.194C220.61 139.962 216.46 137.451 215.291 134.887C214.557 133.308 215.379 127.781 218.16 130.044Z" fill="#353045"/>
<path opacity="0.1" d="M355.656 140.306C354.773 142.716 354.398 145.268 354.551 147.817C353.7 148.508 352.772 146.44 351.789 146.973C349.093 148.461 345.977 152 342.64 152C339.746 152.002 336.893 151.349 334.315 150.096C333.51 147.134 332.4 144.256 331 141.503C331 141.503 359.424 129.962 355.656 140.306Z" fill="black"/>
<path d="M360 134C360 143.941 351.941 152 342 152C332.059 152 324 143.941 324 134C324 124.059 332.059 116 342 116C346.774 115.999 351.354 117.895 354.73 121.27C358.105 124.646 360.001 129.226 360 134Z" fill="#D28690"/>
<path d="M360 162.132C360 162.132 356.571 165.815 356.105 166.118C355.64 166.42 345.698 207.705 345.522 208.185C345.347 208.666 333.685 245.943 333.685 245.943L315 255L316.561 209.406L330.256 171.805C330.256 171.805 334.775 166.739 336.172 164.897C337.568 163.056 355.01 152 355.01 152L357.99 158.054L360 162.132Z" fill="#F0F3F7"/>
<path opacity="0.1" d="M357 160.277L335.348 176L335 167.366C336.413 165.456 353.986 154 353.986 154L357 160.277Z" fill="black"/>
<path d="M357 158.277L335.337 174L335 165.371C336.414 163.456 353.995 152 353.995 152L357 158.277Z" fill="#F0F3F7"/>
<path d="M334.314 162L335 165.692L330.405 170.488L334.073 162.054C334.073 162.054 326.213 167.678 323.855 169.169C321.497 170.66 319.139 175.709 319.05 177.086C318.961 178.464 315.251 199.229 315.251 199.229C315.251 199.229 312.458 206.915 313.244 209.095C314.03 211.274 309 280 309 280C310.361 277.298 312.824 275.359 315.717 274.709L313.925 234.095C313.925 234.095 316.105 207.076 316.215 206.732C316.325 206.387 321.298 190.725 321.298 190.725L334.314 162Z" fill="#585B8A"/>
<path opacity="0.1" d="M337 167L336.628 174.509C336.628 174.509 331.44 190.573 329.696 193.201C327.952 195.829 322.644 211.495 322.644 211.495L319.654 238.71L314.526 241L312 236.436L316.199 210.155C316.199 210.155 324.12 187.977 325.29 185.686L331.134 173.608L337 167Z" fill="black"/>
<path d="M337 165L336.634 172.51C336.634 172.51 331.449 188.576 329.701 191.204C327.953 193.833 322.659 209.502 322.659 209.502L319.687 236.715L314.562 239L312 234.43L316.196 208.145C316.196 208.145 324.112 185.958 325.276 183.673L331.16 171.609L337 165Z" fill="#663D5C"/>
<path d="M275 224.413L285.54 231C285.54 231 292.975 227.237 288.645 224.803C284.315 222.369 280.474 222 279.083 222C277.691 222 275 224.413 275 224.413Z" fill="#D28690"/>
<path d="M283.756 210.978C283.283 211.278 282.997 211.807 283 212.375C283 214.629 283.25 220.6 285.102 217.904C287.375 214.606 286.96 211.644 290.432 213.783C292.589 215.154 294.478 216.923 296 219L295.034 211.917C295.034 211.917 287.898 208.323 283.756 210.978Z" fill="#D28690"/>
<path opacity="0.1" d="M359.526 291.618C359.033 292.406 358.6 294.13 358.241 296.352C338.221 302.487 323.573 289.516 323.573 289.516C321.801 283.379 320.353 277.149 319.235 270.853C318.876 268.697 318.956 264.515 319.288 259.414L355.081 253C355.081 253 361.813 288 359.526 291.618Z" fill="black"/>
<path d="M380.765 187.629C379.845 190.625 380.191 196.72 380.191 196.72L371.882 235.847C371.882 235.847 367.843 265.997 367.15 270.024C366.457 274.052 365.304 291.774 365.304 291.774C341.761 303.284 323.62 287.634 323.62 287.634C321.829 281.579 320.366 275.432 319.235 269.22C318.077 262.386 321.487 235.005 323.101 222.843C323.582 219.242 323.907 216.975 323.907 216.975L329.965 194.534C329.965 194.534 337.409 175.602 340.18 170.079C342.952 164.556 354.082 152.151 354.082 152.151C355.463 151.276 357.671 154.364 359.312 157.177C360.551 159.304 361.477 161.28 361.477 161.28C361.477 161.28 375.325 167.261 377.398 170.457C379.471 173.653 379.13 180.239 379.363 180.584C379.596 180.93 381.691 184.638 380.765 187.629Z" fill="#585B8A"/>
<path opacity="0.1" d="M348.386 175.293C348.386 175.293 349.419 181.407 346.771 183.251C344.215 185.037 325.184 222.652 324 225C324.479 221.386 324.802 219.114 324.802 219.114L330.824 196.63C330.824 196.63 338.23 177.658 340.98 172.118C343.73 166.578 354.806 154.151 354.806 154.151C356.179 153.275 358.369 156.369 360 159.188C357.54 164.322 352.411 174.027 348.386 175.293Z" fill="black"/>
<path d="M348.396 173.295C348.396 173.295 349.424 179.409 346.782 181.254C344.139 183.099 325.2 220.652 324 223C324.479 219.391 324.802 217.119 324.802 217.119L330.824 194.628C330.824 194.628 338.225 175.654 340.98 170.119C343.736 164.584 354.801 152.151 354.801 152.151C356.173 151.275 358.369 154.37 360 157.188C357.551 162.317 352.417 172.029 348.396 173.295Z" fill="#585B8A"/>
<path d="M376 229.515L369.508 263.441V263.447L368.887 266.693V266.699L367.489 274L361.526 272.732L358.746 272.141L320.283 263.956L317.455 263.354L311 261.983L312.263 253.56L312.786 250.058L317.444 219L376 229.515Z" fill="#E05D51"/>
<path d="M340.337 257C340.337 257 325.164 262.88 328.472 269.864C331.779 276.847 353 264.472 353 264.472L340.337 257Z" fill="#D28690"/>
<path opacity="0.1" d="M351 303C351 303.476 351.5 309.573 353.49 311.719C355.481 313.866 351 303 351 303Z" fill="black"/>
<path opacity="0.1" d="M335 323C335 323 337.677 331.167 348.284 334.51C358.892 337.853 335 323 335 323Z" fill="black"/>
<path opacity="0.1" d="M360 133.656C360.002 139.99 356.614 145.842 351.117 149C350.099 148.431 349.195 147.679 348.452 146.781C347.68 145.844 347.077 144.567 347.541 143.449C347.914 142.549 348.9 141.98 349.14 141.049C349.253 140.479 349.223 139.89 349.054 139.335C348.857 138.457 348.671 137.578 348.479 136.706C348.314 135.96 348.021 135.082 347.28 134.901C346.539 134.72 345.921 135.338 345.34 135.795C343.917 136.918 341.189 137.68 339.478 136.759C337.768 135.838 338.247 132.756 337.97 131.091C337.963 130.798 337.827 130.523 337.597 130.34C337.348 130.258 337.083 130.239 336.825 130.287C335.903 130.287 335.162 129.462 334.896 128.578C334.707 127.676 334.603 126.759 334.587 125.837C334.485 124.917 334.15 123.943 333.361 123.469C332.731 123.176 332.032 123.062 331.341 123.139L328 123.176C332.546 117.038 340.521 114.502 347.784 116.886C355.046 119.27 359.96 126.036 359.973 133.672L360 133.656Z" fill="black"/>
<path d="M346.283 136.611C346.874 136.152 347.525 135.544 348.257 135.72C348.989 135.896 349.304 136.787 349.472 137.522L350.058 140.151C350.231 140.709 350.263 141.3 350.15 141.873C349.874 142.811 348.876 143.376 348.49 144.277C348.019 145.397 348.637 146.677 349.418 147.61C350.843 149.297 352.812 150.454 354.999 150.888C355.57 151.023 356.164 151.036 356.74 150.926C358.031 150.633 358.91 149.465 359.604 148.372C363.189 142.881 366.276 136.861 366.905 130.367C367.077 129.043 367.015 127.699 366.72 126.395C366.426 125.382 366.011 124.407 365.484 123.49C364.56 121.616 363.388 119.872 361.996 118.302C359.528 115.69 356.122 114.085 352.623 113.136C348.688 112.063 344.58 111.746 340.523 112.203C339.438 112.326 338.396 112.501 337.328 112.571C335.986 112.632 334.642 112.611 333.303 112.507L325.319 112.038C324.864 112.949 325.319 114.032 325.862 114.885C326.404 115.738 327.077 116.623 327.033 117.636C326.99 118.649 326.258 119.448 325.693 120.301C325.129 121.155 324.701 122.258 325.265 123.09C325.829 123.922 326.979 123.975 327.977 123.964L332.002 123.922C332.703 123.851 333.41 123.971 334.046 124.268C334.849 124.743 335.191 125.724 335.294 126.641C335.316 127.563 335.422 128.482 335.608 129.386C335.885 130.271 336.634 131.109 337.572 131.098C337.835 131.046 338.107 131.067 338.358 131.156C338.592 131.337 338.731 131.611 338.738 131.903C339.02 133.572 338.499 136.653 340.273 137.581C342.047 138.509 344.835 137.736 346.283 136.611Z" fill="#663D5C"/>
<path opacity="0.1" d="M369.268 171.05C365.148 170.615 361.275 173.074 359.938 176.972C357.762 183.132 354.133 194.247 355.042 198.638C356.32 204.864 357.827 215.243 357.827 215.243C357.827 215.243 364.437 219.029 361.091 222.847C357.746 226.665 356.799 232.074 356.799 232.074C356.799 232.074 352.507 233.918 351.582 237.839C350.657 241.76 344.39 247.174 344.39 247.174L335 256.515C335 256.515 350.537 272.2 353.671 273L363.295 261.815L374.659 246.828L384.517 236.552C384.517 236.552 386.834 231.144 385.676 220.867C384.517 210.591 379.991 200.807 379.991 200.807L380.339 197.346C380.339 197.346 381.405 172.548 369.268 171.05Z" fill="black"/>
<path d="M369.279 171.049C365.161 170.619 361.292 173.077 359.956 176.971C357.778 183.131 354.148 194.246 355.057 198.638C356.331 204.863 357.838 215.242 357.838 215.242C357.838 215.242 364.451 219.028 361.104 222.846C357.757 226.665 356.815 232.073 356.815 232.073C356.815 232.073 352.521 233.918 351.59 237.839C350.659 241.76 344.4 247.174 344.4 247.174L335 256.515C335 256.515 350.545 272.2 353.68 273L363.308 261.815L374.651 246.828L384.514 236.552C384.514 236.552 386.838 231.143 385.673 220.867C384.509 210.591 379.991 200.806 379.991 200.806L380.339 197.345C380.339 197.345 381.422 172.547 369.279 171.049Z" fill="#585B8A"/>
<path opacity="0.1" d="M360 206C360 206 370.087 218.333 374.363 215.606C378.638 212.879 360 206 360 206Z" fill="black"/>
<path opacity="0.1" d="M364 197C365.065 197.38 373.815 210.417 378.307 208.873C382.798 207.33 364 197 364 197Z" fill="black"/>
<path opacity="0.1" d="M366 218C366 218 366.608 224.843 373.993 223.913C381.379 222.983 366 218 366 218Z" fill="black"/>
<path opacity="0.1" d="M334.203 162L331 171L335 165.883L334.203 162Z" fill="black"/>
<path d="M334.203 162L331 171L335 165.883L334.203 162Z" fill="#F0F3F7"/>
<path opacity="0.3" d="M321 264L317.826 263.351L312 252.779L312.587 249L321 264Z" fill="black"/>
<path opacity="0.3" d="M368 263L367.423 266.147V266.152L360.583 272L358 271.427L368 263Z" fill="black"/>
<path opacity="0.1" d="M252 226.309C250.589 226.548 249.221 226.765 247.97 226.928C241.021 227.856 224.494 219.527 224.494 219.527C224.494 219.527 204.327 202.409 198.516 186.218C192.706 170.028 205.465 167.597 205.465 167.597C210.276 164.819 220.736 172.567 222.217 173.842C223.697 175.117 224.954 178.351 224.836 180.434C224.718 182.518 228.257 185.176 228.257 185.176C228.257 185.176 234.297 195.816 235.777 196.972C237.258 198.128 237.6 199.17 238.055 201.139C238.509 203.109 242.496 204.726 244.207 204.606C245.917 204.487 247.948 205.187 247.948 206.109C247.948 206.852 249.621 207.221 250.995 207.341C251.401 213.271 251.802 221.041 252 226.309Z" fill="black"/>
<path opacity="0.1" d="M254 223.467C252.912 223.64 251.867 223.798 250.887 223.928C243.813 224.856 226.992 216.527 226.992 216.527C226.992 216.527 206.459 199.409 200.544 183.218C194.629 167.028 207.618 164.597 207.618 164.597C212.516 161.819 223.161 169.567 224.668 170.842C226.175 172.117 227.454 175.351 227.34 177.434C227.226 179.518 230.817 182.176 230.817 182.176C230.817 182.176 236.967 192.816 238.474 193.972C239.982 195.128 240.33 196.17 240.798 198.139C241.266 200.109 245.32 201.72 247.062 201.606C248.803 201.492 250.871 202.187 250.871 203.109C250.871 203.652 251.84 204.015 252.917 204.194C252.961 204.824 252.999 205.491 253.048 206.186C253.407 211.519 253.777 218.323 254 223.467Z" fill="black"/>
<path opacity="0.1" d="M280 212L279.767 222H279.517L279 221.478L279.063 212.861C279.365 212.539 279.678 212.251 280 212V212Z" fill="black"/>
<path d="M205.472 165.595C205.472 165.595 192.703 168.026 198.518 184.216C204.333 200.405 224.516 217.528 224.516 217.528C224.516 217.528 241.051 225.851 248.011 224.929C254.971 224.006 265.568 221.576 266.937 221.923C268.307 222.27 277.545 222.27 277.545 222.27L278 211.419L267.301 210.839L261.829 209.683C261.829 209.683 259.887 208.055 258.747 208.294C257.608 208.533 255.217 206.905 255.217 206.905C255.217 206.905 253.387 205.402 252.007 205.402C250.627 205.402 248.016 205.055 248.016 204.133C248.016 203.21 245.962 202.505 244.272 202.63C242.581 202.755 238.542 201.127 238.072 199.136C237.601 197.145 237.275 196.13 235.793 194.974C234.311 193.819 228.266 183.174 228.266 183.174C228.266 183.174 224.73 180.515 224.842 178.437C224.955 176.359 223.703 173.115 222.221 171.84C220.739 170.565 210.254 162.823 205.472 165.595Z" fill="#DCE6F2"/>
<path opacity="0.1" d="M239 203C239 203 233.914 208.062 235.212 209L239 203Z" fill="black"/>
<path opacity="0.1" d="M244 206C244 206 238.856 211.592 240.235 211.983C241.613 212.373 244 206 244 206Z" fill="black"/>
<path opacity="0.1" d="M234 215C234.933 215.49 248.764 224.124 254 223.999L234 215Z" fill="black"/>
<path opacity="0.1" d="M235 159.948C235 159.948 232.5 168 231.545 168C230.798 168 218.24 158.027 213 153.834L213.229 153.648C213.229 153.648 213.703 150.029 215.606 148.174C217.509 146.318 235 159.948 235 159.948Z" fill="black"/>
<path d="M234 158.948C234 158.948 231.505 167 230.551 167C229.798 167 217.24 157.027 212 152.834L212.229 152.648C212.229 152.648 212.709 149.029 214.612 147.174C216.515 145.318 234 158.948 234 158.948Z" fill="#DCE6F2"/>
<g opacity="0.15">
<path d="M202.209 132.622C203.862 136.281 208.411 138.055 211.049 140.972C209.479 137.387 204.892 135.629 202.209 132.622Z" fill="black"/>
<path d="M219.045 141.052C218.39 142.275 216.842 142.868 215.432 142.842C214.179 142.754 212.952 142.45 211.809 141.944C212.223 142.537 212.539 143.19 212.745 143.878C214.031 144.477 215.42 144.84 216.842 144.947C218.269 144.979 219.8 144.386 220.455 143.157C221.507 141.207 220.411 139.54 219.128 137.964C219.613 138.946 219.582 140.095 219.045 141.052Z" fill="black"/>
<path d="M239.482 114.275C239.245 113.25 238.441 112.443 238.028 111.476C237.775 110.728 237.575 109.964 237.428 109.189C237.115 108.094 236.535 107.088 235.737 106.256C235.848 106.519 235.942 106.789 236.018 107.063C236.173 107.841 236.379 108.608 236.635 109.36C237.048 110.327 237.852 111.134 238.089 112.16C238.379 113.664 237.415 115.127 235.886 115.504C233.848 115.937 231.524 114.227 229.773 115.328C228.699 115.996 228.451 117.39 228.308 118.619C228.062 120.756 227.812 122.88 227.559 124.992C227.509 125.742 227.346 126.48 227.074 127.183C226.21 129.106 223.836 130.009 221.672 129.977C220.826 130.032 219.992 129.763 219.348 129.229C219.035 128.799 218.698 128.385 218.34 127.99C215.586 125.746 214.749 131.232 215.476 132.798C215.84 133.502 216.291 134.16 216.82 134.758C216.214 132.995 217.062 127.92 219.75 130.095C220.108 130.489 220.443 130.903 220.752 131.334C221.399 131.868 222.234 132.136 223.082 132.082C225.246 132.114 227.62 131.211 228.484 129.288C228.756 128.583 228.92 127.843 228.969 127.092C229.219 124.955 229.468 122.832 229.718 120.724C229.861 119.495 230.109 118.101 231.177 117.433C232.934 116.332 235.258 118.042 237.296 117.604C238.812 117.223 239.766 115.77 239.482 114.275Z" fill="black"/>
</g>
<path opacity="0.1" d="M357.052 149.681C356.492 149.787 355.917 149.773 355.362 149.639C353.242 149.205 351.333 148.048 349.95 146.362C349.187 145.423 348.587 144.142 349.05 143.021C349.419 142.119 350.387 141.554 350.63 140.615C350.739 140.041 350.708 139.449 350.54 138.891L349.972 136.26C349.808 135.513 349.524 134.632 348.792 134.456C348.061 134.28 347.45 134.888 346.876 135.347C345.47 136.473 342.77 137.242 341.085 136.313C339.4 135.385 339.869 132.3 339.595 130.63C339.586 130.338 339.451 130.065 339.227 129.883C338.98 129.796 338.715 129.775 338.458 129.824C337.547 129.824 336.821 128.997 336.552 128.111C336.37 127.206 336.269 126.286 336.252 125.363C336.147 124.445 335.82 123.463 335.036 122.988C334.417 122.693 333.732 122.573 333.051 122.641L329.145 122.684C328.182 122.684 327.039 122.62 326.513 121.809C325.986 120.997 326.376 119.845 326.929 119.018C327.481 118.19 328.182 117.369 328.229 116.349C328.276 115.33 327.624 114.449 327.092 113.596C326.787 113.129 326.563 112.613 326.428 112.069L325.307 112C324.87 112.907 325.307 113.991 325.834 114.85C326.36 115.709 327.018 116.589 326.971 117.598C326.923 118.607 326.223 119.418 325.67 120.266C325.118 121.115 324.712 122.225 325.26 123.057C325.807 123.89 326.918 123.949 327.892 123.938L331.798 123.89C332.479 123.823 333.165 123.945 333.783 124.242C334.567 124.717 334.899 125.699 334.999 126.617C335.016 127.541 335.118 128.461 335.304 129.365C335.568 130.246 336.299 131.089 337.21 131.073C337.466 131.027 337.728 131.047 337.974 131.132C338.199 131.316 338.334 131.591 338.342 131.884C338.616 133.549 338.111 136.639 339.832 137.567C341.554 138.496 344.238 137.728 345.623 136.601C346.197 136.143 346.834 135.534 347.545 135.705C348.255 135.876 348.561 136.772 348.719 137.509L349.292 140.145C349.459 140.704 349.488 141.296 349.377 141.869C349.113 142.803 348.139 143.374 347.771 144.27C347.313 145.391 347.908 146.677 348.671 147.611C350.063 149.304 351.987 150.461 354.12 150.887C354.674 151.021 355.25 151.036 355.81 150.93C356.715 150.651 357.492 150.052 358 149.244C357.712 149.446 357.392 149.594 357.052 149.681Z" fill="black"/>
<path opacity="0.1" d="M110 387C117.18 387 123 386.105 123 385C123 383.895 117.18 383 110 383C102.82 383 97 383.895 97 385C97 386.105 102.82 387 110 387Z" fill="#E05D51"/>
<path opacity="0.1" d="M564 335C571.18 335 577 334.105 577 333C577 331.895 571.18 331 564 331C556.82 331 551 331.895 551 333C551 334.105 556.82 335 564 335Z" fill="#E05D51"/>
<path opacity="0.1" d="M432.5 420C453.211 420 470 417.314 470 414C470 410.686 453.211 408 432.5 408C411.789 408 395 410.686 395 414C395 417.314 411.789 420 432.5 420Z" fill="#E05D51"/>
<path opacity="0.1" d="M538.5 393C554.792 393 568 390.985 568 388.5C568 386.015 554.792 384 538.5 384C522.208 384 509 386.015 509 388.5C509 390.985 522.208 393 538.5 393Z" fill="#E05D51"/>
<path opacity="0.1" d="M535 443C562.614 443 585 439.418 585 435C585 430.582 562.614 427 535 427C507.386 427 485 430.582 485 435C485 439.418 507.386 443 535 443Z" fill="#E05D51"/>
<path opacity="0.1" d="M53.5 447C74.2107 447 91 444.314 91 441C91 437.686 74.2107 435 53.5 435C32.7893 435 16 437.686 16 441C16 444.314 32.7893 447 53.5 447Z" fill="#E05D51"/>
<path d="M109.844 322C109.844 322 111.239 323.923 109.202 326.834C107.165 329.746 105.484 332.206 106.147 334C106.147 334 109.202 328.628 111.749 328.532C114.295 328.435 112.599 325.244 109.844 322Z" fill="#E05D51"/>
<path opacity="0.1" d="M109.796 322C109.922 322.184 110.02 322.387 110.085 322.603C112.558 325.638 113.871 328.463 111.496 328.522C109.286 328.587 106.634 332.719 106 333.763C106.019 333.844 106.043 333.923 106.072 334C106.072 334 109.163 328.619 111.738 328.522C114.314 328.425 112.583 325.25 109.796 322Z" fill="black"/>
<path d="M113.82 324.262C113.82 324.67 113.67 325 113.5 325C113.33 325 113.18 324.676 113.18 324.262C113.18 323.848 113.36 324.049 113.53 324.049C113.7 324.049 113.82 323.854 113.82 324.262Z" fill="#FFD037"/>
<path d="M113.762 324.504C113.373 324.851 113.03 325.082 113.002 324.972C112.974 324.862 113.264 324.533 113.656 324.18C114.049 323.827 113.893 324.087 113.921 324.18C113.95 324.272 114.155 324.151 113.762 324.504Z" fill="#FFD037"/>
<path d="M103.141 322C103.141 322 101.741 323.923 103.785 326.834C105.829 329.746 107.521 332.206 106.851 334C106.851 334 103.785 328.628 101.255 328.532C98.7253 328.435 100.361 325.244 103.141 322Z" fill="#E05D51"/>
<path opacity="0.1" d="M102.187 322C102.063 322.186 101.966 322.388 101.897 322.603C99.4173 325.638 98.0997 328.463 100.482 328.522C102.698 328.587 105.359 332.719 106 333.763C105.979 333.844 105.953 333.923 105.922 334C105.922 334 102.822 328.619 100.265 328.522C97.707 328.425 99.3759 325.25 102.187 322Z" fill="black"/>
<path d="M100.185 324.262C100.185 324.67 100.325 325 100.495 325C100.665 325 100.815 324.676 100.815 324.262C100.815 323.848 100.635 324.049 100.465 324.049C100.295 324.049 100.185 323.854 100.185 324.262Z" fill="#FFD037"/>
<path d="M99.2369 324.504C99.6278 324.851 99.966 325.082 99.9977 324.972C100.029 324.862 99.7335 324.533 99.3425 324.18C98.9516 323.827 99.1066 324.087 99.0784 324.18C99.0502 324.272 98.8459 324.151 99.2369 324.504Z" fill="#FFD037"/>
<path opacity="0.1" d="M107 348C115.284 348 122 347.105 122 346C122 344.895 115.284 344 107 344C98.7157 344 92 344.895 92 346C92 347.105 98.7157 348 107 348Z" fill="#E05D51"/>
<path d="M114.997 329.9L114.921 330.503L114.818 331.354L114.774 331.71L114.671 332.561L114.622 332.916L114.519 333.768L113.331 343.465C113.228 344.327 111.807 345 110.076 345H103.924C102.21 345 100.788 344.327 100.669 343.465L99.4807 333.768L99.3776 332.916L99.3342 332.561L99.2257 331.71L99.1823 331.354L99.0792 330.503L99.0032 329.9C98.9436 329.409 99.7139 329 100.685 329H113.32C114.286 329 115.056 329.409 114.997 329.9Z" fill="#65617D"/>
<path d="M115 331L114.896 332H99.1041L99 331H115Z" fill="#9D9CB5"/>
<path d="M115 333L114.894 334H99.1117L99 333H115Z" fill="#9D9CB5"/>
<path d="M113 334L112.893 335H98.1014L98 334H113Z" fill="#9D9CB5"/>
<path d="M554.176 314C554.176 314 552.343 322.944 560.496 324L561 323.006C561 323.006 554.68 316.775 554.176 314Z" fill="#E05D51"/>
<path d="M564 321.564L562.124 321.958L561.939 322C561.939 322 556.937 317.978 557.001 309C557.669 310.324 558.47 311.578 559.39 312.744C561.372 315.342 563.624 318.808 564 321.564Z" fill="#E05D51"/>
<path d="M565.574 322.808C565.334 323.004 565.037 323.053 564.766 322.941C560.904 321.809 562.214 306 562.214 306C562.427 306.123 562.639 308.137 563.549 310.734C565.102 315.291 566.815 321.665 565.574 322.808Z" fill="#E05D51"/>
<path d="M575.998 314C575.998 314 576.339 322.944 567.549 324L567 322.989C567 322.989 575.455 316.775 575.998 314Z" fill="#E05D51"/>
<path d="M573 309C573.067 317.978 566.184 322 566.184 322L565.982 321.958L564 321.564C564.393 318.808 566.807 315.342 568.879 312.744C570.068 311.33 571.454 310.071 573 309Z" fill="#E05D51"/>
<path d="M566.89 321.986C566.615 322.341 566.264 322.625 565.866 322.814C565.742 322.873 565.614 322.917 565.482 322.948C564.339 323.226 563.945 322.366 564.006 320.901C564.114 318.298 565.681 313.782 567.08 310.399C567.753 308.739 568.747 307.242 570 306C570 306 569.928 318.309 566.89 321.986Z" fill="#E05D51"/>
<path d="M565.34 301C565.34 301 560.552 320.79 564.674 323.747C568.796 326.705 566.398 302.748 565.34 301Z" fill="#E05D51"/>
<path opacity="0.1" d="M554.176 314C554.176 314 552.343 322.944 560.496 324L561 323.006C561 323.006 554.68 316.775 554.176 314Z" fill="black"/>
<path opacity="0.1" d="M564 321.564L562.124 321.958L561.939 322C561.939 322 556.937 317.978 557.001 309C557.669 310.324 558.47 311.578 559.39 312.744C561.372 315.342 563.624 318.808 564 321.564Z" fill="black"/>
<path opacity="0.1" d="M565.574 322.808C565.334 323.004 565.037 323.053 564.766 322.941C560.904 321.809 562.214 306 562.214 306C562.427 306.123 562.639 308.137 563.549 310.734C565.102 315.291 566.815 321.665 565.574 322.808Z" fill="black"/>
<path opacity="0.1" d="M575.998 314C575.998 314 576.339 322.944 567.549 324L567 322.989C567 322.989 575.455 316.775 575.998 314Z" fill="black"/>
<path opacity="0.1" d="M573 309C573.067 317.978 566.184 322 566.184 322L565.982 321.958L564 321.564C564.393 318.808 566.807 315.342 568.879 312.744C570.068 311.33 571.454 310.071 573 309Z" fill="black"/>
<path opacity="0.1" d="M566.89 321.986C566.615 322.341 566.264 322.625 565.866 322.814C565.742 322.873 565.614 322.917 565.482 322.948C564.339 323.226 563.945 322.366 564.006 320.901C564.114 318.298 565.681 313.782 567.08 310.399C567.753 308.739 568.747 307.242 570 306C570 306 569.928 318.309 566.89 321.986Z" fill="black"/>
<path opacity="0.1" d="M565.34 301C565.34 301 560.552 320.79 564.674 323.747C568.796 326.705 566.398 302.748 565.34 301Z" fill="black"/>
<path d="M556.043 314C556.043 314 555.059 322.944 562.537 324L563 323.006C563 323.006 556.505 316.775 556.043 314Z" fill="#E05D51"/>
<path d="M564 321.564L562.309 321.958L562.141 322C562.141 322 556.957 317.973 557 309C557 309 558.329 310.577 559.829 312.748C561.63 315.334 563.661 318.804 564 321.564Z" fill="#E05D51"/>
<path opacity="0.1" d="M564 323.573L562.372 324C560.832 322.325 560.221 317.949 560 314C561.72 316.821 563.674 320.581 564 323.573Z" fill="black"/>
<path d="M565.427 322.808C565.101 323.004 564.698 323.053 564.33 322.941C559.115 321.809 560.068 306 560.068 306C560.355 306.123 561.481 308.137 562.681 310.734C564.789 315.291 567.098 321.664 565.427 322.808Z" fill="#E05D51"/>
<path d="M575.957 314C575.957 314 576.941 322.944 569.463 324L569 323.006C569 323.006 575.495 316.775 575.957 314Z" fill="#E05D51"/>
<path d="M573 309C573.057 317.978 567.862 322 567.862 322L567.695 321.958L566 321.564C566.335 318.808 568.394 315.342 570.165 312.744C571.669 310.575 573 309 573 309Z" fill="#E05D51"/>
<path opacity="0.1" d="M570 314C569.789 317.681 569.246 321.732 567.926 323.624C567.836 323.76 567.736 323.886 567.628 324L566 323.573C566.322 320.581 568.28 316.821 570 314Z" fill="black"/>
<path d="M567.249 321.986C566.941 322.343 566.547 322.627 566.097 322.814C565.96 322.872 565.817 322.917 565.671 322.948C564.38 323.226 563.943 322.366 564.006 320.901C564.133 318.298 565.896 313.782 567.463 310.399C568.615 307.967 569.658 306.123 569.934 306C569.934 305.995 570.666 318.309 567.249 321.986Z" fill="#E05D51"/>
<path opacity="0.1" d="M565.526 324C565.28 324.003 565.04 323.917 564.842 323.756C562.814 322.343 562.771 317.044 563.255 312C564.999 316.529 566.908 322.864 565.526 324Z" fill="black"/>
<path opacity="0.1" d="M568.306 323.129C568.018 323.727 567.63 324.041 567.131 323.996C566.876 323.966 566.632 323.878 566.421 323.738C565.768 323.312 565.271 322.702 565 321.993C565.129 319.269 566.926 314.541 568.523 311C569.098 315.906 569.292 321.109 568.306 323.129Z" fill="black"/>
<path d="M564.868 301C564.868 301 560.665 320.79 564.868 323.747C569.071 326.705 565.948 302.748 564.868 301Z" fill="#E05D51"/>
<path d="M575 322H556V325.268H558.899L558.972 325.654L560.134 332H571.18L572.342 325.654L572.41 325.268H575V322Z" fill="#4B4770"/>
<path opacity="0.1" d="M575 322H556V325.268H558.899L558.972 325.654L560.134 332H571.18L572.342 325.654L572.41 325.268H575V322Z" fill="black"/>
<path d="M573 323L572.658 324.932L571.414 332H559.586L558.342 324.932L558 323H573Z" fill="#4B4770"/>
<path opacity="0.1" d="M573 324L572.658 325H558.342L558 324H573Z" fill="black"/>
<rect x="556" y="322" width="19" height="3" fill="#4B4770"/>
<path d="M75.4237 378.032C74.9109 378.747 74.4999 379.531 74.2024 380.361C74.1274 380.562 74.0524 380.795 73.9774 381.017C73.8415 380.953 73.6998 380.902 73.5543 380.865C72.9299 380.706 72.2839 380.651 71.642 380.703C71.642 380.448 71.6742 380.161 71.6795 379.906C71.7599 377.051 71.4278 373.074 68.7334 374.759C66.1516 376.385 67.9942 379.094 69.6601 380.827C69.8047 380.979 69.9494 381.12 70.0886 381.255C68.5674 382.339 68.2781 384.902 68.0264 387.562C67.7746 390.223 65.541 393.132 64.0572 394.785C63.9072 394.953 63.7733 395.104 63.6394 395.245C62.4262 394.266 60.8571 393.858 59.3274 394.124C59.2685 393.891 59.1989 393.647 59.1292 393.392C57.9294 389.009 55.4386 381.418 52.2622 379.755L52.68 379.213C54.0298 377.43 55.5511 374.775 53.3067 374.098C51.0623 373.421 50.8588 376.395 50.982 378.628C51.0034 378.909 51.0248 379.175 51.0463 379.424C50.1394 379.466 49.2901 379.886 48.7001 380.584L48.352 380.166C46.5307 377.999 43.1936 374.548 42.1813 377.154C41.2385 379.581 44.1792 382.735 46.2469 384.561L46.3754 384.674C44.9881 390.369 51.0463 395.012 54.3084 397.044L54.7315 397.304C50.2321 402.668 47.4521 412.724 47.4521 412.724L60.0505 415C60.0505 415 68.4067 407.707 67.3354 400.859H67.4211C75.7719 399.168 77.6681 390.163 76.3664 384.815L76.5164 384.756C78.0379 384.126 79.3708 383.107 80.3838 381.797C82.7192 378.519 77.8341 374.813 75.4237 378.032Z" fill="#E05D51"/>
<path opacity="0.1" d="M75.4237 378.032C74.9109 378.747 74.4999 379.531 74.2024 380.361C74.1274 380.562 74.0524 380.795 73.9774 381.017C73.8415 380.953 73.6998 380.902 73.5543 380.865C72.9299 380.706 72.2839 380.651 71.642 380.703C71.642 380.448 71.6742 380.161 71.6795 379.906C71.7599 377.051 71.4278 373.074 68.7334 374.759C66.1516 376.385 67.9942 379.094 69.6601 380.827C69.8047 380.979 69.9494 381.12 70.0886 381.255C68.5674 382.339 68.2781 384.902 68.0264 387.562C67.7746 390.223 65.541 393.132 64.0572 394.785C63.9072 394.953 63.7733 395.104 63.6394 395.245C62.4262 394.266 60.8571 393.858 59.3274 394.124C59.2685 393.891 59.1989 393.647 59.1292 393.392C57.9294 389.009 55.4386 381.418 52.2622 379.755L52.68 379.213C54.0298 377.43 55.5511 374.775 53.3067 374.098C51.0623 373.421 50.8588 376.395 50.982 378.628C51.0034 378.909 51.0248 379.175 51.0463 379.424C50.1394 379.466 49.2901 379.886 48.7001 380.584L48.352 380.166C46.5307 377.999 43.1936 374.548 42.1813 377.154C41.2385 379.581 44.1792 382.735 46.2469 384.561L46.3754 384.674C44.9881 390.369 51.0463 395.012 54.3084 397.044L54.7315 397.304C50.2321 402.668 47.4521 412.724 47.4521 412.724L60.0505 415C60.0505 415 68.4067 407.707 67.3354 400.859H67.4211C75.7719 399.168 77.6681 390.163 76.3664 384.815L76.5164 384.756C78.0379 384.126 79.3708 383.107 80.3838 381.797C82.7192 378.519 77.8341 374.813 75.4237 378.032Z" fill="black"/>
<path d="M49 381.599L47.6385 386C47.6385 386 46.8809 385.406 45.9254 384.471C44.0143 382.616 41.2962 379.415 42.1675 376.95C43.1033 374.303 46.1878 377.797 47.8712 380.009C48.5495 380.889 49 381.599 49 381.599Z" fill="#E05D51"/>
<path d="M53.4861 378.269C53.1004 378.872 52.6874 379.45 52.2489 380C52.1405 379.231 52.065 378.455 52.0227 377.677C51.9165 375.42 52.1196 372.423 54.0262 373.097C55.9327 373.77 54.6494 376.466 53.4861 378.269Z" fill="#E05D51"/>
<path d="M71.9952 380.141C71.9547 381.729 71.8232 383 71.8232 383C71.211 382.433 70.6312 381.818 70.0874 381.16C68.5136 379.224 66.7728 376.239 69.2119 374.447C71.7321 372.577 72.0458 376.982 71.9952 380.141Z" fill="#E05D51"/>
<path d="M80.4268 381.331C79.4832 382.73 78.2415 383.819 76.8242 384.491C76.4308 384.688 76.0276 384.858 75.6167 385L74 382.367C74.1697 381.497 74.3932 380.643 74.6686 379.81C74.9457 378.923 75.3287 378.085 75.8063 377.322C78.0417 373.885 82.6024 377.842 80.4268 381.331Z" fill="#E05D51"/>
<path opacity="0.1" d="M47.8986 380C48.5604 380.886 49 381.572 49 381.572L47.6715 386C47.6715 386 46.9324 385.402 46 384.461C46.2072 383.034 46.7219 381.689 47.4976 380.548C47.628 380.365 47.7681 380.177 47.8986 380Z" fill="black"/>
<path opacity="0.1" d="M52 377.764C51.7365 378.543 51.4543 379.29 51.1546 380C51.0805 379.006 51.0289 378.005 51 377C51.3605 377.017 51.7099 377.284 52 377.764Z" fill="black"/>
<path d="M61 396.353L57.0065 398C57.0065 398 56.1366 397.605 54.8814 396.869C50.6836 394.441 42.2471 388.329 47.8753 381.124C53.5035 373.919 58.2501 386.841 60.1359 393.162C60.7022 395.084 61 396.353 61 396.353Z" fill="#E05D51"/>
<path opacity="0.1" d="M71 380.069C71.2639 379.424 71.6215 379.042 72 379C71.9788 380.667 71.9098 382 71.9098 382C71.589 381.405 71.285 380.76 71 380.069Z" fill="black"/>
<path opacity="0.1" d="M77 383.608C76.5821 383.76 76.1538 383.891 75.7173 384L74 381.971C74.1803 381.301 74.4177 380.642 74.7102 380C75.8074 380.544 76.6237 381.9 77 383.608Z" fill="black"/>
<path d="M67.5044 399.565C67.3025 399.607 67.0897 399.644 66.8768 399.676C54.3642 401.504 62.7515 395.005 62.7515 395.005C62.7515 395.005 63.2971 394.48 64.0775 393.686C65.589 392.084 67.8591 389.278 68.121 386.683C68.5139 382.779 68.9668 379.117 73.7525 380.189C78.4509 381.25 79.3512 397.28 67.5044 399.565Z" fill="#E05D51"/>
<rect x="45" y="431" width="23" height="6" fill="#D4DFEC"/>
<rect x="41" y="411" width="30" height="22" fill="#D4DFEC"/>
<rect opacity="0.1" x="45" y="431" width="23" height="6" fill="black"/>
<rect opacity="0.1" x="41" y="411" width="30" height="22" fill="black"/>
<rect x="47" y="431" width="23" height="6" fill="#D4DFEC"/>
<path opacity="0.1" d="M60.1527 393C60.7252 394.564 61 395.636 61 395.636L57.084 397C57.084 397 56.2309 396.673 55 396.064C56.5344 394.523 58.2634 393.359 60.1527 393Z" fill="black"/>
<path opacity="0.1" d="M68 400.587C67.8117 400.627 67.6132 400.662 67.4146 400.692C55.743 402.429 63.5665 396.253 63.5665 396.253C63.5665 396.253 64.0755 395.754 64.8034 395C66.982 396.713 67.8829 398.64 68 400.587Z" fill="black"/>
<path d="M48 410.836C48 410.836 54.8821 387.074 64.5353 394.404C74.1885 401.734 60.6065 413 60.6065 413L48 410.836Z" fill="#E05D51"/>
<path opacity="0.1" d="M51.5 386C51.7761 386 52 385.776 52 385.5C52 385.224 51.7761 385 51.5 385C51.2239 385 51 385.224 51 385.5C51 385.776 51.2239 386 51.5 386Z" fill="black"/>
<path opacity="0.1" d="M51.5 389C51.7761 389 52 388.776 52 388.5C52 388.224 51.7761 388 51.5 388C51.2239 388 51 388.224 51 388.5C51 388.776 51.2239 389 51.5 389Z" fill="black"/>
<path opacity="0.1" d="M73.5 386C73.7761 386 74 385.776 74 385.5C74 385.224 73.7761 385 73.5 385C73.2239 385 73 385.224 73 385.5C73 385.776 73.2239 386 73.5 386Z" fill="black"/>
<path opacity="0.1" d="M55.5 405C55.7761 405 56 404.776 56 404.5C56 404.224 55.7761 404 55.5 404C55.2239 404 55 404.224 55 404.5C55 404.776 55.2239 405 55.5 405Z" fill="black"/>
<path opacity="0.1" d="M71.5 392C71.7761 392 72 391.776 72 391.5C72 391.224 71.7761 391 71.5 391C71.2239 391 71 391.224 71 391.5C71 391.776 71.2239 392 71.5 392Z" fill="black"/>
<path opacity="0.1" d="M64.5 400C64.7761 400 65 399.776 65 399.5C65 399.224 64.7761 399 64.5 399C64.2239 399 64 399.224 64 399.5C64 399.776 64.2239 400 64.5 400Z" fill="black"/>
<path opacity="0.1" d="M54.5 387C54.7761 387 55 386.776 55 386.5C55 386.224 54.7761 386 54.5 386C54.2239 386 54 386.224 54 386.5C54 386.776 54.2239 387 54.5 387Z" fill="black"/>
<path opacity="0.1" d="M71.5 389C71.7761 389 72 388.776 72 388.5C72 388.224 71.7761 388 71.5 388C71.2239 388 71 388.224 71 388.5C71 388.776 71.2239 389 71.5 389Z" fill="black"/>
<path opacity="0.1" d="M68.5 395C68.7761 395 69 394.776 69 394.5C69 394.224 68.7761 394 68.5 394C68.2239 394 68 394.224 68 394.5C68 394.776 68.2239 395 68.5 395Z" fill="black"/>
<path opacity="0.1" d="M60.5 405C60.7761 405 61 404.776 61 404.5C61 404.224 60.7761 404 60.5 404C60.2239 404 60 404.224 60 404.5C60 404.776 60.2239 405 60.5 405Z" fill="black"/>
<path opacity="0.1" d="M58.5 400C58.7761 400 59 399.776 59 399.5C59 399.224 58.7761 399 58.5 399C58.2239 399 58 399.224 58 399.5C58 399.776 58.2239 400 58.5 400Z" fill="black"/>
<path opacity="0.1" d="M54.5 392C54.7761 392 55 391.776 55 391.5C55 391.224 54.7761 391 54.5 391C54.2239 391 54 391.224 54 391.5C54 391.776 54.2239 392 54.5 392Z" fill="black"/>
<rect opacity="0.1" x="47" y="431" width="23" height="3" fill="black"/>
<rect x="42" y="411" width="30" height="22" fill="#D4DFEC"/>
<path opacity="0.1" d="M61.5 408C61.7761 408 62 407.776 62 407.5C62 407.224 61.7761 407 61.5 407C61.2239 407 61 407.224 61 407.5C61 407.776 61.2239 408 61.5 408Z" fill="black"/>
<path opacity="0.1" d="M57.5 409C57.7761 409 58 408.776 58 408.5C58 408.224 57.7761 408 57.5 408C57.2239 408 57 408.224 57 408.5C57 408.776 57.2239 409 57.5 409Z" fill="black"/>
<path opacity="0.1" d="M28 34C31.3137 34 34 31.3137 34 28C34 24.6863 31.3137 22 28 22C24.6863 22 22 24.6863 22 28C22 31.3137 24.6863 34 28 34Z" fill="#E05D51"/>
<path opacity="0.1" d="M568.5 214C572.642 214 576 210.642 576 206.5C576 202.358 572.642 199 568.5 199C564.358 199 561 202.358 561 206.5C561 210.642 564.358 214 568.5 214Z" fill="#E05D51"/>
<path opacity="0.1" d="M583 195C586.314 195 589 192.314 589 189C589 185.686 586.314 183 583 183C579.686 183 577 185.686 577 189C577 192.314 579.686 195 583 195Z" fill="#E05D51"/>
<path opacity="0.1" d="M36.5 15C40.6421 15 44 11.6421 44 7.5C44 3.35786 40.6421 0 36.5 0C32.3579 0 29 3.35786 29 7.5C29 11.6421 32.3579 15 36.5 15Z" fill="#E05D51"/>
<path opacity="0.1" d="M7.5 50C11.6421 50 15 46.6421 15 42.5C15 38.3579 11.6421 35 7.5 35C3.35786 35 0 38.3579 0 42.5C0 46.6421 3.35786 50 7.5 50Z" fill="#E05D51"/>
<defs>
<linearGradient id="paint0_linear" x1="389.017" y1="418.003" x2="389.017" y2="101.99" gradientUnits="userSpaceOnUse">
<stop stop-color="#808080" stop-opacity="0.25"/>
<stop offset="0.54" stop-color="#808080" stop-opacity="0.12"/>
<stop offset="1" stop-color="#808080" stop-opacity="0.1"/>
</linearGradient>
</defs>
</svg>
